<?xml version="1.0" encoding="utf-8"?>
<!-- Generator: Adobe Illustrator 26.3.1, SVG Export Plug-In . SVG Version: 6.00 Build 0)  -->
<svg version="1.1" id="Capa_1" xmlns="http://www.w3.org/2000/svg" xmlns:xlink="http://www.w3.org/1999/xlink" x="0px" y="0px"
	 viewBox="0 0 100 100" style="enable-background:new 0 0 100 100;" xml:space="preserve">
<style type="text/css">
	.st0{fill:#00937B;}
</style>
<g>
	<path class="st0" d="M11.31,28.84V90h77.6V28.84H11.31z M32.85,81.51H20.57V69.22h12.27V81.51z M32.85,66.46H20.57V54.19h12.27
		V66.46z M32.92,51.42H20.65V39.15h12.28V51.42z M48.33,81.51H36.04V69.22h12.29V81.51z M48.33,66.46H36.04V54.19h12.29V66.46z
		 M48.39,51.42H36.12V39.15h12.28V51.42z M63.91,81.51H51.63V69.22h12.28V81.51z M63.91,66.46H51.63V54.19h12.28V66.46z
		 M63.99,51.42H51.7V39.15h12.29V51.42z M79.49,81.51H67.21V69.22h12.27V81.51z M79.49,66.46H67.21V54.19h12.27V66.46z M79.57,51.42
		H67.29V39.15h12.28V51.42z"/>
	<path class="st0" d="M25.84,25.91c-1.73,0-3.14-1.41-3.14-3.14V12.7c0-1.73,1.41-3.14,3.14-3.14c1.73,0,3.14,1.41,3.14,3.14v10.06
		C28.98,24.5,27.57,25.91,25.84,25.91z M25.84,10.65c-1.13,0-2.05,0.92-2.05,2.05v10.06c0,1.13,0.92,2.05,2.05,2.05
		c1.13,0,2.05-0.92,2.05-2.05V12.7C27.89,11.57,26.97,10.65,25.84,10.65z"/>
	<path class="st0" d="M42.18,25.91c-1.73,0-3.14-1.41-3.14-3.14V12.7c0-1.73,1.41-3.14,3.14-3.14c1.73,0,3.14,1.41,3.14,3.14v10.06
		C45.33,24.5,43.92,25.91,42.18,25.91z M42.18,10.65c-1.13,0-2.05,0.92-2.05,2.05v10.06c0,1.13,0.92,2.05,2.05,2.05
		c1.13,0,2.05-0.92,2.05-2.05V12.7C44.24,11.57,43.32,10.65,42.18,10.65z"/>
	<path class="st0" d="M57.84,25.91c-1.73,0-3.14-1.41-3.14-3.14V12.7c0-1.73,1.41-3.14,3.14-3.14c1.73,0,3.14,1.41,3.14,3.14v10.06
		C60.98,24.5,59.57,25.91,57.84,25.91z M57.84,10.65c-1.13,0-2.05,0.92-2.05,2.05v10.06c0,1.13,0.92,2.05,2.05,2.05
		c1.13,0,2.05-0.92,2.05-2.05V12.7C59.89,11.57,58.97,10.65,57.84,10.65z"/>
	<path class="st0" d="M73.35,25.91c-1.73,0-3.14-1.41-3.14-3.14V12.7c0-1.73,1.41-3.14,3.14-3.14c1.73,0,3.14,1.41,3.14,3.14v10.06
		C76.49,24.5,75.08,25.91,73.35,25.91z M73.35,10.65c-1.13,0-2.05,0.92-2.05,2.05v10.06c0,1.13,0.92,2.05,2.05,2.05
		c1.13,0,2.05-0.92,2.05-2.05V12.7C75.41,11.57,74.49,10.65,73.35,10.65z"/>
	<rect x="69.7" y="41.69" class="st0" width="7.31" height="7.31"/>
	<rect x="11.31" y="17.74" class="st0" width="77.6" height="8.17"/>
</g>
</svg>
