<?xml version="1.0" encoding="utf-8"?>
<!-- Generator: Adobe Illustrator 26.3.1, SVG Export Plug-In . SVG Version: 6.00 Build 0)  -->
<svg version="1.1" id="Capa_1" xmlns="http://www.w3.org/2000/svg" xmlns:xlink="http://www.w3.org/1999/xlink" x="0px" y="0px"
	 viewBox="0 0 100 100" style="enable-background:new 0 0 100 100;" xml:space="preserve">
<style type="text/css">
	.st0{fill-rule:evenodd;clip-rule:evenodd;fill:#00937B;}
</style>
<path class="st0" d="M90,77.02h-7.64c-0.56-3.84-1.05-6.67-1.5-8.7c-0.08-0.34-0.24-0.99-0.43-1.37C79.05,64.63,65.49,60,63.11,59.2
	l-2.29-2.28v-0.01c2.24-2.39,4.22-5.67,5.68-9.39c2.27-0.14,3.58-3.23,4.03-5.89c0.25-1.5,0.24-2.98-0.02-4.17
	c-0.3-1.36-0.89-2.08-1.44-2.46c0.09-4.51-0.8-8.35-2.53-11.37c0.39,0.01,0.78,0.03,1.14,0.06c7.81,0.78,10.78,6.82,10.78,13.62
	c0,0.46-0.02,0.93-0.04,1.39c0.1-0.02,0.19-0.03,0.29-0.01c0.9,0.15,1.33,2.07,0.96,4.31c-0.38,2.23-1.4,3.92-2.3,3.77
	c-0.19-0.03-0.37-0.14-0.51-0.32c-1.21,3.49-3.01,6.63-5.15,8.75v1.04l2.45,2.44c3.76,1.22,13.36,4.87,13.72,5.81
	c0.11,0.19,0.24,0.78,0.25,0.83C88.74,68,89.36,72.15,90,77.02z"/>
<path class="st0" d="M41.19,56.92v0.01l-2.29,2.28c-1.19,0.4-5.17,1.76-9.02,3.3c-3.86,1.55-7.6,3.28-8.29,4.45
	c-0.19,0.38-0.36,1.03-0.43,1.38c-0.45,2.03-0.94,4.85-1.5,8.69h-7.51C12.79,72.16,13.4,68,14,65.33c0.01-0.05,0.15-0.64,0.25-0.83
	c0.36-0.94,9.97-4.59,13.73-5.81l2.45-2.44v-1.04c-2.14-2.13-3.95-5.27-5.15-8.75c-0.15,0.18-0.31,0.29-0.51,0.32
	c-0.89,0.15-1.93-1.53-2.3-3.77c-0.37-2.23,0.05-4.16,0.95-4.31c0.1-0.02,0.19-0.01,0.29,0.01c-0.41-7.35,2.42-14.18,10.75-15.01
	c0.32-0.03,0.66-0.05,1-0.05c-1.73,3.01-2.6,6.85-2.52,11.36c-0.56,0.38-1.14,1.1-1.45,2.46c-0.26,1.19-0.27,2.67-0.02,4.17
	c0.44,2.67,1.76,5.75,4.03,5.89C36.97,51.25,38.94,54.53,41.19,56.92z"/>
<path class="st0" d="M78.38,68.66c-0.01-0.06-0.18-0.78-0.3-1.02c-0.44-1.15-12.19-5.61-16.78-7.1l-3-2.98V56.3
	c2.61-2.6,4.82-6.43,6.3-10.7c0.18,0.22,0.39,0.36,0.62,0.4c1.1,0.18,2.36-1.88,2.81-4.61c0.45-2.73-0.07-5.09-1.17-5.27
	c-0.12-0.02-0.24-0.01-0.36,0.02c0,0,0,0,0,0c0.51-8.99-2.95-17.34-13.13-18.35c-0.68-0.07-1.39-0.1-2.13-0.1
	c-0.08,0-0.16,0.01-0.24,0.01c-0.08,0-0.16-0.01-0.24-0.01c-0.74,0-1.45,0.04-2.13,0.1C38.45,18.8,34.99,27.15,35.5,36.14
	c0,0,0,0,0,0c-0.12-0.03-0.24-0.04-0.36-0.02c-1.1,0.18-1.62,2.54-1.17,5.27c0.45,2.73,1.71,4.79,2.81,4.61
	c0.23-0.04,0.44-0.18,0.62-0.4c1.47,4.27,3.69,8.1,6.3,10.7v1.27l-3,2.98c-4.59,1.49-16.34,5.95-16.78,7.1
	c-0.12,0.24-0.29,0.95-0.3,1.02c-0.47,2.11-1.45,8.36-1.45,8.36l57.65,0.01C79.83,77.04,78.85,70.78,78.38,68.66z"/>
</svg>
