<?xml version="1.0" encoding="utf-8"?>
<!-- Generator: Adobe Illustrator 26.3.1, SVG Export Plug-In . SVG Version: 6.00 Build 0)  -->
<svg version="1.1" id="Capa_1" xmlns="http://www.w3.org/2000/svg" xmlns:xlink="http://www.w3.org/1999/xlink" x="0px" y="0px"
	 viewBox="0 0 100 100" style="enable-background:new 0 0 100 100;" xml:space="preserve">
<style type="text/css">
	.st0{fill:#EF216B;}
</style>
<path class="st0" d="M89.48,71.36c-0.29,0-0.57,0.03-0.85,0.08V27.91c0.27,0.05,0.56,0.08,0.85,0.08c2.5,0,4.52-2.02,4.52-4.52
	s-2.02-4.52-4.52-4.52c-2.5,0-4.52,2.02-4.52,4.52c0,0.39,0.05,0.77,0.14,1.13H13.9c0.09-0.36,0.14-0.74,0.14-1.13
	c0-2.5-2.02-4.52-4.52-4.52S5,20.98,5,23.47s2.02,4.52,4.52,4.52c0.44,0,0.87-0.06,1.27-0.18v43.73c-0.4-0.12-0.83-0.18-1.27-0.18
	c-2.5,0-4.52,2.02-4.52,4.52c0,2.5,2.02,4.52,4.52,4.52s4.52-2.02,4.52-4.52c0-0.65-0.14-1.28-0.39-1.84h71.7
	c-0.25,0.56-0.39,1.18-0.39,1.84c0,2.5,2.02,4.52,4.52,4.52c2.5,0,4.52-2.02,4.52-4.52C94,73.39,91.98,71.36,89.48,71.36z
	 M53.31,64.98v6.67l-1.98-2.68l-2.12,2.68v-6.67c-1.67-0.77-2.83-2.46-2.83-4.42c0-2.69,2.18-4.87,4.87-4.87s4.87,2.18,4.87,4.87
	C56.14,62.52,54.98,64.2,53.31,64.98z M79.8,50.46H19.69c-0.62,0-1.13-0.51-1.13-1.13c0-0.62,0.51-1.13,1.13-1.13H79.8
	c0.62,0,1.13,0.51,1.13,1.13C80.93,49.95,80.42,50.46,79.8,50.46z M80.5,42.69H20.4c-0.62,0-1.13-0.51-1.13-1.13
	c0-0.62,0.51-1.13,1.13-1.13H80.5c0.62,0,1.13,0.51,1.13,1.13C81.63,42.18,81.13,42.69,80.5,42.69z M80.5,35.48H20.4
	c-0.62,0-1.13-0.51-1.13-1.13c0-0.62,0.51-1.13,1.13-1.13H80.5c0.62,0,1.13,0.51,1.13,1.13C81.63,34.97,81.13,35.48,80.5,35.48z"/>
</svg>
