<?xml version="1.0" encoding="utf-8"?>
<!-- Generator: Adobe Illustrator 26.3.1, SVG Export Plug-In . SVG Version: 6.00 Build 0)  -->
<svg version="1.1" id="Capa_1" xmlns="http://www.w3.org/2000/svg" xmlns:xlink="http://www.w3.org/1999/xlink" x="0px" y="0px"
	 viewBox="0 0 198.7 61.9" style="enable-background:new 0 0 198.7 61.9;" xml:space="preserve">
<style type="text/css">
	.st0{fill:#051F69;}
	.st1{font-family:'WorkSans-Black';}
	.st2{font-size:13.628px;}
	.st3{enable-background:new    ;}
</style>
<g>
	<path class="st0" d="M99.1,21.6h4v0.9h-4.9v-7.1h0.9V21.6L99.1,21.6z"/>
	<path class="st0" d="M105.2,14.5h0.9l-1,1.9h-0.7L105.2,14.5z M105.3,17.1v5.3h-0.9v-5.3H105.3z"/>
	<path class="st0" d="M107.2,22.4v-5.3h0.9l0.1,1.3l-0.1-0.1c0.1-0.3,0.3-0.6,0.4-0.7c0.3-0.1,0.4-0.3,0.7-0.3
		c0.3-0.1,0.6-0.1,0.9-0.1s0.7,0.1,1,0.3s0.6,0.3,0.9,0.7c0.3,0.3,0.3,0.7,0.3,1.2v3.5h-0.9v-3.2c0-0.6-0.1-1-0.3-1.3
		c-0.3-0.3-0.6-0.3-0.9-0.3c-0.3,0-0.6,0.1-0.9,0.3s-0.4,0.3-0.7,0.6c-0.1,0.3-0.3,0.7-0.3,1.2v2.9L107.2,22.4
		C107.2,22.6,107.2,22.4,107.2,22.4z"/>
	<path class="st0" d="M116.1,22.6c-0.4,0-0.9-0.1-1.3-0.3c-0.3-0.3-0.7-0.6-0.9-0.9c-0.3-0.4-0.3-0.9-0.3-1.4c0-0.6,0.1-1,0.3-1.4
		c0.3-0.4,0.6-0.7,0.9-0.9c0.3-0.3,0.9-0.3,1.3-0.3s0.9,0.1,1.3,0.3c0.3,0.3,0.6,0.4,0.9,0.9c0.3,0.4,0.3,0.9,0.3,1.3
		c0,0.1,0,0.3,0,0.3c0,0.1,0,0.3,0,0.3h-4.3v-0.9h3.9l-0.4,0.1c0-0.6-0.1-0.9-0.4-1.2c-0.3-0.3-0.7-0.4-1.2-0.4
		c-0.3,0-0.7,0.1-0.9,0.3c-0.3,0.1-0.4,0.3-0.6,0.7c-0.1,0.3-0.3,0.7-0.3,1.2c0,0.4,0.1,0.9,0.3,1.2c0.1,0.3,0.3,0.6,0.6,0.7
		c0.3,0.1,0.6,0.3,0.9,0.3s0.7-0.1,0.9-0.3c0.1-0.1,0.4-0.3,0.6-0.6l0.7,0.3c-0.1,0.3-0.3,0.4-0.6,0.7c-0.3,0.3-0.4,0.3-0.9,0.4
		C116.4,22.7,116.6,22.6,116.1,22.6z"/>
	<path class="st0" d="M123.2,19c0-0.4-0.1-0.7-0.3-0.9c-0.3-0.3-0.6-0.3-0.9-0.3s-0.7,0.1-0.9,0.3c-0.3,0.1-0.4,0.4-0.6,0.9
		l-0.7-0.4c0.1-0.4,0.4-0.7,0.9-1c0.3-0.3,0.9-0.3,1.4-0.3c0.3,0,0.7,0.1,1,0.3s0.6,0.3,0.9,0.6c0.3,0.3,0.3,0.6,0.3,1v2.6
		c0,0.3,0.1,0.3,0.4,0.3c0.1,0,0.3,0,0.3,0v0.7c-0.1,0.1-0.3,0.1-0.6,0.1c-0.3,0-0.3,0-0.6-0.1c-0.1-0.1-0.3-0.3-0.3-0.3
		c-0.1-0.1-0.1-0.3-0.1-0.6v-0.1h0.3c-0.1,0.3-0.3,0.4-0.4,0.7c-0.3,0.3-0.4,0.3-0.7,0.3c-0.3,0.1-0.4,0.1-0.9,0.1
		c-0.3,0-0.6,0-0.9-0.1s-0.4-0.3-0.7-0.4c-0.1-0.3-0.3-0.4-0.3-0.9c0-0.4,0.1-0.7,0.4-1c0.3-0.3,0.7-0.4,1.2-0.6l2.2-0.4v0.7
		l-1.7,0.3c-0.3,0.1-0.6,0.3-0.9,0.3c-0.3,0.1-0.3,0.3-0.3,0.6c0,0.3,0.1,0.4,0.3,0.6c0.3,0.1,0.4,0.3,0.9,0.3c0.3,0,0.4,0,0.6-0.1
		c0.1-0.1,0.3-0.1,0.4-0.3c0.1-0.1,0.3-0.3,0.3-0.4c0.1-0.1,0.1-0.3,0.1-0.6L123.2,19L123.2,19z"/>
	<path class="st0" d="M132.5,17.1v0.9h-3.9v-0.9H132.5z M130.6,15.6v5.5c0,0.3,0.1,0.4,0.3,0.6c0.1,0.1,0.3,0.3,0.6,0.3
		s0.3,0,0.6-0.1c0.1-0.1,0.3-0.1,0.4-0.3l0.3,0.7c-0.1,0.1-0.3,0.3-0.6,0.3c-0.3,0.1-0.4,0.1-0.9,0.1c-0.3,0-0.6,0-0.9-0.1
		c-0.3-0.1-0.4-0.3-0.6-0.4c-0.1-0.1-0.3-0.4-0.3-0.9v-5.3L130.6,15.6z"/>
	<path class="st0" d="M136.1,22.6c-0.4,0-0.9-0.1-1.3-0.3c-0.3-0.3-0.7-0.6-0.9-0.9c-0.3-0.4-0.3-0.9-0.3-1.4c0-0.6,0.1-1,0.3-1.4
		c0.3-0.4,0.6-0.7,0.9-0.9c0.3-0.3,0.9-0.3,1.3-0.3c0.4,0,0.9,0.1,1.3,0.3c0.4,0.1,0.6,0.4,0.9,0.9c0.3,0.4,0.3,0.9,0.3,1.3
		c0,0.1,0,0.3,0,0.3c0,0.1,0,0.3,0,0.3h-4.3v-0.9h4l-0.4,0.1c0-0.6-0.1-0.9-0.4-1.2c-0.3-0.3-0.7-0.4-1.2-0.4
		c-0.3,0-0.7,0.1-0.9,0.3s-0.4,0.3-0.6,0.7c-0.1,0.3-0.3,0.7-0.3,1.2c0,0.4,0.1,0.9,0.3,1.2c0.1,0.3,0.3,0.6,0.6,0.7
		c0.3,0.1,0.6,0.3,0.9,0.3c0.3,0,0.7-0.1,0.9-0.3c0.3-0.1,0.4-0.3,0.6-0.6l0.7,0.3c-0.1,0.3-0.3,0.4-0.6,0.7s-0.4,0.3-0.9,0.4
		C136.5,23.1,136.4,22.6,136.1,22.6z"/>
	<path class="st0" d="M140,22.4v-5.3h0.7v0.9c0.3-0.3,0.4-0.6,0.9-0.7c0.3-0.1,0.7-0.3,0.9-0.3c0.3,0,0.7,0.1,1,0.3
		c0.3,0.3,0.6,0.4,0.9,0.9c0.1-0.3,0.3-0.4,0.4-0.6c0.3-0.1,0.4-0.3,0.7-0.3c0.3,0,0.4-0.1,0.7-0.1c0.3,0,0.7,0.1,1,0.3
		c0.3,0.1,0.6,0.3,0.9,0.7c0.3,0.3,0.3,0.7,0.3,1.2v3.5h-0.9v-3.3c0-0.4-0.1-0.9-0.3-1c-0.3-0.3-0.6-0.3-0.9-0.3
		c-0.3,0-0.6,0.1-0.9,0.3c-0.3,0.1-0.4,0.3-0.6,0.6c-0.1,0.3-0.3,0.6-0.3,1v2.9h-0.9v-3.5c0-0.4-0.1-0.9-0.3-1
		c-0.3-0.3-0.6-0.3-0.9-0.3c-0.3,0-0.4,0.1-0.7,0.3s-0.4,0.3-0.6,0.6c-0.1,0.3-0.3,0.7-0.3,1v2.9L140,22.4L140,22.4z"/>
	<path class="st0" d="M153.3,19c0-0.4-0.1-0.7-0.3-0.9c-0.3-0.3-0.6-0.3-0.9-0.3c-0.3,0-0.7,0.1-0.9,0.3c-0.1,0.1-0.4,0.4-0.6,0.9
		l-0.7-0.4c0.1-0.4,0.4-0.7,0.9-1c0.3-0.3,0.9-0.3,1.4-0.3c0.3,0,0.7,0.1,1,0.3c0.3,0.1,0.6,0.3,0.9,0.6c0.3,0.3,0.3,0.6,0.3,1v2.6
		c0,0.3,0.1,0.3,0.4,0.3c0.1,0,0.3,0,0.3,0v0.7c-0.1,0.1-0.3,0.1-0.6,0.1s-0.3,0-0.6-0.1c-0.1-0.1-0.3-0.3-0.3-0.3
		c-0.1-0.1-0.1-0.3-0.1-0.6v-0.1h0.3c-0.1,0.3-0.3,0.4-0.4,0.7c-0.3,0.3-0.4,0.3-0.7,0.3c-0.3,0.1-0.4,0.1-0.9,0.1
		c-0.3,0-0.6,0-0.9-0.1c-0.3-0.1-0.4-0.3-0.7-0.4c-0.1-0.3-0.3-0.4-0.3-0.9c0-0.4,0.1-0.7,0.4-1c0.3-0.3,0.7-0.4,1.2-0.6l2.2-0.4
		v0.7l-1.7,0.3c-0.3,0.1-0.6,0.3-0.9,0.3c-0.3,0.1-0.3,0.3-0.3,0.6c0,0.3,0.1,0.4,0.3,0.6c0.3,0.1,0.4,0.3,0.9,0.3
		c0.3,0,0.4,0,0.6-0.1c0.1-0.1,0.3-0.1,0.4-0.3c0.1-0.1,0.3-0.3,0.3-0.4c0.1-0.1,0.1-0.3,0.1-0.6L153.3,19L153.3,19z M152.5,14.5
		h0.9l-1,1.9h-0.7L152.5,14.5z"/>
	<path class="st0" d="M159.3,17.1v0.9h-3.9v-0.9H159.3z M157.3,15.6v5.5c0,0.3,0.1,0.4,0.3,0.6s0.3,0.3,0.6,0.3c0.3,0,0.3,0,0.6-0.1
		c0.1-0.1,0.3-0.1,0.4-0.3l0.3,0.7c-0.1,0.1-0.3,0.3-0.6,0.3c-0.3,0.1-0.4,0.1-0.9,0.1c-0.3,0-0.6,0-0.9-0.1
		c-0.3-0.1-0.4-0.3-0.6-0.4c-0.1-0.1-0.3-0.4-0.3-0.9v-5.3L157.3,15.6z"/>
	<path class="st0" d="M161.1,16.1c-0.3,0-0.3-0.1-0.4-0.3c-0.1-0.1-0.3-0.3-0.3-0.4c0-0.1,0.1-0.3,0.3-0.4c0.1-0.1,0.3-0.3,0.4-0.3
		s0.3,0.1,0.4,0.3c0.1,0.1,0.3,0.3,0.3,0.4c0,0.1-0.1,0.3-0.3,0.4C161.3,16.1,161.2,16.1,161.1,16.1z M161.3,17.1v5.3h-0.9v-5.3
		H161.3z"/>
	<path class="st0" d="M165.5,16.9c0.3,0,0.7,0.1,1,0.3c0.3,0.1,0.6,0.3,0.7,0.4c0.3,0.3,0.3,0.4,0.4,0.9l-0.9,0.3
		c-0.1-0.3-0.3-0.6-0.6-0.9c-0.3-0.3-0.6-0.3-0.9-0.3c-0.3,0-0.7,0.1-0.9,0.3c-0.3,0.1-0.4,0.3-0.6,0.7c-0.1,0.4-0.3,0.7-0.3,1.2
		c0,0.4,0.1,0.9,0.3,1.2c0.1,0.3,0.3,0.6,0.6,0.7c0.3,0.1,0.6,0.3,0.9,0.3c0.3,0,0.6,0,0.7-0.1c0.3-0.1,0.3-0.3,0.4-0.3
		c0.1-0.1,0.3-0.3,0.3-0.6l0.9,0.3c-0.1,0.3-0.3,0.6-0.4,0.9c-0.3,0.3-0.4,0.4-0.9,0.6c-0.3,0.1-0.7,0.3-1,0.3
		c-0.4,0-0.9-0.1-1.3-0.3c-0.3-0.3-0.7-0.6-0.9-0.9c-0.3-0.4-0.3-0.9-0.3-1.4s0.1-1,0.3-1.4c0.3-0.4,0.6-0.7,0.9-0.9
		C164.7,17.1,165.1,16.9,165.5,16.9z"/>
	<path class="st0" d="M172.5,19c0-0.4-0.1-0.7-0.3-0.9c-0.1-0.1-0.6-0.3-0.9-0.3c-0.3,0-0.7,0.1-0.9,0.3s-0.4,0.4-0.6,0.9l-0.7-0.4
		c0.1-0.4,0.4-0.7,0.9-1c0.3-0.3,0.9-0.3,1.4-0.3c0.3,0,0.7,0.1,1,0.3c0.3,0.1,0.6,0.3,0.9,0.6c0.3,0.3,0.3,0.6,0.3,1v2.6
		c0,0.3,0.1,0.3,0.4,0.3c0.1,0,0.3,0,0.3,0v0.7c-0.1,0.1-0.3,0.1-0.6,0.1c-0.3,0-0.3,0-0.6-0.1c-0.1-0.1-0.3-0.3-0.3-0.3
		c-0.1-0.1-0.1-0.3-0.1-0.6v-0.1h0.3c-0.1,0.3-0.3,0.4-0.4,0.7c-0.3,0.3-0.4,0.3-0.7,0.3c-0.3,0.1-0.4,0.1-0.9,0.1
		c-0.3,0-0.6,0-0.9-0.1c-0.3-0.1-0.4-0.3-0.7-0.4c-0.1-0.3-0.3-0.4-0.3-0.9c0-0.4,0.1-0.7,0.4-1s0.7-0.4,1.2-0.6l2.2-0.4v0.7
		l-1.7,0.3c-0.3,0.1-0.6,0.3-0.9,0.3c-0.3,0.1-0.3,0.3-0.3,0.6c0,0.3,0.1,0.4,0.3,0.6c0.3,0.1,0.4,0.3,0.9,0.3c0.3,0,0.4,0,0.6-0.1
		s0.3-0.1,0.4-0.3s0.3-0.3,0.3-0.4c0.1-0.1,0.1-0.3,0.1-0.6L172.5,19L172.5,19z"/>
</g>
<text transform="matrix(1 0 0 1 98.3599 37.6065)" class="st0 st1 st2">ACUICULTURA </text>
<text transform="matrix(1 0 0 1 98.3599 51.042)" class="st0 st1 st2">Y PESCA</text>
<g>
	<g>
		<path class="st0" d="M87.7,16.2L87.7,16.2c-6.4,0-11.6,5.2-11.6,11.6v3l0,0c6.4,0,11.6-5.2,11.6-11.6V16.2z"/>
		<path class="st0" d="M87.7,45.4L87.7,45.4c-6.4,0-11.6-5.2-11.6-11.6v-3l0,0c6.4,0,11.6,5.2,11.6,11.6V45.4z"/>
	</g>
	<g>
		<path class="st0" d="M66,12L66,12c-5.2-3.8-12.4-2.5-16,2.7l-1.7,2.5l0,0c5.2,3.8,12.4,2.5,16-2.7L66,12z"/>
		<path class="st0" d="M66,49.6L66,49.6c-5.2,3.8-12.4,2.5-16-2.7l-1.7-2.5l0,0c5.2-3.8,12.4-2.5,16,2.7L66,49.6z"/>
	</g>
	<path class="st0" d="M76.3,27.8c-4-4.3-12.3-11.6-22-11.6c-2,0-4,0.3-5.9,0.9c0,0,0,0,0.1,0c0,0,3.8,5.2,3.8,12.3
		c0,1.7-0.3,3.6-0.9,5.5c0,0.1-0.1,0.1-0.3,0.1C51,35,51,34.9,51,34.7c0.6-1.9,0.9-3.8,0.9-5.3c0-6.6-3.5-11.7-3.8-12l0,0l0,0
		c0-0.1,0-0.1,0-0.3c-10.5,3.3-18.2,13.6-18.2,13.6s11,14.6,24.6,14.6c9.5,0,17.9-7.4,22-11.6C77.9,32.1,77.9,29.5,76.3,27.8z
		 M44.5,27.5c-0.9,0-1.6-0.7-1.6-1.6s0.7-1.6,1.6-1.6c0.9,0,1.6,0.7,1.6,1.6C45.9,26.9,45.2,27.5,44.5,27.5z M61.2,24.5
		c0,0.9-0.4,1.7-1,2.3c-0.3,0.3-0.7,0.6-1.2,0.7c1.2,0.4,2,1.6,2,3v0.1c0,0.9-0.4,1.7-1,2.3c-0.3,0.3-0.7,0.6-1.2,0.7
		c1.2,0.4,2,1.6,2,3v0.1c0,0.9-0.4,1.7-1,2.3c-0.6,0.6-1.4,1-2.3,1c-0.1,0-0.3-0.1-0.3-0.3c0-0.1,0.1-0.3,0.3-0.3
		c0.7,0,1.4-0.3,2-0.9c0.6-0.6,0.9-1.2,0.9-2v-0.1c0-0.7-0.3-1.4-0.9-2c-0.6-0.6-1.2-0.9-2-0.9h-0.1v-0.1v-0.1h0.1
		c0.7,0,1.4-0.3,2-0.9c0.6-0.6,0.9-1.2,0.9-2v-0.1c0-0.7-0.3-1.4-0.9-2c-0.6-0.6-1.2-0.9-2-0.9h-0.1v-0.1v-0.1h0.1
		c0.7,0,1.4-0.3,2-0.9c0.6-0.6,0.9-1.2,0.9-2v-0.1c0-0.7-0.3-1.4-0.9-2c-0.6-0.6-1.2-0.9-2-0.9c-0.1,0-0.3-0.1-0.3-0.3
		s0.1-0.3,0.3-0.3c1.7,0,3.2,1.4,3.2,3.2v0.6H61.2z M68.9,27.8c0,0.9-0.4,1.7-1,2.3c-0.3,0.3-0.7,0.6-1.2,0.7c1.2,0.4,2,1.6,2,3V34
		c0,0.9-0.4,1.7-1,2.3c-0.6,0.6-1.4,1-2.3,1c-0.1,0-0.3-0.1-0.3-0.3s0.1-0.3,0.3-0.3c0.7,0,1.4-0.3,2-0.9c0.6-0.6,0.9-1.2,0.9-2
		v-0.1c0-0.7-0.3-1.4-0.9-2c-0.6-0.6-1.2-0.9-2-0.9h-0.1v-0.1v-0.1h0.1c0.7,0,1.4-0.3,2-0.9c0.6-0.6,0.9-1.2,0.9-2v-0.1
		c0-0.7-0.3-1.4-0.9-2c-0.6-0.6-1.2-0.9-2-0.9c-0.1,0-0.3-0.1-0.3-0.3s0.1-0.3,0.3-0.3c1.7,0,3.2,1.4,3.2,3.2v0.6H68.9z"/>
</g>
<path class="st0" d="M31.5,40.3l-3.8-5.1c0.6-1.2,0.6-2.6-0.3-3.8c-1.2-1.7-3.6-2.2-5.3-1l2.5,3.6l-3.2,0.3l0,0l0,0l0,0l0,0l0,0v0.1
	c0,0.1,0.1,0.4,0.1,0.6c0.1,0.3,0.3,0.6,0.6,0.9l0,0l0,0l0,0l0.1,0.1l0,0l0.1,0.1l0,0l0.1,0.1c0.4,0.3,1,0.4,1.9,0.4
	c0.1,0,0.3,0,0.4,0c0.1,0,0.3,0.1,0.3,0.1c0.4-0.1,0.7-0.3,1-0.6l0,0c0.1-0.1,0.3-0.3,0.4-0.4l2.7,3.6h-3.2
	c-0.1-0.9-0.6-1.7-1.2-2.5h-0.1c-0.1,0-0.3,0-0.4,0c-0.9,0-1.6-0.1-2-0.4c-0.4-0.3-0.9-0.6-1-1h-4.8c-0.3,0.3-0.6,0.7-1,1
	c-0.6,0.3-1.2,0.4-2,0.4c-0.1,0-0.3,0-0.4,0c0,0-0.1,0-0.1-0.1c-0.6,0.7-1,1.4-1.2,2.5H8.7l2.7-3.6c0.1,0.1,0.3,0.3,0.4,0.4l0,0
	c0.3,0.3,0.7,0.4,1.2,0.6c0-0.1,0.1-0.1,0.3-0.1c0.1,0,0.1,0,0.3,0l0,0c0,0,0,0,0.1,0c0.7,0,1.3-0.1,1.7-0.4c0.1,0,0.1-0.1,0.3-0.1
	c0,0,0,0,0.1,0L16,36l0.1-0.1l0,0l0,0c0.1-0.1,0.3-0.3,0.3-0.4c0.4-0.7,0.6-1.3,0.6-1.3l-3.2-0.3l2.5-3.6c-1.7-1.2-4.2-0.7-5.3,1
	c-0.9,1.2-0.9,2.6-0.3,3.8l-3.8,5.1c-0.1,0.1-0.1,0.4,0,0.7s0.3,0.3,0.6,0.3l0,0H12c0.1,1,0.7,2,1.4,2.6v3c0,0.1,0.1,0.4,0.4,0.4
	c0.1,0,0.4-0.1,0.4-0.4v-2.5c0.3,0.1,0.4,0.3,0.7,0.3v2.2c0,0.1,0.1,0.4,0.4,0.4c0.1,0,0.4-0.1,0.4-0.4v-2c0.1,0,0.4,0,0.6,0h0.1
	v1.9c0,0.1,0.1,0.4,0.4,0.4c0.1,0,0.4-0.1,0.4-0.4v-1.9h3.6v1.9c0,0.1,0.1,0.4,0.4,0.4c0.1,0,0.4-0.1,0.4-0.4v-1.9h0.3
	c0.1,0,0.3,0,0.6,0v2c0,0.1,0.1,0.4,0.4,0.4c0.1,0,0.4-0.1,0.4-0.4v-2.2c0.3-0.1,0.6-0.1,0.7-0.3v2.5c0,0.1,0.1,0.4,0.4,0.4
	c0.1,0,0.4-0.1,0.4-0.4v-2.6c0.9-0.7,1.4-1.6,1.6-2.7h4.5l0,0c0.3,0,0.4-0.1,0.6-0.3C31.6,40.8,31.6,40.5,31.5,40.3z M16.2,41.4
	c-0.3,0-0.6-0.3-0.6-0.6s0.3-0.6,0.6-0.6c0.3,0,0.6,0.3,0.6,0.6S16.6,41.4,16.2,41.4z M22.1,41.4c-0.3,0-0.6-0.3-0.6-0.6
	s0.3-0.6,0.6-0.6c0.3,0,0.6,0.3,0.6,0.6S22.5,41.4,22.1,41.4z"/>
</svg>
