<?xml version="1.0" encoding="utf-8"?>
<!-- Generator: Adobe Illustrator 26.3.1, SVG Export Plug-In . SVG Version: 6.00 Build 0)  -->
<svg version="1.1" id="Capa_1" xmlns="http://www.w3.org/2000/svg" xmlns:xlink="http://www.w3.org/1999/xlink" x="0px" y="0px"
	 viewBox="0 0 198.7 61.9" style="enable-background:new 0 0 198.7 61.9;" xml:space="preserve">
<style type="text/css">
	.st0{fill:#051F69;}
	.st1{enable-background:new    ;}
	.st2{font-family:'WorkSans-Black';}
	.st3{font-size:18.0231px;}
</style>
<g class="st1">
	<path class="st0" d="M72.2,25.7h5.4v1.1h-6.5v-9.3h1.2L72.2,25.7L72.2,25.7z"/>
	<path class="st0" d="M80.3,16.2h1.2l-1.4,2.4h-0.9L80.3,16.2z M80.4,19.7v7.1h-1.2v-7.1H80.4z"/>
	<path class="st0" d="M83,26.8v-7.1H84l0.2,1.7L84,21.2c0.2-0.5,0.3-0.8,0.6-0.9s0.6-0.5,0.9-0.5c0.3-0.2,0.8-0.2,1.1-0.2
		c0.5,0,0.9,0.2,1.4,0.3c0.5,0.2,0.8,0.5,1.1,0.9c0.3,0.5,0.3,0.9,0.3,1.5v4.5h-1.2v-4.2c0-0.8-0.2-1.4-0.5-1.7
		c-0.3-0.3-0.8-0.5-1.2-0.5c-0.3,0-0.8,0.2-1.1,0.3c-0.3,0.2-0.6,0.5-0.9,0.8c-0.2,0.3-0.3,0.9-0.3,1.5v3.8H83
		C83,26.9,83,26.8,83,26.8z"/>
	<path class="st0" d="M94.8,26.9c-0.6,0-1.2-0.2-1.8-0.5c-0.5-0.3-0.9-0.8-1.2-1.2c-0.3-0.6-0.5-1.2-0.5-2s0.2-1.4,0.5-2
		c0.3-0.6,0.8-0.9,1.2-1.2c0.5-0.3,1.1-0.5,1.8-0.5c0.6,0,1.2,0.2,1.7,0.5c0.5,0.3,0.8,0.6,1.1,1.2s0.3,1.1,0.3,1.7
		c0,0.2,0,0.3,0,0.5s0,0.3,0,0.3h-5.7v-1.1h5.1l-0.6,0.2c0-0.8-0.2-1.2-0.6-1.5c-0.3-0.3-0.9-0.6-1.5-0.6c-0.5,0-0.9,0.2-1.2,0.3
		s-0.6,0.5-0.8,0.9c-0.2,0.5-0.3,0.9-0.3,1.5s0.2,1.1,0.3,1.5c0.2,0.5,0.5,0.8,0.8,0.9c0.3,0.2,0.8,0.3,1.2,0.3
		c0.5,0,0.9-0.2,1.2-0.3c0.3-0.2,0.6-0.5,0.8-0.8l0.9,0.5c-0.2,0.3-0.5,0.6-0.8,0.9c-0.3,0.3-0.6,0.5-1.1,0.6S95.3,26.9,94.8,26.9z"
		/>
</g>
<g class="st1">
	<path class="st0" d="M104.2,22.3c0-0.6-0.2-0.9-0.5-1.2c-0.3-0.3-0.8-0.5-1.2-0.5c-0.5,0-0.9,0.2-1.2,0.3s-0.6,0.6-0.8,1.1
		l-0.9-0.6c0.2-0.6,0.6-0.9,1.1-1.4c0.5-0.3,1.2-0.5,2-0.5c0.5,0,0.9,0.2,1.4,0.3c0.5,0.2,0.8,0.5,1.1,0.8c0.3,0.3,0.3,0.8,0.3,1.4
		v3.5c0,0.3,0.2,0.5,0.6,0.5c0.2,0,0.3,0,0.5,0v0.9c-0.2,0.2-0.5,0.2-0.8,0.2s-0.5,0-0.8-0.2c-0.2-0.2-0.5-0.3-0.5-0.5
		c-0.2-0.2-0.2-0.5-0.2-0.8v-0.2h0.3c-0.2,0.3-0.3,0.6-0.6,0.9c-0.3,0.3-0.6,0.5-0.9,0.5c-0.3,0.2-0.6,0.2-1.1,0.2
		c-0.5,0-0.8,0-1.2-0.2c-0.3-0.2-0.6-0.3-0.9-0.6c-0.2-0.3-0.3-0.6-0.3-1.1c0-0.6,0.2-0.9,0.6-1.4c0.3-0.3,0.9-0.6,1.5-0.8l2.9-0.6
		v0.9l-2.3,0.5c-0.5,0.2-0.8,0.3-1.1,0.5c-0.3,0.2-0.3,0.5-0.3,0.8c0,0.3,0.2,0.6,0.3,0.8c0.3,0.2,0.6,0.3,1.1,0.3
		c0.3,0,0.6,0,0.8-0.2s0.5-0.2,0.6-0.3c0.2-0.2,0.3-0.3,0.5-0.6c0.2-0.2,0.2-0.5,0.2-0.8L104.2,22.3L104.2,22.3z"/>
</g>
<g class="st1">
	<path class="st0" d="M116.5,19.7v1.1h-5.1v-1.1H116.5z M113.9,17.7V25c0,0.3,0.2,0.6,0.3,0.8c0.2,0.2,0.5,0.3,0.8,0.3
		c0.3,0,0.5,0,0.8-0.2c0.2-0.2,0.5-0.2,0.6-0.5l0.5,0.9c-0.2,0.2-0.5,0.3-0.8,0.5c-0.3,0.2-0.6,0.2-1.1,0.2c-0.3,0-0.8,0-1.1-0.2
		c-0.3-0.2-0.6-0.3-0.8-0.6c-0.2-0.3-0.3-0.6-0.3-1.1V18L113.9,17.7z"/>
	<path class="st0" d="M121.1,26.9c-0.6,0-1.2-0.2-1.8-0.5c-0.5-0.3-0.9-0.8-1.2-1.2c-0.3-0.6-0.5-1.2-0.5-2s0.2-1.4,0.5-2
		c0.3-0.6,0.8-0.9,1.2-1.2c0.5-0.3,1.1-0.5,1.8-0.5c0.6,0,1.2,0.2,1.7,0.5c0.5,0.3,0.8,0.6,1.1,1.2s0.3,1.1,0.3,1.7
		c0,0.2,0,0.3,0,0.5s0,0.3,0,0.3h-5.7v-1.1h5.3l-0.6,0.2c0-0.8-0.2-1.2-0.6-1.5c-0.3-0.3-0.9-0.6-1.5-0.6c-0.5,0-0.9,0.2-1.2,0.3
		c-0.3,0.2-0.6,0.5-0.8,0.9c-0.2,0.5-0.3,0.9-0.3,1.5s0.2,1.1,0.3,1.5c0.2,0.5,0.5,0.8,0.8,0.9c0.3,0.2,0.8,0.3,1.2,0.3
		c0.5,0,0.9-0.2,1.2-0.3c0.3-0.2,0.6-0.5,0.8-0.8l0.9,0.5c-0.2,0.3-0.5,0.6-0.8,0.9c-0.3,0.3-0.6,0.5-1.1,0.6S121.6,26.9,121.1,26.9
		z"/>
	<path class="st0" d="M126.4,26.8v-7.1h1.1v1.1c0.3-0.5,0.6-0.8,1.1-0.9c0.5-0.2,0.9-0.3,1.2-0.3c0.5,0,0.9,0.2,1.4,0.3
		c0.5,0.3,0.8,0.6,1.1,1.1c0.2-0.3,0.3-0.6,0.6-0.8c0.3-0.2,0.6-0.3,0.9-0.5c0.3-0.2,0.6-0.2,0.9-0.2c0.5,0,0.9,0.2,1.4,0.3
		s0.8,0.5,1.1,0.9c0.3,0.5,0.5,0.9,0.5,1.5v4.5h-1.2v-4.4c0-0.6-0.2-1.1-0.5-1.4c-0.3-0.3-0.8-0.5-1.2-0.5c-0.3,0-0.8,0.2-1.1,0.3
		c-0.3,0.2-0.6,0.5-0.8,0.8c-0.2,0.3-0.3,0.8-0.3,1.4v3.9h-1.2v-4.5c0-0.6-0.2-1.1-0.5-1.4c-0.3-0.3-0.8-0.5-1.2-0.5
		c-0.3,0-0.6,0.2-0.9,0.3c-0.3,0.2-0.6,0.5-0.8,0.8c-0.2,0.3-0.3,0.9-0.3,1.4v3.8L126.4,26.8L126.4,26.8z"/>
</g>
<g class="st1">
	<path class="st0" d="M144.1,22.3c0-0.6-0.2-0.9-0.5-1.2c-0.3-0.3-0.8-0.5-1.2-0.5s-0.9,0.2-1.2,0.3c-0.3,0.2-0.6,0.6-0.8,1.1
		l-0.9-0.6c0.2-0.6,0.6-0.9,1.1-1.4c0.5-0.3,1.2-0.5,2-0.5c0.5,0,0.9,0.2,1.4,0.3s0.8,0.5,1.1,0.8c0.3,0.3,0.3,0.8,0.3,1.4v3.5
		c0,0.3,0.2,0.5,0.6,0.5c0.2,0,0.3,0,0.5,0v0.9c-0.2,0.2-0.5,0.2-0.8,0.2s-0.5,0-0.8-0.2c-0.2-0.2-0.5-0.3-0.5-0.5
		c-0.2-0.2-0.2-0.5-0.2-0.8v-0.2h0.3c-0.2,0.3-0.3,0.6-0.6,0.9c-0.3,0.3-0.6,0.5-0.9,0.5c-0.3,0.2-0.6,0.2-1.1,0.2
		c-0.5,0-0.8,0-1.2-0.2c-0.3-0.2-0.6-0.3-0.9-0.6c-0.2-0.3-0.3-0.6-0.3-1.1c0-0.6,0.2-0.9,0.6-1.4c0.3-0.3,0.9-0.6,1.5-0.8l2.9-0.6
		v0.9l-2.3,0.5c-0.5,0.2-0.8,0.3-1.1,0.5c-0.3,0.2-0.3,0.5-0.3,0.8c0,0.3,0.2,0.6,0.3,0.8c0.3,0.2,0.6,0.3,1.1,0.3
		c0.3,0,0.6,0,0.8-0.2s0.5-0.2,0.6-0.3c0.2-0.2,0.3-0.3,0.5-0.6c0.2-0.2,0.2-0.5,0.2-0.8L144.1,22.3L144.1,22.3z M142.9,16.2h1.2
		l-1.4,2.4h-0.9L142.9,16.2z"/>
</g>
<g class="st1">
	<path class="st0" d="M151.8,19.7v1.1h-5.1v-1.1H151.8z M149.2,17.7V25c0,0.3,0.2,0.6,0.3,0.8s0.5,0.3,0.8,0.3c0.3,0,0.5,0,0.8-0.2
		c0.2-0.2,0.5-0.2,0.6-0.5l0.5,0.9c-0.2,0.2-0.5,0.3-0.8,0.5c-0.3,0.2-0.6,0.2-1.1,0.2c-0.3,0-0.8,0-1.1-0.2
		c-0.3-0.2-0.6-0.3-0.8-0.6c-0.2-0.3-0.3-0.6-0.3-1.1V18L149.2,17.7z"/>
	<path class="st0" d="M154,18.3c-0.3,0-0.5-0.2-0.6-0.3c-0.2-0.2-0.3-0.3-0.3-0.6c0-0.3,0.2-0.5,0.3-0.6c0.2-0.2,0.3-0.3,0.6-0.3
		c0.3,0,0.5,0.2,0.6,0.3c0.2,0.2,0.3,0.3,0.3,0.6c0,0.3-0.2,0.5-0.3,0.6C154.5,18.3,154.3,18.3,154,18.3z M154.6,19.7v7.1h-1.2v-7.1
		H154.6z"/>
	<path class="st0" d="M160.2,19.5c0.5,0,0.9,0.2,1.4,0.3c0.5,0.2,0.8,0.3,0.9,0.6c0.3,0.3,0.5,0.6,0.6,1.1l-1.1,0.5
		c-0.2-0.5-0.5-0.8-0.8-1.1c-0.3-0.3-0.8-0.3-1.2-0.3c-0.5,0-0.9,0.2-1.2,0.3c-0.3,0.2-0.6,0.5-0.8,0.9c-0.2,0.5-0.3,0.9-0.3,1.5
		s0.2,1.1,0.3,1.5c0.2,0.5,0.5,0.8,0.8,0.9c0.3,0.2,0.8,0.3,1.2,0.3c0.3,0,0.8,0,0.9-0.2c0.3-0.2,0.5-0.3,0.6-0.5
		c0.2-0.2,0.3-0.5,0.3-0.8l1.1,0.3c-0.2,0.5-0.5,0.8-0.6,1.1c-0.3,0.3-0.6,0.6-1.1,0.8c-0.5,0.2-0.9,0.3-1.4,0.3
		c-0.6,0-1.2-0.2-1.8-0.5c-0.5-0.3-0.9-0.8-1.2-1.2c-0.3-0.6-0.5-1.2-0.5-2s0.2-1.4,0.5-2s0.8-0.9,1.2-1.2
		C159,19.7,159.6,19.5,160.2,19.5z"/>
</g>
<g class="st1">
	<path class="st0" d="M169.5,22.3c0-0.6-0.2-0.9-0.5-1.2c-0.3-0.3-0.8-0.5-1.2-0.5c-0.5,0-0.9,0.2-1.2,0.3c-0.3,0.2-0.6,0.6-0.8,1.1
		l-0.9-0.6c0.2-0.6,0.6-0.9,1.1-1.4c0.5-0.3,1.2-0.5,2-0.5c0.5,0,0.9,0.2,1.4,0.3c0.5,0.2,0.8,0.5,1.1,0.8c0.3,0.3,0.3,0.8,0.3,1.4
		v3.5c0,0.3,0.2,0.5,0.6,0.5c0.2,0,0.3,0,0.5,0v0.9c-0.2,0.2-0.5,0.2-0.8,0.2s-0.5,0-0.8-0.2c-0.2-0.2-0.5-0.3-0.5-0.5
		c-0.2-0.2-0.2-0.5-0.2-0.8v-0.2h0.3c-0.2,0.3-0.3,0.6-0.6,0.9c-0.3,0.3-0.6,0.5-0.9,0.5c-0.3,0.2-0.6,0.2-1.1,0.2s-0.8,0-1.2-0.2
		c-0.3-0.2-0.6-0.3-0.9-0.6c-0.2-0.3-0.3-0.6-0.3-1.1c0-0.6,0.2-0.9,0.6-1.4c0.3-0.3,0.9-0.6,1.5-0.8l2.9-0.6v0.9l-2.3,0.5
		c-0.5,0.2-0.8,0.3-1.1,0.5c-0.3,0.2-0.3,0.5-0.3,0.8c0,0.3,0.2,0.6,0.3,0.8c0.3,0.2,0.6,0.3,1.1,0.3c0.3,0,0.6,0,0.8-0.2
		c0.2-0.2,0.5-0.2,0.6-0.3c0.2-0.2,0.3-0.3,0.5-0.6c0.2-0.2,0.2-0.5,0.2-0.8L169.5,22.3L169.5,22.3z"/>
</g>
<g>
	<g>
		<path class="st0" d="M16.4,26.2c0,0.2,0,0.3,0,0.5l0,0c0,0.2,0,0.3,0,0.5c0,0,0,0,0,0.2s0,0.3,0,0.5l0,0c0,0.3,0,0.6,0,0.9l0,0
			c0,0.2,0,0.3,0,0.3l0,0c0,0.2,0,0.2,0,0.3l0,0c0,0.3,0,0.5,0,0.6l0,0c0,0.2,0,0.2,0,0.3l0,0v0.2l0,0c0,0.2,0,0.3,0,0.3l0,0
			c0,0,0,0,0,0.2l0,0l0,0l0,0l0,0l0,0c0.2,1.4,0.3,2.9,0.8,4.1l0,0c0,0.2,0.2,0.5,0.2,0.6l0,0c0,0.2,0.2,0.5,0.3,0.6l0,0
			c0.5,1.2,1.1,2.3,1.8,3.3c-0.2-1.1-0.2-2.7-0.8-3.5l0,0l0,0c0,0-0.2,0-0.2-0.2l0,0c0,0,0,0-0.2,0l0,0c0,0,0,0-0.2-0.2l0,0
			c0,0,0,0-0.2-0.2l0,0c0,0,0-0.2-0.2-0.2l0,0V35l0,0c0,0,0,0,0-0.2l0,0v-0.2l0,0v-0.2l0,0v-0.2l0,0c0,0,0,0,0-0.2l0,0
			c0,0,0,0,0-0.2l0,0V34v-0.2l0,0v-0.2l0,0c0-0.2,0.2-0.3,0.2-0.5l0,0c0,0,0-0.2,0-0.3l0,0c0-0.2,0.2-0.5,0.2-0.6l0,0
			c0-0.2,0-0.3,0-0.3c0-0.2,0-0.2,0-0.3v-0.2v-0.2v-0.2v-0.2V31v-0.2v-0.2v-0.2v-0.2l0,0c0-0.3,0.2-0.5,0.2-0.8l0,0
			c0-0.2,0-0.2,0-0.3l0,0c0-0.2,0-0.2,0-0.2l0,0c0.2-0.5,0.3-0.8,0.5-1.1l0,0h-0.2l0,0h-0.2l0,0h-0.2l0,0h-0.2l0,0h-0.2l0,0
			c-0.3-0.2-0.5-0.2-0.6-0.3l0,0c0,0,0,0-0.2-0.2l0,0c0,0,0,0-0.2-0.2l0,0c-0.2-0.2-0.3-0.5-0.5-0.6l0,0c0,0,0,0,0-0.2l0,0
			c0,0,0,0,0-0.2l0,0c0,0,0,0,0-0.2l0,0C16.7,26.3,16.6,26.3,16.4,26.2L16.4,26.2L16.4,26.2L16.4,26.2L16.4,26.2L16.4,26.2
			L16.4,26.2L16.4,26.2L16.4,26.2L16.4,26.2L16.4,26.2L16.4,26.2L16.4,26.2L16.4,26.2c0.3,0,0.5,0,0.5,0l0,0c0.2,0,0.2,0,0.3,0l0,0
			c0.2,0,0.5,0,0.5,0l0,0c0.2,0,0.2,0,0.3,0l0,0c0.2,0,0.3,0,0.5,0.2l0,0h0.2l0,0c0.2,0,0.2,0.2,0.3,0.2l0,0c0,0,0.2,0,0.2,0.2l0,0
			c0.2,0,0.2,0.2,0.3,0.3l0,0l0.2,0.2l0,0c0.2,0.2,0.2,0.2,0.3,0.3l0,0c-0.5-3.3,0.9-6.3,2.1-8l0,0c0-0.2,0.2-0.2,0.2-0.2l0,0
			l0.2-0.2l0,0l0.2-0.2l0,0l0.2-0.2l0,0c0,0,0,0,0.2-0.2l0,0c0,0,0,0,0.2-0.2l0,0l0,0l0,0l0,0l0,0l0,0l0,0l0,0l0,0l0,0l0,0l0,0l0,0
			l0,0l0,0l0,0c0,0,0,0,0,0.2l0,0l0,0c0,0,0,0,0,0.2l0,0c0,0,0,0,0,0.2l0,0c-0.2,0.2-0.3,0.5-0.5,0.8l0,0c0,0,0,0.2-0.2,0.2
			c0,0,0,0,0,0.2c0,0,0,0.2-0.2,0.2v0.2c0,0,0,0,0,0.2v0.2c0,0,0,0,0,0.2c0,0,0,0.2-0.2,0.2c0,0,0,0,0,0.2c0,0,0,0.2-0.2,0.2l0,0
			c-0.2,0.3-0.2,0.5-0.3,0.8c0,0,0,0,0,0.2s0,0.2,0,0.3c0,0,0,0,0,0.2c0,0.2,0,0.2,0,0.3l0,0c0,0.3-0.2,0.6-0.2,0.9l0,0
			c0,0.2,0,0.2,0,0.3c0,0,0,0,0,0.2s0,0.2,0,0.3c0,0,0,0,0,0.2s0,0.2,0,0.3l0,0c0,0.3,0,0.6,0,1.1c0,0,0,0,0,0.2c0,0.2,0,0.2,0,0.3
			v0.2c0,0.2,0,0.2,0,0.3v0.2c0,0.2,0,0.2,0.2,0.3c0.2,0,0.2,0,0.3,0l0,0c0-0.2-0.2-0.3-0.2-0.5l0,0v-0.2l0,0v-0.2c0,0,0,0,0-0.2
			s0-0.2,0-0.2s0,0,0-0.2c0-0.2,0-0.2,0-0.2v-0.2c0,0,0,0,0-0.2v-0.2c0,0,0.2,0.9,0.3,1.1c0,0-0.2-1.1,0.2-1.4c0,0,0.3,1.1,0.5,1.2
			c0,0,0-0.9,0.5-1.4l0,0c0,0.3,0,1.4,0.3,2l0,0v0.2l0,0c0,0,0,0,0.2,0.2l0,0h0.2l0,0c0-0.2,0-0.3,0-0.5l0,0c0-0.2,0-0.3,0-0.5l0,0
			c0-0.2,0-0.3,0.2-0.5l0,0c0-0.2,0-0.3,0.2-0.5l0,0c0-0.2,0-0.3,0.2-0.5l0,0c0.3-1.2,0.6-2.1,1.1-3l0,0c0-0.2,0.2-0.2,0.2-0.3l0,0
			c0-0.2,0.2-0.2,0.2-0.3l0,0c0-0.2,0.2-0.2,0.2-0.3l0,0c0-0.2,0.2-0.2,0.2-0.3l0,0c0.3-0.5,0.5-0.9,0.8-1.2l0,0v-0.2l0,0
			c0,0,0,0,0-0.2l0,0l0,0l0,0l0,0l0,0l0,0v-0.2l0,0l0,0c0,0,0-0.2-0.2-0.2l0,0l0,0v-0.2l0,0l0,0l0,0l0,0c0,0,0,0,0-0.2
			c0-0.2,0-0.5,0-0.6l0,0c0-0.2,0-0.5-0.2-0.6l0,0l0.2,0.2l0,0l0.2,0.2l0,0l0.2,0.2c0,0,0,0,0.2,0l0.2,0.2c0,0,0,0,0.2,0
			c0,0,0.2,0,0.2,0.2c0,0,0,0,0.2,0c0,0,0,0,0.2,0c0,0,0,0,0.2,0l0,0h0.2c0.6,0.3,3-0.5,3.3-1.1c0,0,0,0,0-0.2l0,0l0,0
			c0,0,0,0,0-0.2l0,0c0,0,0,0,0-0.2l0,0c0,0,0,0,0-0.2l0,0c0,0,0,0,0-0.2l0,0v-0.2l0,0c0,0,0-0.2-0.2-0.2l0,0c0,0,0-0.2-0.2-0.2l0,0
			c0,0,0-0.2-0.2-0.2l0,0l-0.2-0.2l0,0l-0.2-0.2l0,0c-0.3-0.3-0.5-0.5-0.8-0.8l0,0l-0.2-0.2l-0.2-0.2l0,0h-0.2l0,0c0,0-0.2,0-0.3,0
			l0,0c-0.2,0-0.2,0-0.3,0c0,0,0,0-0.2,0c-0.2,0-0.2,0-0.3,0c0,0,0,0-0.2,0c-0.2,0-0.2,0-0.3,0c0,0,0,0-0.2,0c-0.2,0-0.2,0-0.3,0H27
			h-0.2h-0.2h-0.2h-0.2c0,0,0,0-0.2,0c-0.2,0-0.3,0-0.5,0.2c0,0,0,0-0.2,0h-0.2l0,0h-0.2l0,0l0,0l-0.2-0.2c0.2,0,0.3,0,0.5-0.2
			c0,0,0,0,0.2,0s0.3,0,0.5-0.2h0.2c0.2,0,0.3-0.2,0.5-0.2H27c0.2,0,0.3-0.2,0.3-0.2h0.2c0.2,0,0.3-0.2,0.3-0.2h0.2
			c0.2,0,0.2-0.2,0.3-0.2c0,0,0.2,0,0.2-0.2c0.2,0,0.2-0.2,0.3-0.2c0,0,0.2,0,0.2-0.2c0.2,0,0.2-0.2,0.3-0.2l0.2-0.2l0.2-0.2
			l0.2-0.2l0.2-0.2l0.2-0.2l0.2-0.2l0.2-0.2l0.2-0.2l0.2-0.2c0,0,0-0.2,0.2-0.2c0,0,0-0.2,0.2-0.2c0,0,0-0.2,0.2-0.2
			c0,0,0-0.2,0.2-0.2c0,0,0,0,0-0.2c0-0.2,0-0.2,0.2-0.3C31.6,9,30.1,6.2,27,5c0,0,0,0-0.2,0l0,0c0,0,0,0-0.2,0l0,0l0,0l0,0l0,0l0,0
			l0,0l0,0l0,0l0,0l0,0l0,0v0.2l0,0l0,0l0,0l0,0l0,0l0,0l0,0l0,0l0,0l0,0l0,0l0,0l0,0l0,0l0,0l0,0l0,0l0,0l0,0l0,0l0,0l0,0l0,0l0,0
			l0,0l0,0l0,0l0,0c0,0,0,0,0.2,0l0,0l0,0l0,0l0,0l0,0L27,5.3c0,0,0,0,0.2,0l0,0l0,0l0,0l0,0l0,0c0,0,0,0,0,0.2c0,0,0,0,0,0.2
			c0,0,0,0,0,0.2c0,0,0,0,0,0.2c0,0,0,0,0,0.2v0.2c0,0,0,0,0,0.2v0.2c0,0,0,0,0,0.2v0.2c0,0,0,0,0,0.2v0.2c0,0,0,0,0,0.2v0.2l0,0
			v0.2l0,0v0.2l0,0c0,0.2,0,0.2,0,0.3l0,0c0.2,0.8,0,1.5-0.5,2.1l0,0c0,0.2-0.2,0.2-0.2,0.3l0,0l-0.2,0.2l0,0c0,0-0.2,0.2-0.3,0.2
			l0,0c-0.2,0-0.2,0.2-0.3,0.2l0,0c-0.2,0-0.2,0.2-0.3,0.2c0,0,0,0-0.2,0c-0.2,0-0.2,0.2-0.3,0.2c0,0,0,0-0.2,0s-0.3,0.2-0.5,0.2
			c0,0,0,0-0.2,0c-0.2,0-0.3,0.2-0.5,0.2c0,0,0,0-0.2,0s-0.3,0.2-0.5,0.2l0,0c-0.2,0-0.5,0.2-0.6,0.2l0.2-0.2l0,0l0,0l0,0l0,0l0,0
			l0,0l0,0l0,0l0,0C22.4,11.4,22,12,22,12s0.3-0.8,0-0.8c-0.3,0-0.6,0.8-0.6,0.8s0-0.8-0.5-0.8c-0.3,0.2-0.3,0.8-0.3,0.8
			s-0.2-0.8-0.5-0.6c0,0,0,0-0.2,0.2l0,0v0.2l0,0c0,0.2,0,0.3,0,0.3l0,0c-0.8-0.2-1.4,0-2.1,0l0,0v-0.2l0,0c0-0.2-0.2-0.2-0.2-0.2
			l0,0h-0.2c0,0,0,0-0.2,0l0,0l-0.2,0.2l0,0c0,0,0,0,0,0.2l0,0l0,0l0,0l0,0c0,0,0,0-0.2,0l0,0l0,0l0,0l0,0c0,0,0,0,0-0.2l0,0
			L17,11.7l0,0c0,0,0,0-0.2,0h-0.2l0,0l0,0c0,0,0,0,0,0.2l0,0V12l0,0c-0.2,0-0.3,0-0.5-0.2l0,0c0,0,0,0-0.2,0l0,0c0,0,0,0-0.2,0l0,0
			C12.7,11,12.2,9,12.7,7.5l0,0c0-0.2,0-0.2,0-0.3l0,0c0.2-0.5,0.3-0.8,0.5-1.1l0,0V6c0,0,0,0,0-0.2c0,0,0,0,0-0.2c0,0,0,0,0-0.2
			c0,0,0,0,0-0.2c0,0,0,0,0-0.2l0,0l0,0l0,0l0,0l0,0c0,0,0,0,0.2,0c0,0,0.2,0,0.2-0.2c0,0,0.2,0,0.2-0.2l0,0l0,0l0,0l0,0l0,0
			l0.2-0.2l0,0l0,0l0,0l0,0l0,0l0.2-0.2l0,0l0,0l0,0l0,0c0,0,0-0.2,0.2-0.2l0,0l0,0l0,0V4.4l0,0l0,0l0,0c0-0.2,0-0.2-0.2-0.2l0,0
			l0,0l0,0c0,0,0,0-0.2,0l0,0c0,0,0,0-0.2,0c-3.2,1.2-4.7,4.1-4.2,5.7c0,0.2,0,0.2,0.2,0.3c0,0.2,0,0.2,0.2,0.3c0,0,0,0,0,0.2
			c0.3,0.6,0.9,1.2,1.7,1.8c0,0,0,0,0.2,0h-0.2c0,0,0,0-0.2,0c-0.2,0-0.2,0-0.2,0h-0.2c0,0,0,0-0.2,0c0,0-0.2,0-0.2,0.2
			c-0.2,0-0.2,0.2-0.3,0.2c0,0,0,0-0.2,0c0,0,0,0-0.2,0.2c-0.6,0.5-1.2,0.9-1.4,1.2l0,0l0,0l0,0c0,0,0,0,0,0.2l0,0l0,0l0,0
			c0,0,0,0,0,0.2l0,0c0,0,0,0,0,0.2c0.2,0.5,2.6,1.2,3.2,1.1h0.2l0,0c0,0,0,0,0.2,0l0,0c0,0,0.2,0,0.2-0.2l0,0l0,0v0.2v0.2
			c0,0.2,0,0.2,0,0.3c0,0.2,0,0.2,0,0.3c0,0.2,0,0.3-0.2,0.3c0,0.2,0,0.2,0,0.3v0.2c-0.3,1.5-0.5,3.2-1.2,4.5
			c-0.3,0.5-0.6,1.1-0.8,1.5l0,0v0.2l0,0v0.2l0,0v0.2c0,0,0,0,0,0.2v0.2c0,0,0,0,0,0.2v0.2c0,0,0,0,0,0.2v0.2c0,0,0,0,0,0.2
			c0,0,0,0,0,0.2l0,0c0,0,0,0,0,0.2l0,0c0,0,0,0,0,0.2l0,0l0.2,0.2c0,0,0.2,0,0.2,0.2c0.2,0,0.2,0.2,0.3,0.2l0,0
			c0.2,0,0.2,0.2,0.3,0.2l0,0c0.2,0,0.3,0,0.5,0l0,0c0.2,0,0.2,0,0.3,0c0,0,0,0.2,0.2,0.2l0,0l0,0l0.2,0.2l0,0l0.2,0.2l0,0
			c0,0,0.2,0.2,0.3,0.2l0,0C14.9,26.2,15.4,26.3,16.4,26.2L16.4,26.2z"/>
		<path class="st0" d="M49.9,33.1L49.9,33.1C49.9,33.1,49.9,32.9,49.9,33.1C49.8,32.9,49.8,32.9,49.9,33.1L49.9,33.1
			c0-0.3,0-0.5-0.2-0.5c0,0,0,0,0-0.2s0-0.3,0-0.5l0,0l0,0c0-0.2,0-0.2,0-0.3c0,0,0,0,0-0.2l0,0v-0.2l0,0l0,0l0,0c0-0.3,0-0.5,0-0.6
			l0,0l0,0c0,0,0,0,0-0.2v-0.2l0,0c0,0,0,0,0-0.2v-0.2l0,0c0,0,0,0,0-0.2l0,0l0,0l0,0c0-0.3,0-0.6,0-0.9V29c0,0,0,0,0-0.2v-0.2l0,0
			l0,0l0,0l0,0l0,0c0-0.2,0-0.2,0-0.3l0,0l0,0l0,0l0,0l0,0l0,0l0,0l0,0v-0.2l0,0l0,0l0,0l0,0l0,0l0,0v-0.2l0,0V28v-0.2l0,0
			c0,0,0-0.2-0.2-0.2l0,0l-0.2-0.2l0,0l-0.2-0.2l0,0l-0.2-0.2l0,0L49,27.1c0,0,0,0-0.2,0l-0.2-0.2c0,0-0.2,0-0.2-0.2
			c0,0-0.2,0-0.2-0.2l-0.2-0.2l0,0c0,0-0.2,0-0.2-0.2l0,0l0,0c0.2-0.2,0.2-0.2,0.3-0.3c0,0,0,0,0.2,0c0.2,0,0.2-0.2,0.3-0.2
			c0,0,0,0,0.2-0.2c0.2,0,0.2-0.2,0.3-0.2h0.2c0.2,0,0.2-0.2,0.3-0.2c0,0-1.4,0-1.5,0c0,0-0.2,0-0.2,0.2L48,25.7c0,0-0.2,0-0.2,0.2
			L47.7,26l0,0c-0.3-0.2-0.5-0.3-0.5-0.3c-0.3,0-0.6,0.2-0.9,0.2h-0.2c0,0,0,0-0.2,0l0,0l0,0c-0.2,0-0.3,0-0.5,0h-0.2c0,0,0,0-0.2,0
			c0,0,0,0-0.2,0l0,0c-0.2,0-0.3,0-0.5,0h-0.2c-0.2,0-0.2,0-0.3,0c-0.2,0-0.3,0-0.5,0c0,0,0,0-0.2,0c-0.2,0,0,0-0.2,0h-0.2
			c-0.2,0-0.2,0-0.3,0h-0.2c-0.2,0-0.3,0-0.3,0l0,0c-0.2,0-0.3,0-0.3,0h-0.2H42l0,0c-0.2,0-0.3,0-0.5,0c-0.2,0-0.2,0-0.3,0l0,0l0,0
			c-0.2,0-0.2,0-0.3,0l0,0h-0.2h-0.2c-0.2,0-0.2,0-0.3,0l0,0l0,0c0,0,0,0-0.2,0H40c-0.2,0-0.2,0-0.3,0c-0.2,0-0.2,0-0.3,0
			c0,0,0,0-0.2,0l0,0c-0.2,0-0.2,0-0.3,0s-0.2,0-0.3,0h-0.2c-0.2,0-0.3,0-0.5-0.2l0,0l0,0c0,0,0,0-0.2,0c0,0,0,0-0.2,0s-0.2,0-0.3,0
			c0,0,0,0-0.2,0l0,0h-0.2H37h-0.2l0,0h-0.2c-0.2,0-0.2,0-0.3-0.2c-0.2,0-0.2,0-0.3-0.2c-0.2,0-0.2,0-0.3-0.2l0,0c0,0-0.2,0-0.2-0.2
			c-0.2,0-0.2-0.2-0.3-0.2c0,0-0.2,0-0.2-0.2l0,0l0,0c-0.2,0-0.2-0.2-0.3-0.2h-0.2l0,0l0,0h-0.2c0,0-0.2,0-0.2-0.2c0,0,0,0-0.2,0
			s0,0-0.2,0c-0.2,0-0.2-0.2-0.3-0.2c0,0,0,0-0.2,0c0,0,0,0-0.2,0c-0.2-0.2-0.3-0.2-0.5-0.3l0,0l0,0c0,0,0,0-0.2,0s-0.2-0.1-0.3-0.1
			l0,0l0,0c-0.2,0-0.2-0.2-0.3-0.2c0,0-0.2,0-0.2-0.2l-0.2-0.2c0,0,0,0-0.2,0l0,0c0,0,0,0-0.2-0.2c-0.2,0-0.2-0.2-0.3-0.2l0,0l0,0
			L31.3,23l0,0l0,0c0,0,0,0-0.2-0.2L31,22.7l0,0l0,0c0.3-0.2,0.8-0.3,0.8-0.3c-0.2,0-0.2,0-0.3,0l0,0c-0.2,0-0.2,0-0.3-0.2l0,0
			c-0.2,0-0.2,0-0.3-0.2l0,0c-0.2,0-0.2-0.2-0.3-0.2c0,0,0,0-0.2,0c-0.2,0-0.2-0.2-0.3-0.2l0,0l0,0l0,0l0,0l0,0
			c0.3,0,0.6-0.2,0.6-0.2c-0.2,0-0.2,0-0.3-0.2l0,0c-0.2,0-0.2-0.2-0.3-0.2l0,0c-0.2,0-0.2-0.2-0.3-0.2l0,0c-0.2,0-0.2-0.2-0.3-0.2
			l0,0l0,0c0-0.2-0.2-0.2-0.2-0.3c0.3,0,0.6,0,0.6,0c-0.2,0-0.2-0.2-0.3-0.2l0,0c-0.2,0-0.2-0.2-0.3-0.2l0,0l-0.2-0.2
			c0,0,0,0-0.2-0.2L28.9,20l-0.2-0.2c0,0,0-0.2-0.2-0.2c0,0,0,0,0-0.2s0,0,0-0.2l0,0c0,0,0,0,0-0.2c0,0,0,0,0-0.2l0,0
			c-0.2,0.5-0.3,0.9-0.5,1.7v0.2c0,0,0,0,0,0.2c-0.2,0.5-0.3,0.9-0.5,1.4l0,0c-0.3,0.9-0.5,1.8-0.6,3l0,0c-0.2,0.8-0.3,1.4-0.3,2.3
			l0,0c0,0.2,0.2,0.2,0.2,0.3l0,0l0,0l0.2-0.2l0,0c0,0,0,0,0.2,0c0,0,0,0,0.2,0l0,0l0.2-0.2l0,0h0.2l0,0c0.2,0,0.3-0.2,0.5-0.2l0,0
			c0.5-0.2,0.9-0.2,1.5,0.2l0,0l0,0l0,0c0.2,0,0.2,0,0.3,0.2l0,0l0,0c0.2,0,0.2,0.2,0.3,0.2c0,0-0.3,0.6-0.9,1.1l0,0
			c0.2,0.6,0.2,1.2-0.2,1.5l0,0l0,0l0,0l0,0c0,0,0,0-0.2,0h-0.2l0,0c0,0,0,0-0.2,0l0,0c0,0,0,0-0.2,0l0,0l0,0l0,0c0,0,0,0-0.2,0l0,0
			l0,0l0,0l0,0l0,0c0,0,0,0-0.2,0l0,0l0,0c0,0,0,0-0.2-0.2l0,0l0,0l0,0c0,0,0,0,0-0.2l0,0c0,0,0,0,0-0.2l0,0l0,0v-0.1l0,0v-0.2l0,0
			v-0.2l0,0v-0.2l0,0c-0.3,0-0.6,0-0.9,0l0,0v0.2l0,0v0.2l0,0v0.2l0,0c0,0.3-0.2,0.8-0.5,1.4l0,0l0,0c0,0.2,0,0.2,0,0.3l0,0
			c0,0.2,0,0.2,0,0.3l0,0c0,0.2,0,0.2,0,0.3l0,0v0.2l0,0v0.2l0,0c0,0,0,0.2,0.2,0.2l0,0c0,0,0,0.2,0.2,0.2l0,0c0,0,0,0.2,0.2,0.2
			c0,0,0,0,0,0.2c0,0,0,0.2,0.2,0.2c0,0,0,0,0,0.2c0,0,0,0.2,0.2,0.2c0,0,0,0,0,0.2c0,0,0,0.2,0.2,0.2c0,0,0,0,0,0.2l0.2,0.2
			c0,0,0,0,0.2,0.2l0.2,0.2c0,0,0,0,0.2,0.2l0.2,0.2c0,0,0,0,0.2,0.2l0.2,0.2c0,0,0,0,0.2,0.2l0.2,0.2c0,0,0,0,0.2,0
			s0.2,0.2,0.3,0.2c0.2,0,0.2,0.2,0.3,0.2c0,0,0,0,0.2,0h0.2c0,0,0,0,0.2,0c0.2,0,0.2,0,0.3,0h0.2c0,0,0,0,0.2,0
			c0.3,0,0.5,0.2,0.8,0.2c0.2,0,0.3,0,0.5,0h0.2c0.2,0,0.3,0,0.3,0s0,0,0.2,0s0.3,0,0.5,0c0,0,0,0,0.2,0c0.2,0,0.3,0,0.5,0h0.2
			c0.2,0,0.3,0,0.5,0c0,0,0,0,0.2,0s0.3,0,0.5,0h0.2c0.2,0,0.3,0,0.5,0h0.2c0.2,0,0.3,0,0.5-0.2l0,0c0.2,0,0.3,0,0.5-0.2h0.2
			c0.2,0,0.3,0,0.5-0.2h0.2c0.2,0,0.3,0,0.5-0.2c0,0,0,0,0.2,0s0.3,0,0.5-0.2h0.2c0.2,0,0.3,0,0.5-0.2c0,0,0,0,0.2,0
			s0.3-0.2,0.5-0.2c0,0,0,0,0.2,0c0.2,0,0.3,0,0.5-0.2h0.2c0.2,0,0.3-0.2,0.5-0.2l0,0l0,0h0.2h0.2c0,0,0,0,0.2,0h0.2c0,0,0,0,0.2,0
			c0,0,0,0,0.2,0s0.2,0,0.3,0l0,0l0,0c0.2,0,0.3-0.2,0.5-0.2h0.2h0.2l0,0c0,0,0,0,0.2,0s0,0,0,0s0,0,0.2,0h0.2l0,0l0,0h0.2l0,0l0,0
			l0.2-0.2c0,0,0,0,0.2-0.2l0.2-0.2l0.2-0.2l0.2-0.2l0.2-0.2l0.2-0.2l0.2-0.2l0.2-0.2l0.2-0.2c0,0,0.2,0,0.2-0.2
			c0.2,0,0.2-0.2,0.3-0.2c0,0,0,0,0.2,0c0.2-0.2,0.3-0.2,0.3-0.2s0,0,0.2,0s0.2-0.2,0.3-0.2h0.2c0.2,0,0.2-0.2,0.3-0.2h0.2
			c0.2,0,0.2,0,0.3-0.2h0.2c0.2,0,0.2,0,0.3,0h0.2c0.2,0,0.2,0,0.3,0h0.2c0.2,0,0.3,0,0.3,0h0.2c0.2,0,0.5,0,0.6,0L48,32.8l1.4,0.3
			l0,0l0,0l0,0l0,0l0,0l0,0l0,0l0,0l0,0l0,0l0,0l0,0c0,0,0,0-0.2,0l0,0c0,0,0,0-0.2,0l0,0l0,0l0,0c0,0,0,0-0.2,0l0,0l0,0l0,0l0,0
			l0,0l0,0l0,0l0,0l0,0l0,0l0,0l0,0l0,0l0,0l0,0l0,0l0,0l0,0c-0.3,0.5,0.6,1.2,0.6,1.2l0,0l0,0l0,0l0,0c0,0,0,0-0.2,0l0,0
			c0,0,0,0-0.2,0l0,0H49l0,0h-0.2l0,0h-0.2l0,0c0,0-0.2,0-0.3,0l0,0c-0.2,0-0.2,0-0.3,0l0,0c-0.2,0-0.2,0-0.3,0l0,0
			c-0.2,0-0.2,0-0.3,0l0,0c-0.2,0-0.2,0-0.3,0l0,0c-0.2,0-0.2,0-0.3,0l0,0c-0.2,0-0.2,0-0.3,0l0,0c-0.2,0-0.2,0-0.3,0l0,0
			c-0.2,0-0.2,0-0.3,0l0,0l0,0l0.2,0.2l0,0l0.2,0.2l0.2,0.2l0,0c0,0,0,0,0,0.2l0,0l0,0l0,0l0,0l0,0c0,0,0,0,0,0.2l0,0l0,0l0,0
			c0,0,0,0,0,0.2l0,0l0,0c0,0,0,0,0,0.2l0,0l0,0c0,0,0,0,0,0.2l0,0l0,0c0,0,0,0,0,0.2l0,0l0,0c0,0,0,0,0,0.2c0,0,0,0,0,0.2v0.2
			c0,0,0,0,0,0.2l0,0l0,0l0,0c0,0.2,0.2,0.3,0.2,0.3l0,0c0,0.2,0,0.3,0.2,0.5l0,0c0,0.2,0,0.3,0.2,0.5l0,0c0,0.3,0.2,0.6,0.2,0.9
			l0,0c0,0.2,0,0.3,0,0.5l0,0c0,0.3,0,0.6,0,0.8l0,0l0,0l0,0l0,0v0.2l0,0l0,0l0,0c0,0.2,0,0.3,0,0.5l0,0v0.2l0,0l0,0l0,0l0,0l0,0
			v0.2l0,0l0,0l0,0l0,0l0,0l0,0l0,0l0,0c0,0,0,0,0,0.2l0,0l0,0l0,0l0,0l0,0c0,0,0,0,0,0.2l0,0l0,0l0,0l0,0l0,0l0,0l0,0l0,0l0,0l0,0
			l0,0l0,0l0,0l0,0c0,0,0,0,0-0.2c0,0.2,0,0.5,0,0.6l0,0c0,0.2,0,0.5,0,0.6l0,0l0,0c0,0.2,0,0.2,0,0.3l0,0c0,0.2,0,0.2,0,0.3l0,0
			c0,0.2,0,0.2,0,0.3l0,0c0,0.2,0,0.2,0,0.3l0,0c0,0.2,0,0.2,0,0.3l0,0c0,0.2,0,0.2,0,0.3l0,0c0,0.2,0,0.2,0,0.3l0,0
			c0,0.2,0,0.2,0,0.3l0,0l0,0c0,0.2,0,0.3,0,0.5l0,0l0,0l0,0c0,0,0,0,0,0.2l0,0l0,0l0,0l0,0l0,0l0,0l0,0c0,0,0,0,0,0.2
			c0,0.2,0,0,0,0l0,0l0,0l0,0l0,0l0,0l0,0l0,0l0,0l0,0l0,0l0,0l0,0l0,0l0,0l0,0l0,0l0,0l0,0l0,0l0,0l0,0l0,0l0,0l0,0l0,0l0,0l0,0
			l0,0l0,0l0,0l0,0l0,0h-0.2l0,0c0,0,0,0-0.2,0l0,0l0,0l0,0l0,0l0,0l0,0l0,0l0,0l0,0l0,0l0,0l0,0l0,0l0,0l0,0l0,0l0,0l0,0l0,0l0,0
			l0,0l0,0l0,0l0,0l0,0l0,0l0,0l0,0l0,0l0,0l0,0l0,0l0,0l0,0l0,0l0,0l0,0l0,0l0,0l0,0l0,0l0,0l0,0l0,0l0,0l0,0l0,0l0,0l0,0l0,0l0,0
			l0,0l0,0l0,0l0,0l0,0l0,0v0.2l0,0l0,0l0,0v0.2l0,0v0.2l0,0v0.2l0,0l0,0c0.2,0.2,0.2,0.3,0.3,0.3V46c0,0,0,0.2,0,0.6l0,0
			c0,0.5,0,1.1,0.2,1.8l0,0v0.2l0,0c0,0.3,0,0.5,0,0.6l0,0v0.2l0,0v0.2c0,0,0,0,0,0.2c0,0.3,0,0.5,0,0.6l0,0v0.2v0.2v0.2v0.2v0.2
			v0.2c0,0.2,0,0.2,0,0.3v0.2c0,0.2,0,0.3,0,0.5l0,0c0,0.2,0,0.2,0,0.3v0.2l0,0l0,0c0,0.2,0,0.3,0,0.5l0,0l0,0c0,0.2,0,0.3,0,0.3H49
			c0-0.2,0-0.2,0-0.3l0,0l0,0c0-0.2,0-0.3,0-0.5l0,0l0,0c0-0.3,0-0.6,0-0.9c0-0.5,0.2-1.1,0.2-1.7l0,0c0-0.5,0.2-0.8,0.2-1.2l0,0
			c0-0.2,0-0.5,0-0.6l0,0c0-0.2,0-0.3,0-0.5l0,0c0-0.2,0-0.3,0-0.5c0,0,0,0,0-0.2c0-0.2,0-0.3,0-0.5l0,0c0-0.2,0-0.3,0-0.5
			c0,0,0,0,0-0.2c0-0.2,0-0.3,0-0.5l0,0c0-0.2,0-0.3,0-0.5c0,0,0,0,0-0.2c0-0.2,0-0.3,0-0.5l0,0c0-0.2,0-0.2,0-0.3l0,0
			c0-0.2,0-0.2,0-0.3l0,0c0-0.2,0-0.2,0-0.3c-0.2-0.3-0.2-0.5-0.3-0.8c0-0.2-0.2-0.3-0.2-0.3c0-0.2-0.2-0.3-0.2-0.3
			c0-0.2-0.2-0.3-0.2-0.5v-0.2c0-0.2-0.2-0.3-0.2-0.6c0.2,0,0.5,0,0.6,0.2c0.9,1.2,2.4,3.2,3.2,3.9l0,0c0,0,0,0,0,0.2l0.2,0.2
			c0,0.2,0.2,0.2,0.2,0.2l0,0l0,0c0,0,0.3,3.3,0.5,6c0,0.3,0,0.6,0,0.9l0,0l0,0c0,0.2,0,0.3,0,0.5l0,0l0,0c0,0.2,0,0.3,0,0.5h1.8
			c0-0.2,0-0.2,0-0.3l0,0l0,0c0-0.2,0-0.3,0-0.3l0,0l0,0c0-0.2,0-0.3,0-0.5l0,0l0,0c0-0.2,0-0.3,0-0.5l0,0c0-0.2,0-0.3,0-0.5l0,0
			c0-0.3,0-0.8,0.2-1.1l0,0c0-0.3,0-0.8,0.2-1.1l0,0c0-0.2,0-0.5,0-0.6l0,0c0-0.2,0-0.3,0-0.6l0,0c0-0.2,0-0.3,0-0.6l0,0
			c0-0.3,0.2-0.8,0.2-1.1c0,0,0,0,0-0.2s0-0.3,0-0.5l0,0c0-0.2,0-0.3,0-0.5c0,0,0,0,0-0.2c0-0.2,0-0.3,0-0.5l0,0c0-0.2,0-0.2,0-0.3
			l0,0c0-0.2,0-0.2,0-0.3l0,0c0-0.2,0-0.2,0-0.3C51.6,38.9,50.7,36.4,49.9,33.1z"/>
		<path class="st0" d="M27.6,28.6L27.6,28.6L27.6,28.6c0,0.2,0,0.2,0.2,0.2l0,0l0,0l0,0c0,0,0,0,0.2,0l0,0l0,0l0,0l0,0l0,0l0,0l0,0
			l0,0l0,0l0,0l0,0l0,0l0,0l0,0l0,0l0,0l0,0l0,0l0,0l0,0l0,0l0,0l0,0l0,0l0,0c0,0,0,0,0-0.2c-0.2,0-0.2,0.2-0.3,0.2l0,0
			c-0.2,0-0.2,0.2-0.3,0.2l0,0l0,0C27.4,28.4,27.4,28.4,27.6,28.6C27.4,28.4,27.4,28.4,27.6,28.6C27.6,28.4,27.6,28.6,27.6,28.6
			L27.6,28.6z"/>
		<path class="st0" d="M40,44.3L40,44.3L40,44.3L40,44.3C40,44.2,40,44.2,40,44.3c-0.2-0.2-0.2-0.2-0.2-0.2l0,0l0,0l0,0l0,0l0,0l0,0
			l0,0l0,0l0,0l0,0l0,0l0,0l0,0l0,0l0,0l0,0l0,0l0,0l0,0l0,0l0,0l0,0l0,0l0,0l0,0l0,0L39.7,44l0,0c-0.2-0.2-0.2-0.2-0.3-0.3l0,0
			c-0.2-0.2-0.2-0.2-0.3-0.3l0,0c0,0,0-0.2-0.2-0.2l0,0c0,0,0-0.2-0.2-0.2l0,0V43l0,0v-0.2l0,0v-0.2l0,0v-0.2l0,0v-0.2l0,0v-0.2l0,0
			v-0.2l0,0c0,0,0,0,0-0.2l0,0c0,0,0,0,0-0.2l0,0l0,0c0-0.6-0.2-1.2-0.5-1.7l0,0c0-0.2-0.2-0.2-0.2-0.3l0,0c0,0,0-0.2-0.2-0.2l0,0
			c0-0.3,0.2-0.8,0.3-1.1l0,0l0,0c0,0,0,0.2,0.2,0.2l0,0c0,0,0,0.2,0.2,0.2l0,0c0,0,0,0.2,0.2,0.2l0,0l0.2,0.2l0,0
			c0,0,0,0.2,0.2,0.2l0,0l0.2,0.2l0,0c0,0,0,0,0.2,0.2l0,0c0,0,0.2,0,0.2,0.2c0.2,0.2,0.6-1.2,0.6-2c0-0.6-0.2-0.6-0.6-1.1
			c0,0,0,0-0.2-0.2l0,0l0,0l0,0l0,0l0,0l0,0l0,0l0,0l0,0l0,0c0,0,0,0-0.2,0l0,0c-0.2,0-0.3-0.2-0.3-0.2l0,0l0,0l0,0l0,0l0,0l0,0l0,0
			l0,0l0,0l0,0l0,0l0,0c-0.8,0.2-1.4,1.1-2,1.5l0,0l0,0l0,0l0,0l0,0l0,0l0,0l0,0l0,0l0,0l0,0l0,0l0,0l0,0l0,0l0,0l0,0c0,0,0,0-0.2,0
			h-0.2l0,0c0,0,0,0-0.2,0l0,0c0,0,0,0-0.2,0l0,0l0,0l0,0l0,0l0,0l0,0l0,0l0,0l0,0l0,0l0,0l0,0c-0.2-0.2-0.2-0.3-0.3-0.5l0,0v-0.2
			l0,0v-0.2l0,0v-0.2l0,0c0,0,0,0,0-0.2l0,0c0,0,0,0,0-0.2l0,0v-0.2l0,0l0,0l0,0l0,0l0,0l0,0l0,0c-0.5-0.5-1.2,0.5-1.5,0.6
			c-0.2,0-1.2,0.2-1.1,0.5c0,0,0,0.2,0.2,0.2l0,0V38l0,0v0.2l0,0v0.2l0,0v0.2l0,0v0.2l0,0v0.2c0,0,0,0,0,0.2c0,0,0,0,0,0.2
			c0.2,0.6,0.2,1.1,0.3,1.4v0.2l-0.2,0.2l-0.2,0.2l0,0c0,0,0,0-0.2,0.2l0,0l0,0c0,0,0,0-0.2,0l0,0c0,0,0,0-0.2,0l0,0c0,0,0,0-0.2,0
			l0,0c0,0,0,0-0.2,0l0,0c0,0,0,0-0.2,0l0,0h-0.2l0,0h-0.2l0,0h-0.2l0,0h-0.2l0,0h-0.2l0,0h-0.2l0,0h-0.2l0,0h-0.2l0,0h-0.2l0,0l0,0
			h-0.2l0,0h-0.2l0,0H31l0,0h-0.2l0,0c-0.2,0-0.3-0.2-0.5-0.2l0,0h-0.2l0,0c-0.2,0-0.2,0-0.3-0.2l0,0c-0.2,0-0.3-0.2-0.5-0.2l0,0
			c-0.5-0.2-0.9-0.3-1.4-0.5c0,0,0,0-0.2,0l0,0h-0.2l0,0c-0.2,0-0.2,0-0.3-0.2l0,0l0,0h-0.2l0,0l0,0l0,0l0,0l0,0
			c-0.2,0-0.3-0.2-0.5-0.2l0,0l0,0l0,0h-0.2l0,0c-0.2,0-0.3,0-0.5,0v-0.2l0,0c0-0.2,0-0.2,0-0.3l0,0c0-0.2,0-0.2,0-0.3l0,0
			c0-0.2,0-0.2,0-0.3l0,0c0-0.2,0-0.2,0-0.3l0,0c0-0.2,0-0.3,0-0.3l0,0c0-0.2,0-0.3,0-0.3l0,0c0-0.2,0-0.3,0-0.3l0,0
			c0-0.2,0-0.3,0-0.5l0,0c0-0.2,0-0.3,0-0.5l0,0c0-0.2,0-0.3,0-0.5l0,0c0-0.3,0-0.5-0.2-0.8l0,0c0-0.2,0-0.3,0-0.3V35l0,0
			c-0.3,0.3-0.3,0.5-0.5,0.8c0,0,0,0.2-0.2,0.2l0,0c0,0,0,0.2-0.2,0.2l0,0l-0.2,0.2l0,0l-0.2,0.2c0.2,0.3,0.3,1.4,0.3,2.4l0,0v0.2
			l0,0v0.2l0,0v0.2l0,0v0.2l0,0v0.2l0,0l0,0c-0.2,0-0.2,0-0.3,0l0,0H25c0-0.3-0.2-0.6-0.2-0.6c-0.2,0-0.2,0.3-0.2,0.6h-0.2l0,0
			c-0.2,0-0.3,0-0.5,0.2c0,0,0-0.2-0.2-0.2c0,0-0.2,0-0.2,0.2l0,0l0,0c-0.2,0-0.2,0-0.3,0.2c0-0.2,0-0.2,0-0.3l0,0l0,0l0,0l0,0
			c0,0,0,0,0-0.2l0,0l0,0c0-0.2,0-0.2,0-0.2l0,0l0,0l0,0l0,0l0,0l0,0l0,0c-0.2,0-0.2,0.5,0,0.9c-0.2,0-0.3,0.2-0.5,0.2l0,0
			c0,0-0.2,0-0.2,0.2l0,0c-0.2,0.2-0.3,0.2-0.5,0.3l0,0c-0.2,0.2-0.3,0.3-0.5,0.5l0,0c-0.2,0-0.3,0.2-0.5,0.2l0,0c0,0,0,0-0.2,0l0,0
			c0,0,0,0-0.2,0l0,0c0,0,0,0-0.2,0l0,0c0,0,0,0-0.2,0c-0.3-0.2-0.5-0.3-0.5-0.5c0.5,0.2,1.1,0,1.4-0.3c0.5-0.6,0.5-1.1,0.3-1.2
			c-0.3-0.3-0.8-0.2-1.2,0.2c-0.5,0.3-0.8,0.8-0.8,1.1c-0.3-0.2-0.5-0.3-0.5-0.5c-0.2-0.5,0.2-0.9,0.9-1.4l-0.2-0.2
			c-0.9,0.8-1.1,1.4-0.9,1.7c0,0.3,0.3,0.6,0.8,0.8l0,0c0,0.3,0.3,0.6,0.6,0.8c0,0,0.2,0,0.3,0c0,0,0,0,0.2,0l0,0c0.2,0,0.2,0,0.3,0
			l0,0l-0.2,0.2l0,0l0,0l0,0l0,0l0,0c0,0-0.2,0.2-0.2,0.3l0,0c0,0.2-0.2,0.2-0.2,0.3l0,0l0,0l0,0c0,0.2-0.2,0.2-0.2,0.3l0,0l0,0l0,0
			L20.9,43l0,0l0,0l0,0c0,0.2-0.2,0.2-0.2,0.3l0,0c0,0,0,0.2-0.2,0.2l0,0l0,0l0,0c0,0,0,0.2-0.2,0.2l0,0l0,0c0,0,0,0,0,0.2v0.2l0,0
			l0,0c0,0,0,0,0,0.2l0,0l0,0v0.2c0,0,0,0,0,0.2v0.2l0,0l0,0c0,0,0,0,0,0.2v0.2v0.2v0.2v0.2l0,0l0,0v0.2l0,0v0.2l0,0l0,0
			c0,0,0,0,0,0.2v0.2l0,0l0,0c0,0,0,0,0,0.2v0.2l0,0c0,0,0,0,0,0.2s0,0.2,0,0.3l0,0l0,0l0,0c0,0.3,0.2,0.5,0.2,0.8l0,0
			c0.2,0.3,0.2,0.5,0.3,0.8l0,0l0,0l0,0c0,0,0,0,0,0.2c0,0,0,0,0,0.2c0,0,0,0,0,0.2c0,0,0,0,0,0.2c0,0,0,0,0,0.2V49l0,0v0.2l0,0v0.2
			l0,0c0,0.2,0,0.2,0,0.3l0,0c0,0.2,0,0.2,0,0.3l0,0c0.3,2,0.6,3.9,0.6,4.1l0,0l0,0l0,0h0.8l0,0c0,0,0,0,0-0.2l0,0l0,0l0,0
			c0,0,0,0,0-0.2l0,0c0,0,0,0,0-0.2l0,0v-0.2l0,0v-0.2l0,0V53v-0.2l0,0c0-0.3,0-0.5,0-0.8l0,0V52l0,0v-0.2l0,0v-0.2l0,0
			c0-0.2,0-0.3,0.2-0.5l0,0v-0.2l0,0v-0.2l0,0v-0.2l0,0v-0.2l0,0c0,0,0.2,0,0.2,0.2l0,0l0,0l0,0l0,0c0.2,0,0.2,0.2,0.3,0.2l0,0l0,0
			l0,0l0,0l0,0c0.2,0,0.2,0.2,0.3,0.2c0,0,0,0,0.2,0c0.2,0,0.2,0.2,0.3,0.2c0,0,0,0,0.2,0l0,0l0,0c0.2,0,0.3,0.2,0.3,0.2l0,0l0,0
			l0,0c0.2,0,0.3,0.2,0.5,0.2l0,0l0,0c0,0,0,0,0.2,0c0,0,0,0,0.2,0l0,0c0,0.3,0.2,0.6,0.2,0.9l0,0v0.2l0,0c0,0,0,0,0,0.2v0.6h0.2
			l0,0l0,0v0.2l0,0c0,0.3,0,0.5,0.2,0.5l0,0l0,0l0,0h0.8l0,0l0,0l0,0l0,0c0,0,0,0,0-0.2l0,0c0,0,0,0,0-0.2l0,0c0-0.2,0-0.3,0-0.6
			l0,0h0.8c0-0.3,0.2-0.6,0.2-0.9c0-0.2,0-0.2,0-0.3c0.2,0,0.2,0,0.3,0l0,0l0,0l0,0c0.2,0,0.3,0,0.5,0h0.2c0.2,0,0.2,0,0.3,0h0.2
			c0.2,0,0.2,0,0.3,0l0,0l0,0h0.2l0,0l0,0c0.2,0,0.3,0,0.5,0l0,0l0,0l0,0c0.2,0,0.3,0,0.5,0h0.2c0.2,0,0.2,0,0.3,0h0.2
			c0.2,0,0.3,0,0.3,0s0,0,0.2,0l0,0l0,0c0.2,0,0.3,0,0.5,0l0,0l0,0h0.2l0,0l0,0c0.2,0,0.2,0,0.3,0V53h0.9c0,0.2,0,0.3,0,0.3l0,0v0.2
			l0,0c0,0,0,0,0,0.2c0,0.2,0,0.3,0,0.5l0,0l0,0l0,0l0,0l0,0l0,0l0,0h0.8l0,0l0,0l0,0l0,0l0,0c0-0.2,0-0.3,0-0.6l0,0c0,0,0,0,0-0.2
			c0-0.2,0-0.2,0-0.3l0,0c0-0.2,0-0.3,0.2-0.6l0,0c0.2-0.5,0.2-1.1,0.3-1.7l0,0l0,0l0,0l0,0c0.2,0,0.2,0,0.3-0.2l0,0l0,0l0,0l0,0
			l0,0c0,0,0.2,0,0.2-0.2l0,0l0,0c0,0,0,0,0.2,0l0,0l0,0h0.2l0,0l0,0c0,0,0,0,0.2,0s0.2,0,0.3-0.2l0,0l0,0l0,0c0,0,0.2,0,0.2-0.2
			l0,0v0.2c0,0,0,0,0,0.2v0.2c0,0,0,0,0,0.2v0.2l0,0v0.2l0,0c0,0.9,0,1.7,0,2.4c0,0.2,0,0.3,0,0.5l0,0l0,0l0,0l0,0l0,0l0,0l0,0l0,0
			l0,0h0.8l0,0l0,0l0,0l0,0l0,0l0,0l0,0l0,0l0,0c0,0,0,0,0-0.2l0,0c0,0,0,0,0-0.2l0,0c0,0,0-0.2,0-0.3l0,0l0,0l0,0v-0.2l0,0l0,0l0,0
			l0,0V53l0,0v-0.2l0,0v-0.2l0,0v-0.2l0,0c0-0.2,0-0.2,0-0.3l0,0c0-0.2,0-0.2,0-0.3l0,0v-0.2c0,0,0,0,0-0.2v-0.2c0,0,0,0,0-0.2v-0.2
			c0,0,0,0,0-0.2c0-0.2,0.2-0.5,0.2-0.6l0,0c0-0.2,0-0.2,0-0.2s0,0,0-0.2V50c0,0,0,0,0-0.2v-0.2c0,0,0,0,0-0.2s0-0.2,0.2-0.3l0,0
			c0-0.2,0.2-0.2,0.2-0.3l0,0l0,0c0,0,0.2,0,0.2-0.2l0,0l0,0l0,0l0,0l0,0l0,0l0,0l0,0l0,0l0,0l0,0l0,0l0,0l0,0c0,0,0,0,0.2,0l0,0
			c0,0,0,0,0.2,0l0,0c0,0,0,0,0.2-0.2l0,0c0.2-0.2,0.3-0.2,0.5-0.3l0,0l0.2-0.2l0,0l0.2-0.2l0,0l0.2-0.2l0,0l0.2-0.2l0,0l0.2-0.2
			l0,0c0.2-0.2,0.2-0.3,0.3-0.5l0,0h0.2l0,0l0,0l0,0l0,0c0.2,0,0.2,0,0.3,0l0,0l0,0l0,0H39l0,0l0,0l0,0c0.2,0,0.2,0,0.3-0.2l0,0l0,0
			l0,0c0,0,0.2,0,0.2-0.2l0,0l0,0c0,0,0,0,0,0.2l0,0l0,0l0,0l0,0l0,0l0,0l0,0l0,0l0,0l0,0l0,0l0,0c0,0,0,0,0.2,0
			c0.8,0.2,2.6-1.8,2.1-2.7C40.2,44.3,40,44.3,40,44.3z M17.6,38.9c0.3-0.3,0.6-0.3,0.8-0.2s0.2,0.5-0.3,0.9
			C17.9,40,17.3,40,16.9,40C17,39.5,17.2,39.2,17.6,38.9z M28.5,52.1L28.5,52.1C28.5,52,28.5,52,28.5,52.1L28.5,52.1
			c0-0.2,0-0.3,0-0.5l0,0v-0.2l0,0v-0.2l0,0l0,0c0,0,0,0,0.2,0l0,0l0,0c0.2,0,0.2,0,0.3,0h0.2l0,0c0,0.3,0,0.6,0.2,0.9h-0.8
			C28.5,52.3,28.5,52.1,28.5,52.1z"/>
	</g>
</g>
<text transform="matrix(1 0 0 1 71.112 45.2306)" class="st0 st2 st3">Agropecuario</text>
</svg>
