<?xml version="1.0" encoding="utf-8"?>
<!-- Generator: Adobe Illustrator 26.3.1, SVG Export Plug-In . SVG Version: 6.00 Build 0)  -->
<svg version="1.1" id="Capa_1" xmlns="http://www.w3.org/2000/svg" xmlns:xlink="http://www.w3.org/1999/xlink" x="0px" y="0px"
	 viewBox="0 0 198.7 61.9" style="enable-background:new 0 0 198.7 61.9;" xml:space="preserve">
<style type="text/css">
	.st0{fill:#051F69;}
	.st1{enable-background:new    ;}
	.st2{font-family:'WorkSans-Black';}
	.st3{font-size:11.1884px;}
</style>
<g>
	<path class="st0" d="M91.3,26.7h3.4v0.7h-4v-5.8h0.7L91.3,26.7L91.3,26.7z"/>
	<path class="st0" d="M96.4,20.8h0.7l-0.8,1.5h-0.6L96.4,20.8z M96.4,22.9v4.4h-0.7v-4.4H96.4z"/>
	<path class="st0" d="M98,27.3v-4.4h0.7l0.1,1l-0.1-0.1c0.1-0.3,0.2-0.5,0.4-0.6c0.2-0.1,0.4-0.3,0.6-0.3c0.2-0.1,0.5-0.1,0.7-0.1
		c0.3,0,0.6,0.1,0.8,0.2c0.3,0.1,0.5,0.3,0.7,0.6c0.2,0.3,0.2,0.6,0.2,0.9v2.8h-0.7v-2.6c0-0.5-0.1-0.8-0.3-1
		c-0.2-0.2-0.5-0.3-0.7-0.3c-0.2,0-0.5,0.1-0.7,0.2c-0.2,0.1-0.4,0.3-0.6,0.5c-0.1,0.2-0.2,0.6-0.2,0.9v2.3L98,27.3
		C98,27.4,98,27.3,98,27.3z"/>
	<path class="st0" d="M105.4,27.4c-0.4,0-0.7-0.1-1.1-0.3c-0.3-0.2-0.6-0.5-0.7-0.7c-0.2-0.4-0.3-0.7-0.3-1.2c0-0.5,0.1-0.8,0.3-1.2
		c0.2-0.4,0.5-0.6,0.7-0.7c0.3-0.2,0.7-0.3,1.1-0.3c0.4,0,0.7,0.1,1,0.3c0.3,0.2,0.5,0.4,0.7,0.7s0.2,0.7,0.2,1c0,0.1,0,0.2,0,0.3
		c0,0.1,0,0.2,0,0.2h-3.5v-0.7h3.2l-0.4,0.1c0-0.5-0.1-0.7-0.4-0.9c-0.2-0.2-0.6-0.4-0.9-0.4c-0.3,0-0.6,0.1-0.7,0.2
		c-0.2,0.1-0.4,0.3-0.5,0.6c-0.1,0.3-0.2,0.6-0.2,0.9c0,0.4,0.1,0.7,0.2,0.9c0.1,0.3,0.3,0.5,0.5,0.6s0.5,0.2,0.7,0.2
		c0.3,0,0.6-0.1,0.7-0.2c0.2-0.1,0.4-0.3,0.5-0.5l0.6,0.3c-0.1,0.2-0.3,0.4-0.5,0.6c-0.2,0.2-0.4,0.3-0.7,0.4
		C105.6,27.6,105.7,27.4,105.4,27.4z"/>
	<path class="st0" d="M111.2,24.5c0-0.4-0.1-0.6-0.3-0.7c-0.2-0.2-0.5-0.3-0.7-0.3c-0.3,0-0.6,0.1-0.7,0.2s-0.4,0.4-0.5,0.7
		l-0.6-0.4c0.1-0.4,0.4-0.6,0.7-0.8c0.3-0.2,0.7-0.3,1.2-0.3c0.3,0,0.6,0.1,0.8,0.2c0.3,0.1,0.5,0.3,0.7,0.5
		c0.2,0.2,0.2,0.5,0.2,0.8v2.1c0,0.2,0.1,0.3,0.4,0.3c0.1,0,0.2,0,0.3,0v0.6c-0.1,0.1-0.3,0.1-0.5,0.1c-0.2,0-0.3,0-0.5-0.1
		c-0.1-0.1-0.3-0.2-0.3-0.3c-0.1-0.1-0.1-0.3-0.1-0.5v-0.1h0.2c-0.1,0.2-0.2,0.4-0.4,0.6c-0.2,0.2-0.4,0.3-0.6,0.3
		c-0.2,0.1-0.4,0.1-0.7,0.1c-0.3,0-0.5,0-0.7-0.1c-0.2-0.1-0.4-0.2-0.6-0.4c-0.1-0.2-0.2-0.4-0.2-0.7c0-0.4,0.1-0.6,0.4-0.8
		c0.3-0.3,0.6-0.4,0.9-0.5l1.8-0.4v0.6l-1.4,0.3c-0.3,0.1-0.5,0.2-0.7,0.3s-0.2,0.3-0.2,0.5s0.1,0.4,0.2,0.5
		c0.2,0.1,0.4,0.2,0.7,0.2c0.2,0,0.4,0,0.5-0.1c0.1-0.1,0.3-0.1,0.4-0.2c0.1-0.1,0.2-0.2,0.3-0.4c0.1-0.1,0.1-0.3,0.1-0.5
		L111.2,24.5L111.2,24.5z"/>
	<path class="st0" d="M118.8,22.9v0.7h-3.2v-0.7H118.8z M117.2,21.7v4.5c0,0.2,0.1,0.4,0.2,0.5c0.1,0.1,0.3,0.2,0.5,0.2
		s0.3,0,0.5-0.1c0.1-0.1,0.3-0.1,0.4-0.3L119,27c-0.1,0.1-0.3,0.2-0.5,0.3c-0.2,0.1-0.4,0.1-0.7,0.1c-0.2,0-0.5,0-0.7-0.1
		s-0.4-0.2-0.5-0.4c-0.1-0.2-0.2-0.4-0.2-0.7v-4.4L117.2,21.7z"/>
	<path class="st0" d="M121.7,27.4c-0.4,0-0.7-0.1-1.1-0.3c-0.3-0.2-0.6-0.5-0.7-0.7c-0.2-0.4-0.3-0.7-0.3-1.2c0-0.5,0.1-0.8,0.3-1.2
		c0.2-0.4,0.5-0.6,0.7-0.7c0.3-0.2,0.7-0.3,1.1-0.3c0.4,0,0.7,0.1,1,0.3c0.3,0.2,0.5,0.4,0.7,0.7c0.2,0.4,0.2,0.7,0.2,1
		c0,0.1,0,0.2,0,0.3c0,0.1,0,0.2,0,0.2H120v-0.7h3.3l-0.4,0.1c0-0.5-0.1-0.7-0.4-0.9c-0.2-0.2-0.6-0.4-0.9-0.4
		c-0.3,0-0.6,0.1-0.7,0.2c-0.2,0.1-0.4,0.3-0.5,0.6c-0.1,0.3-0.2,0.6-0.2,0.9c0,0.4,0.1,0.7,0.2,0.9c0.1,0.3,0.3,0.5,0.5,0.6
		s0.5,0.2,0.7,0.2c0.3,0,0.6-0.1,0.7-0.2c0.2-0.1,0.4-0.3,0.5-0.5l0.6,0.3c-0.1,0.2-0.3,0.4-0.5,0.6c-0.2,0.2-0.4,0.3-0.7,0.4
		C122,27.6,122,27.4,121.7,27.4z"/>
	<path class="st0" d="M125,27.3v-4.4h0.6v0.7c0.2-0.3,0.4-0.5,0.7-0.6c0.3-0.1,0.6-0.2,0.7-0.2c0.3,0,0.6,0.1,0.8,0.2
		c0.3,0.2,0.5,0.4,0.7,0.7c0.1-0.2,0.2-0.4,0.4-0.5s0.4-0.2,0.6-0.3c0.2-0.1,0.4-0.1,0.6-0.1c0.3,0,0.6,0.1,0.8,0.2
		c0.3,0.1,0.5,0.3,0.7,0.6c0.2,0.3,0.3,0.6,0.3,0.9v2.8h-0.7v-2.7c0-0.4-0.1-0.7-0.3-0.8c-0.2-0.2-0.5-0.3-0.7-0.3
		c-0.2,0-0.5,0.1-0.7,0.2c-0.2,0.1-0.4,0.3-0.5,0.5s-0.2,0.5-0.2,0.8v2.4h-0.7v-2.8c0-0.4-0.1-0.7-0.3-0.8c-0.2-0.2-0.5-0.3-0.7-0.3
		c-0.2,0-0.4,0.1-0.6,0.2s-0.4,0.3-0.5,0.5c-0.1,0.2-0.2,0.6-0.2,0.8v2.3L125,27.3L125,27.3z"/>
	<path class="st0" d="M135.9,24.5c0-0.4-0.1-0.6-0.3-0.7c-0.2-0.2-0.5-0.3-0.7-0.3c-0.3,0-0.6,0.1-0.7,0.2s-0.4,0.4-0.5,0.7
		l-0.6-0.4c0.1-0.4,0.4-0.6,0.7-0.8c0.3-0.2,0.7-0.3,1.2-0.3c0.3,0,0.6,0.1,0.8,0.2c0.3,0.1,0.5,0.3,0.7,0.5
		c0.2,0.2,0.2,0.5,0.2,0.8v2.1c0,0.2,0.1,0.3,0.4,0.3c0.1,0,0.2,0,0.3,0v0.6c-0.1,0.1-0.3,0.1-0.5,0.1c-0.2,0-0.3,0-0.5-0.1
		c-0.1-0.1-0.3-0.2-0.3-0.3c-0.1-0.1-0.1-0.3-0.1-0.5v-0.1h0.2c-0.1,0.2-0.2,0.4-0.4,0.6c-0.2,0.2-0.4,0.3-0.6,0.3
		c-0.2,0.1-0.4,0.1-0.7,0.1s-0.5,0-0.7-0.1c-0.2-0.1-0.4-0.2-0.6-0.4c-0.1-0.2-0.2-0.4-0.2-0.7c0-0.4,0.1-0.6,0.4-0.8
		s0.6-0.4,0.9-0.5l1.8-0.4v0.6l-1.4,0.3c-0.3,0.1-0.5,0.2-0.7,0.3s-0.2,0.3-0.2,0.5s0.1,0.4,0.2,0.5c0.2,0.1,0.4,0.2,0.7,0.2
		c0.2,0,0.4,0,0.5-0.1c0.1-0.1,0.3-0.1,0.4-0.2s0.2-0.2,0.3-0.4c0.1-0.1,0.1-0.3,0.1-0.5L135.9,24.5L135.9,24.5z M135.2,20.8h0.7
		l-0.8,1.5h-0.6L135.2,20.8z"/>
	<path class="st0" d="M140.8,22.9v0.7h-3.2v-0.7H140.8z M139.2,21.7v4.5c0,0.2,0.1,0.4,0.2,0.5c0.1,0.1,0.3,0.2,0.5,0.2
		c0.2,0,0.3,0,0.5-0.1c0.1-0.1,0.3-0.1,0.4-0.3l0.3,0.6c-0.1,0.1-0.3,0.2-0.5,0.3c-0.2,0.1-0.4,0.1-0.7,0.1c-0.2,0-0.5,0-0.7-0.1
		c-0.2-0.1-0.4-0.2-0.5-0.4c-0.1-0.2-0.2-0.4-0.2-0.7v-4.4L139.2,21.7z"/>
	<path class="st0" d="M142.2,22.1c-0.2,0-0.3-0.1-0.4-0.2s-0.2-0.2-0.2-0.4s0.1-0.3,0.2-0.4c0.1-0.1,0.2-0.2,0.4-0.2
		s0.3,0.1,0.4,0.2c0.1,0.1,0.2,0.2,0.2,0.4s-0.1,0.3-0.2,0.4C142.5,22.1,142.3,22.1,142.2,22.1z M142.5,22.9v4.4h-0.7v-4.4H142.5z"
		/>
	<path class="st0" d="M146,22.8c0.3,0,0.6,0.1,0.8,0.2c0.3,0.1,0.5,0.2,0.6,0.4c0.2,0.2,0.3,0.4,0.4,0.7l-0.7,0.3
		c-0.1-0.3-0.3-0.5-0.5-0.7c-0.2-0.2-0.5-0.2-0.7-0.2c-0.3,0-0.6,0.1-0.7,0.2c-0.2,0.1-0.4,0.3-0.5,0.6c-0.1,0.3-0.2,0.6-0.2,0.9
		c0,0.4,0.1,0.7,0.2,0.9c0.1,0.3,0.3,0.5,0.5,0.6c0.2,0.1,0.5,0.2,0.7,0.2c0.2,0,0.5,0,0.6-0.1c0.2-0.1,0.3-0.2,0.4-0.3
		s0.2-0.3,0.2-0.5l0.7,0.2c-0.1,0.3-0.3,0.5-0.4,0.7c-0.2,0.2-0.4,0.4-0.7,0.5c-0.3,0.1-0.6,0.2-0.8,0.2c-0.4,0-0.7-0.1-1.1-0.3
		c-0.3-0.2-0.6-0.5-0.7-0.7c-0.2-0.4-0.3-0.7-0.3-1.2c0-0.5,0.1-0.8,0.3-1.2c0.2-0.4,0.5-0.6,0.7-0.7
		C145.2,22.9,145.6,22.8,146,22.8z"/>
	<path class="st0" d="M151.6,24.5c0-0.4-0.1-0.6-0.3-0.7c-0.2-0.2-0.5-0.3-0.7-0.3c-0.3,0-0.6,0.1-0.7,0.2s-0.4,0.4-0.5,0.7
		l-0.6-0.4c0.1-0.4,0.4-0.6,0.7-0.8c0.3-0.2,0.7-0.3,1.2-0.3c0.3,0,0.6,0.1,0.8,0.2s0.5,0.3,0.7,0.5c0.2,0.2,0.2,0.5,0.2,0.8v2.1
		c0,0.2,0.1,0.3,0.4,0.3c0.1,0,0.2,0,0.3,0v0.6c-0.1,0.1-0.3,0.1-0.5,0.1c-0.2,0-0.3,0-0.5-0.1c-0.1-0.1-0.3-0.2-0.3-0.3
		c-0.1-0.1-0.1-0.3-0.1-0.5v-0.1h0.2c-0.1,0.2-0.2,0.4-0.4,0.6c-0.2,0.2-0.4,0.3-0.6,0.3c-0.2,0.1-0.4,0.1-0.7,0.1s-0.5,0-0.7-0.1
		c-0.2-0.1-0.4-0.2-0.6-0.4c-0.1-0.2-0.2-0.4-0.2-0.7c0-0.4,0.1-0.6,0.4-0.8c0.3-0.3,0.6-0.4,0.9-0.5l1.8-0.4v0.6l-1.4,0.3
		c-0.3,0.1-0.5,0.2-0.7,0.3c-0.2,0.1-0.2,0.3-0.2,0.5s0.1,0.4,0.2,0.5c0.2,0.1,0.4,0.2,0.7,0.2c0.2,0,0.4,0,0.5-0.1s0.3-0.1,0.4-0.2
		c0.1-0.1,0.2-0.2,0.3-0.4c0.1-0.1,0.1-0.3,0.1-0.5L151.6,24.5L151.6,24.5z"/>
</g>
<text transform="matrix(1 0 0 1 90.7792 39.8176)"><tspan x="0" y="0" class="st0 st2 st3">TRANSICIÓN </tspan><tspan x="0" y="11.1" class="st0 st2 st3">ENERGÉTICA</tspan></text>
<g>
	<g>
		<path class="st0" d="M43.8,36.1c-2.8,0-5.1-2.3-5.1-5.1c0-2.8,2.3-5.2,5.1-5.2c2.8,0,5.2,2.3,5.2,5.2
			C48.9,33.8,46.6,36.1,43.8,36.1z M43.8,28.2c-1.5,0-2.8,1.2-2.8,2.8c0,1.5,1.2,2.8,2.8,2.8c1.5,0,2.8-1.2,2.8-2.8
			C46.5,29.4,45.3,28.2,43.8,28.2z"/>
	</g>
	<g>
		<path class="st0" d="M42,51.7c-0.7,0-1.2-0.5-1.2-1.2V34.9c0-0.7,0.5-1.2,1.2-1.2c0.7,0,1.2,0.5,1.2,1.2v15.6
			C43.2,51.2,42.6,51.7,42,51.7z"/>
	</g>
	<g>
		<path class="st0" d="M46.1,51.7c-0.7,0-1.2-0.5-1.2-1.2V34.9c0-0.7,0.5-1.2,1.2-1.2s1.2,0.5,1.2,1.2v15.6
			C47.3,51.2,46.7,51.7,46.1,51.7z"/>
	</g>
	<g>
		<path class="st0" d="M44.5,28.2c-0.5,0-1-0.3-1.1-0.8L37.7,9.8l0-0.3c0.1-0.4,0.6-3.6,2.9-4.3C42.2,4.8,44,5.6,46,7.8
			c4,4.4,4.4,11.2,2.4,14.6c-0.8,1.4-2,2.1-3.4,2.2l0.6,2c0.2,0.6-0.1,1.3-0.8,1.5C44.7,28.2,44.6,28.2,44.5,28.2z M44.2,22.2
			c0.6,0.1,1.4,0.1,2.1-1c1.6-2.6,1-8.3-2.1-11.8c-1.8-2-2.6-1.9-2.9-1.8c-0.6,0.2-1,1.3-1.2,2.1L44.2,22.2z"/>
	</g>
	<g>
		<path class="st0" d="M23.2,40.9l-0.3,0c-0.4-0.1-3.6-0.6-4.3-2.9c-0.5-1.6,0.3-3.3,2.5-5.3c4.4-4,11.2-4.4,14.6-2.4
			c1.4,0.8,2.1,2,2.2,3.4l2-0.6c0.6-0.2,1.3,0.1,1.5,0.8c0.2,0.6-0.1,1.3-0.8,1.5L23.2,40.9z M30.8,31.4c-2.7,0-5.8,1-8,3
			c-2,1.8-1.9,2.6-1.8,2.9c0.2,0.6,1.3,1,2.1,1.2l12.6-4c0.1-0.6,0.1-1.4-1-2.1C33.6,31.7,32.3,31.4,30.8,31.4z"/>
	</g>
	<g>
		<path class="st0" d="M64.3,40.9l-17.5-5.6c-0.6-0.2-1-0.9-0.8-1.5c0.2-0.6,0.9-1,1.5-0.8l2,0.6c0.1-1.4,0.9-2.6,2.2-3.4
			c3.4-2.1,10.2-1.6,14.6,2.4c2.2,2,3,3.7,2.5,5.3c-0.7,2.3-3.9,2.9-4.3,2.9L64.3,40.9z M52,34.4l12.6,4c0.8-0.2,1.9-0.6,2.1-1.2
			c0.1-0.2,0.1-1.1-1.8-2.9c-3.4-3.1-9.2-3.7-11.8-2.1C51.8,33,51.8,33.8,52,34.4z"/>
	</g>
</g>
</svg>
