<?xml version="1.0" encoding="utf-8"?>
<!-- Generator: Adobe Illustrator 26.3.1, SVG Export Plug-In . SVG Version: 6.00 Build 0)  -->
<svg version="1.1" id="Capa_1" xmlns="http://www.w3.org/2000/svg" xmlns:xlink="http://www.w3.org/1999/xlink" x="0px" y="0px"
	 viewBox="0 0 198.7 61.9" style="enable-background:new 0 0 198.7 61.9;" xml:space="preserve">
<style type="text/css">
	.st0{fill:#051F69;}
	.st1{enable-background:new    ;}
</style>
<g id="Agro">
	<g>
		<g>
			<path class="st0" d="M72.1,25.7h4.4v0.9h-5.3V19h1v6.7H72.1z"/>
			<path class="st0" d="M78.7,18h1l-1.1,2h-0.7L78.7,18z M78.8,20.8v5.7h-1v-5.7H78.8z"/>
			<path class="st0" d="M81,26.7v-5.7h0.9l0.1,1.3l-0.1-0.1c0.1-0.4,0.2-0.6,0.5-0.7c0.2-0.1,0.5-0.4,0.7-0.4
				c0.2-0.1,0.6-0.1,0.9-0.1c0.4,0,0.7,0.1,1.1,0.2c0.4,0.1,0.6,0.4,0.9,0.7c0.2,0.4,0.2,0.7,0.2,1.2v3.7h-1v-3.4
				c0-0.6-0.1-1.1-0.4-1.3c-0.2-0.2-0.6-0.4-1-0.4c-0.2,0-0.6,0.1-0.9,0.2c-0.2,0.1-0.5,0.4-0.7,0.6c-0.1,0.2-0.2,0.7-0.2,1.2v3.1
				h-1V26.7z"/>
			<path class="st0" d="M90.6,26.7c-0.5,0-1-0.1-1.5-0.4c-0.4-0.2-0.7-0.6-1-1c-0.2-0.5-0.4-1-0.4-1.6c0-0.6,0.1-1.1,0.4-1.6
				c0.2-0.5,0.6-0.7,1-1c0.4-0.2,0.9-0.4,1.5-0.4c0.5,0,1,0.1,1.3,0.4c0.4,0.2,0.6,0.5,0.9,1C93,22.7,93,23,93,23.5
				c0,0.1,0,0.2,0,0.4c0,0.1,0,0.2,0,0.2h-4.6v-0.9h4.3l-0.5,0.1c0-0.6-0.1-1-0.5-1.2c-0.2-0.2-0.7-0.5-1.2-0.5
				c-0.4,0-0.7,0.1-1,0.2c-0.2,0.1-0.5,0.4-0.6,0.7c-0.1,0.4-0.2,0.7-0.2,1.2c0,0.5,0.1,0.9,0.2,1.2c0.1,0.4,0.4,0.6,0.6,0.7
				c0.2,0.1,0.6,0.2,1,0.2c0.4,0,0.7-0.1,1-0.2c0.2-0.1,0.5-0.4,0.6-0.6l0.7,0.4c-0.1,0.2-0.4,0.5-0.6,0.7c-0.2,0.2-0.5,0.4-0.9,0.5
				C90.9,26.9,90.9,26.7,90.6,26.7z"/>
			<path class="st0" d="M98.1,22.9c0-0.5-0.1-0.7-0.4-1c-0.2-0.2-0.6-0.4-1-0.4c-0.4,0-0.7,0.1-1,0.2s-0.5,0.5-0.6,0.9l-0.7-0.5
				c0.1-0.5,0.5-0.7,0.9-1.1c0.4-0.2,1-0.4,1.6-0.4c0.4,0,0.7,0.1,1.1,0.2c0.4,0.1,0.6,0.4,0.9,0.6c0.2,0.2,0.2,0.6,0.2,1.1v2.8
				c0,0.2,0.1,0.4,0.5,0.4c0.1,0,0.2,0,0.4,0v0.7c-0.1,0.1-0.4,0.1-0.6,0.1s-0.4,0-0.6-0.1c-0.1-0.1-0.4-0.2-0.4-0.4
				c-0.1-0.1-0.1-0.4-0.1-0.6v-0.1h0.2c-0.1,0.2-0.2,0.5-0.5,0.7c-0.2,0.2-0.5,0.4-0.7,0.4c-0.2,0.1-0.5,0.1-0.9,0.1
				c-0.4,0-0.6,0-1-0.1c-0.2-0.1-0.5-0.2-0.7-0.5c-0.1-0.2-0.2-0.5-0.2-0.9c0-0.5,0.1-0.7,0.5-1.1c0.4-0.4,0.7-0.5,1.2-0.6l2.3-0.5
				v0.7l-1.8,0.4c-0.4,0.1-0.6,0.2-0.9,0.4c-0.2,0.1-0.2,0.4-0.2,0.6c0,0.2,0.1,0.5,0.2,0.6c0.2,0.1,0.5,0.2,0.9,0.2
				c0.2,0,0.5,0,0.6-0.1c0.1-0.1,0.4-0.1,0.5-0.2c0.1-0.1,0.2-0.2,0.4-0.5c0.1-0.1,0.1-0.4,0.1-0.6v-1.6H98.1z"/>
			<path class="st0" d="M108.2,20.8v0.9H104v-0.9H108.2z M106.1,19.2v5.9c0,0.2,0.1,0.5,0.2,0.6c0.1,0.1,0.4,0.2,0.6,0.2
				s0.4,0,0.6-0.1c0.1-0.1,0.4-0.1,0.5-0.4l0.4,0.7c-0.1,0.1-0.4,0.2-0.6,0.4c-0.2,0.1-0.5,0.1-0.9,0.1c-0.2,0-0.6,0-0.9-0.1
				s-0.5-0.2-0.6-0.5c-0.1-0.2-0.2-0.5-0.2-0.9v-5.7L106.1,19.2z"/>
			<path class="st0" d="M112,26.7c-0.5,0-1-0.1-1.5-0.4c-0.4-0.2-0.7-0.6-1-1c-0.2-0.5-0.4-1-0.4-1.6c0-0.6,0.1-1.1,0.4-1.6
				c0.2-0.5,0.6-0.7,1-1c0.4-0.2,0.9-0.4,1.5-0.4c0.5,0,1,0.1,1.3,0.4c0.4,0.2,0.6,0.5,0.9,1c0.2,0.5,0.2,0.9,0.2,1.3
				c0,0.1,0,0.2,0,0.4c0,0.1,0,0.2,0,0.2h-4.6v-0.9h4.3l-0.5,0.1c0-0.6-0.1-1-0.5-1.2c-0.2-0.2-0.7-0.5-1.2-0.5
				c-0.4,0-0.7,0.1-1,0.2c-0.2,0.1-0.5,0.4-0.6,0.7c-0.1,0.4-0.2,0.7-0.2,1.2c0,0.5,0.1,0.9,0.2,1.2c0.1,0.4,0.4,0.6,0.6,0.7
				c0.2,0.1,0.6,0.2,1,0.2c0.4,0,0.7-0.1,1-0.2c0.2-0.1,0.5-0.4,0.6-0.6l1,0.2c-0.1,0.2-0.4,0.5-0.6,0.7c-0.2,0.2-0.5,0.4-0.9,0.5
				C112.6,26.8,112.3,26.7,112,26.7z"/>
			<path class="st0" d="M116.2,26.7v-5.7h0.9v0.9c0.2-0.4,0.5-0.6,0.9-0.7s0.7-0.2,1-0.2c0.4,0,0.7,0.1,1.1,0.2
				c0.4,0.2,0.6,0.5,0.9,0.9c0.1-0.2,0.2-0.5,0.5-0.6c0.2-0.1,0.5-0.2,0.7-0.4c0.2-0.1,0.5-0.1,0.7-0.1c0.4,0,0.7,0.1,1.1,0.2
				s0.6,0.4,0.9,0.7c0.2,0.4,0.4,0.7,0.4,1.2v3.7h-1V23c0-0.5-0.1-0.9-0.4-1.1c-0.2-0.2-0.6-0.4-1-0.4c-0.2,0-0.6,0.1-0.9,0.2
				s-0.5,0.4-0.6,0.6c-0.1,0.2-0.2,0.6-0.2,1.1v3.2h-1V23c0-0.5-0.1-0.9-0.4-1.1c-0.2-0.2-0.6-0.4-1-0.4c-0.2,0-0.5,0.1-0.7,0.2
				s-0.5,0.4-0.6,0.6c-0.1,0.2-0.2,0.7-0.2,1.1v3.1h-1V26.7z"/>
			<path class="st0" d="M130.7,22.9c0-0.5-0.1-0.7-0.4-1c-0.2-0.2-0.6-0.4-1-0.4c-0.4,0-0.7,0.1-1,0.2s-0.5,0.5-0.6,0.9l-0.7-0.5
				c0.1-0.5,0.5-0.7,0.9-1.1c0.4-0.2,1-0.4,1.6-0.4c0.4,0,0.7,0.1,1.1,0.2s0.6,0.4,0.9,0.6c0.2,0.2,0.2,0.6,0.2,1.1v2.8
				c0,0.2,0.1,0.4,0.5,0.4c0.1,0,0.2,0,0.4,0v0.7c-0.1,0.1-0.4,0.1-0.6,0.1c-0.2,0-0.4,0-0.6-0.1c-0.1-0.1-0.4-0.2-0.4-0.4
				c-0.1-0.1-0.1-0.4-0.1-0.6v-0.1h0.2c-0.1,0.2-0.2,0.5-0.5,0.7c-0.2,0.2-0.5,0.4-0.7,0.4c-0.2,0.1-0.5,0.1-0.9,0.1s-0.6,0-1-0.1
				c-0.2-0.1-0.5-0.2-0.7-0.5c-0.1-0.2-0.2-0.5-0.2-0.9c0-0.5,0.1-0.7,0.5-1.1s0.7-0.5,1.2-0.6L131,23v0.7l-1.8,0.4
				c-0.4,0.1-0.6,0.2-0.9,0.4c-0.2,0.1-0.2,0.4-0.2,0.6c0,0.2,0.1,0.5,0.2,0.6c0.2,0.1,0.5,0.2,0.9,0.2c0.2,0,0.5,0,0.6-0.1
				s0.4-0.1,0.5-0.2c0.1-0.1,0.2-0.2,0.4-0.5c0.1-0.1,0.1-0.4,0.1-0.6v-1.6H130.7z M129.7,18h1l-1.1,2h-0.7L129.7,18z"/>
			<path class="st0" d="M137,20.8v0.9h-4.2v-0.9H137z M135,19.2v5.9c0,0.2,0.1,0.5,0.2,0.6s0.4,0.2,0.6,0.2c0.2,0,0.4,0,0.6-0.1
				c0.1-0.1,0.4-0.1,0.5-0.4l0.4,0.7c-0.1,0.1-0.4,0.2-0.6,0.4c-0.2,0.1-0.5,0.1-0.9,0.1c-0.2,0-0.6,0-0.9-0.1s-0.5-0.2-0.6-0.5
				c-0.1-0.2-0.2-0.5-0.2-0.9v-5.7L135,19.2z"/>
			<path class="st0" d="M138.9,19.7c-0.2,0-0.4-0.1-0.5-0.2s-0.2-0.2-0.2-0.5s0.1-0.4,0.2-0.5s0.2-0.2,0.5-0.2s0.4,0.1,0.5,0.2
				s0.2,0.2,0.2,0.5s-0.1,0.4-0.2,0.5C139.2,19.7,139.1,19.7,138.9,19.7z M139.4,20.8v5.7h-1v-5.7H139.4z"/>
			<path class="st0" d="M143.9,20.7c0.4,0,0.7,0.1,1.1,0.2c0.4,0.1,0.6,0.2,0.7,0.5c0.2,0.2,0.4,0.5,0.5,0.9l-0.9,0.4
				c-0.1-0.4-0.4-0.6-0.6-0.9c-0.2-0.2-0.6-0.2-1-0.2s-0.7,0.1-1,0.2s-0.5,0.4-0.6,0.7c-0.1,0.4-0.2,0.7-0.2,1.2s0.1,0.9,0.2,1.2
				c0.1,0.4,0.4,0.6,0.6,0.7c0.2,0.1,0.6,0.2,1,0.2c0.2,0,0.6,0,0.7-0.1c0.2-0.1,0.4-0.2,0.5-0.4c0.1-0.1,0.2-0.4,0.2-0.6l0.9,0.2
				c-0.1,0.4-0.4,0.6-0.5,0.9c-0.2,0.2-0.5,0.5-0.9,0.6s-0.7,0.2-1.1,0.2c-0.5,0-1-0.1-1.5-0.4c-0.4-0.2-0.7-0.6-1-1
				c-0.2-0.5-0.4-1-0.4-1.6c0-0.6,0.1-1.1,0.4-1.6c0.2-0.5,0.6-0.7,1-1C142.8,20.8,143.3,20.7,143.9,20.7z"/>
			<path class="st0" d="M151.4,22.9c0-0.5-0.1-0.7-0.4-1c-0.2-0.2-0.6-0.4-1-0.4c-0.4,0-0.7,0.1-1,0.2s-0.5,0.5-0.6,0.9l-0.7-0.5
				c0.1-0.5,0.5-0.7,0.9-1.1c0.4-0.2,1-0.4,1.6-0.4c0.4,0,0.7,0.1,1.1,0.2s0.6,0.4,0.9,0.6c0.2,0.2,0.2,0.6,0.2,1.1v2.8
				c0,0.2,0.1,0.4,0.5,0.4c0.1,0,0.2,0,0.4,0v0.7c-0.1,0.1-0.4,0.1-0.6,0.1c-0.2,0-0.4,0-0.6-0.1c-0.1-0.1-0.4-0.2-0.4-0.4
				c-0.1-0.1-0.1-0.4-0.1-0.6v-0.1h0.2c-0.1,0.2-0.2,0.5-0.5,0.7c-0.2,0.2-0.5,0.4-0.7,0.4c-0.2,0.1-0.5,0.1-0.9,0.1s-0.6,0-1-0.1
				c-0.2-0.1-0.5-0.2-0.7-0.5c-0.1-0.2-0.2-0.5-0.2-0.9c0-0.5,0.1-0.7,0.5-1.1s0.7-0.5,1.2-0.6l2.3-0.5v0.7l-1.8,0.4
				c-0.4,0.1-0.6,0.2-0.9,0.4c-0.2,0.1-0.2,0.4-0.2,0.6c0,0.2,0.1,0.5,0.2,0.6c0.2,0.1,0.5,0.2,0.9,0.2c0.2,0,0.5,0,0.6-0.1
				s0.4-0.1,0.5-0.2c0.1-0.1,0.2-0.2,0.4-0.5c0.1-0.1,0.1-0.4,0.1-0.6v-1.6H151.4z"/>
		</g>
		<g>
			<path class="st0" d="M69.3,48.7l4.3-12.1h3.8l4.3,12.1h-3.3L76,40.9l-0.5-2l0,0L75,40.8l-2.4,7.8h-3.3V48.7z M72.1,45.9v-2.1h6.7
				V46h-6.7V45.9z"/>
			<path class="st0" d="M88.5,46.6c1.1,0,1.8,0.2,2.4,0.6c0.6,0.5,0.9,1.1,0.9,2c0,0.7-0.2,1.3-0.6,1.8c-0.4,0.5-1,0.9-1.7,1.1
				c-0.7,0.2-1.6,0.4-2.7,0.4c-1.7,0-2.8-0.2-3.5-0.6c-0.7-0.4-1.1-1-1.1-1.7c0-0.5,0.2-1,0.6-1.2c0.4-0.4,1.1-0.5,2.1-0.5l-0.1,0.2
				c-0.7-0.1-1.3-0.4-1.7-0.6c-0.4-0.4-0.5-0.9-0.5-1.3c0-0.6,0.2-1.1,0.7-1.5c0.5-0.4,1.1-0.6,1.8-0.6l1.1,0.5h-0.2
				c-0.5,0-0.9,0.1-1,0.2c-0.2,0.1-0.2,0.2-0.2,0.5c0,0.2,0.1,0.4,0.2,0.5c0.1,0.1,0.4,0.1,0.7,0.1h2.8V46.6z M86.9,39.3
				c1,0,1.7,0.1,2.4,0.4s1.2,0.6,1.5,1.1c0.4,0.5,0.5,1,0.5,1.7c0,0.6-0.1,1.2-0.5,1.7c-0.4,0.5-0.9,0.9-1.5,1.1
				c-0.6,0.2-1.5,0.4-2.4,0.4c-1.5,0-2.6-0.2-3.3-0.9c-0.7-0.5-1.1-1.3-1.1-2.3c0-0.6,0.1-1.2,0.5-1.7c0.4-0.5,0.9-0.9,1.5-1.1
				C85.1,39.4,85.9,39.3,86.9,39.3z M86.8,50.6c0.6,0,1.1,0,1.5-0.1c0.4-0.1,0.7-0.2,0.9-0.4c0.2-0.1,0.2-0.2,0.2-0.5
				c0-0.1-0.1-0.4-0.2-0.5C89,49,88.7,49,88.4,49h-3.3c-0.2,0-0.4,0-0.6,0.2c-0.1,0.1-0.2,0.2-0.2,0.5c0,0.2,0.2,0.5,0.6,0.6
				C85.2,50.4,86,50.6,86.8,50.6z M86.9,41.1c-0.4,0-0.7,0.1-1,0.4c-0.2,0.2-0.4,0.6-0.4,1c0,0.4,0.1,0.7,0.4,1
				c0.2,0.2,0.6,0.4,1,0.4c0.4,0,0.7-0.1,1-0.4c0.2-0.2,0.4-0.6,0.4-1c0-0.5-0.1-0.7-0.4-1S87.3,41.1,86.9,41.1z M91.7,37.1l0.2,2.1
				c-0.1,0-0.1,0-0.2,0c-0.1,0-0.1,0-0.2,0c-0.5,0-1,0.1-1.2,0.4c-0.2,0.2-0.4,0.6-0.4,1l-1.1-0.4c0-0.5,0.1-1,0.2-1.5
				c0.1-0.5,0.5-0.9,0.9-1.1s0.9-0.5,1.5-0.5h0.1C91.4,37.1,91.5,37,91.7,37.1z"/>
			<path class="st0" d="M93,48.7v-9.2h2.7l0.1,2c0.2-0.7,0.6-1.2,1-1.6c0.5-0.4,1.1-0.6,1.7-0.6c0.2,0,0.5,0,0.6,0
				c0.1,0,0.2,0.1,0.4,0.1L99.1,42c-0.1,0-0.2-0.1-0.5-0.1c-0.2,0-0.4,0-0.7,0s-0.7,0.1-1,0.2c-0.4,0.1-0.6,0.4-0.7,0.7
				c-0.2,0.4-0.2,0.7-0.2,1.2v4.6L93,48.7L93,48.7z"/>
			<path class="st0" d="M105.2,39.3c1,0,1.8,0.2,2.6,0.6c0.7,0.4,1.3,1,1.7,1.6c0.4,0.6,0.6,1.6,0.6,2.6s-0.2,1.8-0.6,2.6
				c-0.4,0.7-1,1.2-1.7,1.6c-0.7,0.4-1.6,0.6-2.6,0.6c-1,0-1.8-0.2-2.6-0.6c-0.7-0.4-1.3-1-1.7-1.6c-0.4-0.6-0.6-1.6-0.6-2.6
				s0.2-1.8,0.6-2.6c0.4-0.7,1-1.2,1.7-1.6C103.4,39.5,104.3,39.3,105.2,39.3z M105.2,41.5c-0.4,0-0.6,0.1-1,0.2
				c-0.2,0.1-0.5,0.5-0.6,0.9c-0.1,0.4-0.2,0.9-0.2,1.5c0,0.6,0.1,1.1,0.2,1.5c0.1,0.4,0.4,0.6,0.6,0.9c0.2,0.1,0.6,0.2,1,0.2
				c0.4,0,0.7-0.1,1-0.2c0.2-0.1,0.5-0.5,0.6-0.9c0.1-0.4,0.2-0.9,0.2-1.5c0-0.6-0.1-1.1-0.2-1.5c-0.1-0.4-0.4-0.6-0.6-0.9
				C105.8,41.6,105.6,41.5,105.2,41.5z"/>
			<path class="st0" d="M113.3,38.4c-0.6,0-1.1-0.1-1.3-0.4c-0.2-0.2-0.5-0.6-0.5-1.1c0-0.5,0.1-0.9,0.5-1.1
				c0.2-0.2,0.7-0.4,1.3-0.4c0.6,0,1.1,0.1,1.3,0.4c0.2,0.2,0.5,0.6,0.5,1.1c0,0.5-0.1,0.9-0.5,1.1C114.4,38.3,114,38.4,113.3,38.4z
				 M114.9,39.5v9.2h-3.1v-9.2H114.9z"/>
			<path class="st0" d="M117.1,48.7v-9.2h2.8l0.1,3.2l-0.4-0.4c0.1-0.6,0.4-1.2,0.6-1.6c0.4-0.5,0.7-0.7,1.2-1
				c0.5-0.2,1-0.4,1.6-0.4c0.6,0,1.2,0.1,1.7,0.4s0.9,0.6,1.1,1.1c0.2,0.5,0.4,1.1,0.4,1.8v6.1h-3.2v-5.3c0-0.6-0.1-1.1-0.4-1.3
				c-0.2-0.2-0.6-0.4-1-0.4c-0.2,0-0.6,0.1-0.9,0.2c-0.2,0.1-0.5,0.4-0.6,0.6c-0.1,0.4-0.2,0.7-0.2,1.2v4.9h-2.9V48.7z"/>
			<path class="st0" d="M131.9,48.8c-0.7,0-1.5-0.2-2-0.6c-0.6-0.4-1-0.9-1.3-1.6c-0.4-0.7-0.5-1.6-0.5-2.6c0-1,0.1-1.8,0.5-2.6
				c0.4-0.7,0.7-1.2,1.3-1.6s1.2-0.6,2-0.6c0.9,0,1.5,0.2,2,0.7c0.5,0.5,0.9,1.1,1,2l-0.2,0.4v-6.7h3.2v13.1H135l-0.2-3.1l0.4,0.2
				c-0.1,0.6-0.2,1.1-0.6,1.6c-0.2,0.5-0.7,0.9-1.1,1.1C133,48.7,132.5,48.8,131.9,48.8z M133,46.5c0.4,0,0.6-0.1,0.9-0.2
				c0.2-0.2,0.5-0.5,0.6-0.9c0.1-0.4,0.2-0.9,0.2-1.3s-0.1-1-0.2-1.3s-0.4-0.6-0.6-0.9c-0.2-0.2-0.6-0.2-0.9-0.2
				c-0.5,0-1,0.2-1.2,0.6c-0.4,0.4-0.5,1-0.5,1.8s0.1,1.5,0.5,1.8C132,46.4,132.4,46.5,133,46.5z"/>
			<path class="st0" d="M143.2,48.8c-0.6,0-1.2-0.1-1.6-0.4c-0.4-0.2-0.9-0.6-1.1-1c-0.2-0.5-0.4-1.1-0.4-1.8v-6.1h3.1v5.4
				c0,0.6,0.1,1,0.4,1.2c0.2,0.2,0.6,0.4,1,0.4c0.2,0,0.4,0,0.6-0.1c0.2-0.1,0.4-0.2,0.5-0.4c0.1-0.1,0.2-0.4,0.4-0.6
				c0.1-0.2,0.1-0.6,0.1-1v-4.9h3.2v9.2h-2.8l-0.1-1.7c-0.2,0.6-0.7,1.1-1.2,1.5C144.5,48.7,143.9,48.8,143.2,48.8z"/>
			<path class="st0" d="M155.3,48.8c-1,0-1.7-0.1-2.6-0.5c-0.9-0.4-1.5-0.7-2-1.3l1.5-1.7c0.2,0.4,0.7,0.7,1.2,1
				c0.5,0.2,1.1,0.4,1.7,0.4c0.4,0,0.7,0,1-0.1c0.2-0.1,0.4-0.2,0.4-0.5c0-0.1-0.1-0.4-0.1-0.4c-0.1-0.1-0.4-0.2-0.7-0.2l-1.2-0.2
				c-1.1-0.2-2-0.6-2.4-1c-0.5-0.5-0.7-1.1-0.7-1.8c0-0.5,0.1-1,0.5-1.5c0.4-0.5,0.7-0.9,1.5-1.1c0.6-0.2,1.5-0.5,2.4-0.5
				s1.7,0.1,2.4,0.4c0.7,0.2,1.2,0.6,1.7,1.2l-1.5,1.7c-0.2-0.4-0.7-0.6-1.1-0.9c-0.4-0.2-1-0.4-1.3-0.4c-0.2,0-0.5,0-0.7,0.1
				c-0.2,0-0.4,0.1-0.5,0.2c-0.1,0.1-0.1,0.2-0.1,0.4c0,0.1,0.1,0.2,0.2,0.4c0.1,0.1,0.5,0.2,0.9,0.2l1.7,0.4c1,0.1,1.6,0.5,2.1,1
				c0.4,0.5,0.6,1,0.6,1.6s-0.1,1.1-0.5,1.6c-0.4,0.5-0.9,0.9-1.5,1.1S156.2,48.8,155.3,48.8z"/>
			<path class="st0" d="M167.7,39.5v2.2h-7.5v-2.2H167.7z M165.1,36.6v8.8c0,0.5,0.1,0.7,0.4,1c0.2,0.2,0.5,0.2,0.9,0.2
				c0.2,0,0.5,0,0.7-0.1c0.2-0.1,0.4-0.1,0.6-0.2l0.4,2c-0.2,0.2-0.7,0.4-1.1,0.5c-0.4,0.1-1,0.2-1.5,0.2c-0.7,0-1.3-0.1-1.8-0.2
				c-0.5-0.1-0.9-0.5-1.2-1c-0.2-0.4-0.4-1-0.5-1.7v-8.4L165.1,36.6z"/>
			<path class="st0" d="M169.2,48.7v-9.2h2.8l0.1,2c0.2-0.7,0.6-1.2,1-1.6c0.5-0.4,1.1-0.6,1.7-0.6c0.2,0,0.5,0,0.6,0
				c0.1,0,0.2,0.1,0.4,0.1l-0.4,2.6c-0.1,0-0.2-0.1-0.5-0.1c-0.2,0-0.4,0-0.7,0c-0.4,0-0.7,0.1-1,0.2c-0.2,0.1-0.6,0.4-0.7,0.7
				c-0.2,0.4-0.2,0.7-0.2,1.2v4.6L169.2,48.7L169.2,48.7z"/>
			<path class="st0" d="M178.6,38.4c-0.6,0-1.1-0.1-1.3-0.4c-0.2-0.2-0.5-0.6-0.5-1.1c0-0.5,0.1-0.9,0.5-1.1
				c0.2-0.2,0.7-0.4,1.3-0.4s1.1,0.1,1.3,0.4c0.2,0.2,0.5,0.6,0.5,1.1c0,0.5-0.1,0.9-0.5,1.1C179.7,38.3,179.2,38.4,178.6,38.4z
				 M180.2,39.5v9.2h-3.1v-9.2H180.2z"/>
			<path class="st0" d="M187.6,42.8c0-0.4-0.1-0.7-0.4-1c-0.2-0.2-0.6-0.4-1-0.4s-0.7,0.1-1,0.2c-0.2,0.2-0.5,0.6-0.6,1.1l-2.7-0.6
				c0.1-0.9,0.6-1.6,1.3-2.1c0.7-0.5,1.7-0.7,3.1-0.7c0.9,0,1.7,0.1,2.3,0.4c0.6,0.2,1.1,0.6,1.5,1.2c0.4,0.5,0.5,1.1,0.5,2v3.3
				c0,0.5,0.2,0.7,0.6,0.7c0.2,0,0.4,0,0.5-0.1l-0.1,1.8c-0.4,0.1-0.9,0.2-1.3,0.2c-0.5,0-0.9-0.1-1.2-0.2s-0.6-0.4-0.9-0.7
				c-0.2-0.4-0.4-0.7-0.4-1.2v-0.1l0.4-0.1c0,0.5-0.1,1-0.5,1.3s-0.7,0.6-1.2,0.7c-0.5,0.1-1,0.2-1.6,0.2s-1.2-0.1-1.6-0.2
				c-0.4-0.1-0.9-0.5-1.1-0.9c-0.2-0.4-0.4-0.9-0.4-1.3c0-0.6,0.2-1.2,0.6-1.6c0.4-0.5,1-0.7,1.8-0.9l3.4-0.7v1.6l-1.7,0.4
				c-0.4,0.1-0.6,0.1-0.9,0.4c-0.1,0.1-0.2,0.4-0.2,0.6c0,0.2,0.1,0.5,0.2,0.6c0.2,0.1,0.4,0.2,0.7,0.2c0.2,0,0.4,0,0.6-0.1
				c0.2,0,0.4-0.1,0.5-0.2c0.1-0.1,0.2-0.2,0.4-0.5c0.1-0.2,0.1-0.4,0.1-0.7v-2.6H187.6z"/>
		</g>
	</g>
	<g>
		<g>
			<path class="st0" d="M47.7,32.3v-0.5h-1.8v0.5l0.5-0.1c-0.1-0.5-0.4-1-0.6-1.5L45.4,31l0.4,0.4l1.3-1.3l0,0
				c0.1-0.1,0.1-0.2,0.2-0.2c0-0.1,0.1-0.2,0.1-0.4s0-0.2-0.1-0.4c0-0.1-0.1-0.2-0.2-0.2l-2.6-2.4l0,0c-0.1-0.1-0.2-0.1-0.2-0.2
				c-0.1,0-0.2-0.1-0.4-0.1c-0.1,0-0.2,0-0.4,0.1c-0.1,0-0.2,0.1-0.2,0.2L42,27.7l0.2,0.2l0.2-0.4c-0.5-0.2-1-0.5-1.5-0.6l-0.1,0.5
				h0.5v-0.7v-1.2c0-0.1,0-0.2-0.1-0.4c-0.1-0.1-0.2-0.2-0.4-0.4c-0.1,0-0.1-0.1-0.2-0.1c-0.1,0-0.1,0-0.2,0h-3.5
				c-0.1,0-0.2,0-0.4,0.1c-0.1,0.1-0.2,0.1-0.4,0.4c0,0.1-0.1,0.1-0.1,0.2s0,0.1,0,0.2v0.5v1.3h0.5l-0.1-0.5c-0.5,0.1-1,0.4-1.5,0.6
				l0.2,0.4l0.4-0.4l-1.3-1.3l0,0c-0.1-0.1-0.2-0.1-0.2-0.2c-0.1,0-0.2-0.1-0.4-0.1s-0.2,0-0.4,0.1c-0.1,0-0.2,0.1-0.2,0.2l-2.6,2.4
				c-0.1,0.1-0.1,0.2-0.2,0.2c0,0.1-0.1,0.2-0.1,0.4c0,0.1,0,0.2,0.1,0.4c0,0.1,0.1,0.2,0.2,0.2l0,0l1.3,1.3l0.4-0.4l-0.4-0.2
				c-0.2,0.5-0.5,1-0.6,1.5l0.5,0.1v-0.5h-1.8c-0.1,0-0.2,0-0.4,0.1C29.3,32,29.1,32,29,32.2c0,0.1-0.1,0.1-0.1,0.2
				c0,0.1,0,0.1,0,0.2v0.1v3.3l0,0c0,0.1,0,0.2,0.1,0.4c0.1,0.1,0.2,0.2,0.4,0.4c0.1,0,0.1,0.1,0.2,0.1c0.1,0,0.1,0,0.2,0h1.3v-0.5
				l-0.5,0.1c0.1,0.5,0.4,0.9,0.5,1.3c0,0,0,0.1,0.1,0.1l0.4-0.2l-0.4-0.4L30,38.8c-0.1,0.1-0.1,0.2-0.2,0.2c0,0.1-0.1,0.2-0.1,0.4
				c0,0.1,0,0.2,0.1,0.4c0,0.1,0.1,0.2,0.2,0.2l2.6,2.4l0,0c0.1,0.1,0.2,0.1,0.2,0.2c0.1,0,0.2,0.1,0.4,0.1s0.2,0,0.4-0.1
				c0.1,0,0.2-0.1,0.2-0.2l0,0l1.3-1.3l-0.4-0.4l-0.2,0.4c0.4,0.2,0.7,0.4,1.2,0.5c0.1,0,0.2,0.1,0.2,0.1l0.1-0.5h-0.5v1.8
				c0,0.1,0,0.2,0.1,0.4c0.1,0.1,0.1,0.2,0.4,0.4c0.1,0,0.1,0.1,0.2,0.1c0.1,0,0.1,0,0.2,0l0,0h3.5l0,0c0.1,0,0.2,0,0.4-0.1
				c0.1-0.1,0.2-0.2,0.4-0.4c0-0.1,0.1-0.1,0.1-0.2c0-0.1,0-0.1,0-0.2v-1.8h-0.5l0.1,0.5c0.5-0.1,1-0.4,1.5-0.6l-0.2-0.4L41.5,41
				l0.6,0.6l0.6,0.6l0,0c0.1,0.1,0.2,0.1,0.2,0.2c0.1,0,0.2,0.1,0.4,0.1s0.1,0,0.2,0c0.1,0,0.1-0.1,0.2-0.1l0.1-0.1l2.6-2.4
				c0.1-0.1,0.1-0.2,0.2-0.2c0-0.1,0.1-0.2,0.1-0.4c0-0.1,0-0.2-0.1-0.4c0-0.1-0.1-0.2-0.2-0.2l-1.3-1.3l-0.4,0.4l0.4,0.2l0.1-0.1
				c0.2-0.4,0.4-0.9,0.5-1.3l-0.5-0.1v0.5h1.8c0.1,0,0.2,0,0.4-0.1c0.1-0.1,0.2-0.1,0.4-0.4c0-0.1,0.1-0.1,0.1-0.2
				c0-0.1,0-0.1,0-0.2l0,0v-0.6v-2.4c0-0.1,0-0.2-0.1-0.4c-0.1-0.1-0.2-0.2-0.4-0.4c-0.1,0-0.1-0.1-0.2-0.1c-0.1,0-0.1,0-0.2,0
				L47.7,32.3v0.5l0,0l0,0l0,0l0,0l0,0l0,0l0,0l0,0l0,0l0,0l0,0l0,0l0,0l0,0l0,0l0,0l0,0l0,0l0,0l0,0v2.8v0.6l0,0l0,0l0,0l0,0l0,0
				l0,0l0,0l0,0l0,0l0,0l0,0l0,0l0,0l0,0l0,0l0,0l0,0l0,0l0,0l0,0l0,0l0,0l0,0l0,0l0,0h-2.2l-0.1,0.4c-0.1,0.4-0.2,0.7-0.5,1.1
				c0,0,0,0.1-0.1,0.1l-0.1,0.4l1.6,1.6l0,0l0,0l0,0l0,0l0,0l0,0l0,0l0,0l0,0l0,0l0,0l0,0l0,0l0,0l0,0l0,0l0,0l0,0l0,0l0,0l-2.6,2.4
				l0,0l0,0l0,0l0,0l0,0l0,0l0,0l0,0l0,0l0,0l0,0l0,0l0,0l0,0l0,0l0,0l0,0l0,0l0,0l0,0l0,0l0,0l0,0l0,0l0,0l0,0l-0.6-0.6l-0.9-0.9
				l-0.4,0.1c-0.4,0.2-0.9,0.4-1.3,0.5l-0.4,0.1v2.2l0,0l0,0l0,0l0,0l0,0l0,0l0,0l0,0l0,0l0,0l0,0l0,0l0,0l0,0l0,0l0,0l0,0l0,0l0,0
				l0,0l0,0l0,0l0,0l0,0l0,0h-3.5l0,0l0,0l0,0l0,0l0,0l0,0l0,0l0,0l0,0l0,0l0,0l0,0l0,0l0,0l0,0l0,0l0,0l0,0l0,0l0,0l0,0l0,0l0,0
				l0,0l0,0v-2.2l-0.4-0.1c-0.1,0-0.1,0-0.2-0.1c-0.4-0.1-0.7-0.2-1.1-0.5l-0.4-0.1l-1.6,1.6l0,0l0,0l0,0l0,0l0,0l0,0l0,0l0,0l0,0
				l0,0l0,0l0,0l0,0l0,0l0,0l0,0l0,0l0,0l0,0l0,0l0,0l0,0l-2.6-2.4l0,0l0,0l0,0l0,0l0,0l0,0l0,0l0,0l0,0l0,0l0,0l0,0l0,0l0,0l0,0
				l0,0l0,0l0,0l0,0l0,0l1.6-1.6l-0.1-0.4c0,0,0-0.1-0.1-0.1c-0.2-0.4-0.4-0.7-0.5-1.1l-0.1-0.4h-2.2l0,0l0,0l0,0l0,0l0,0l0,0l0,0
				l0,0l0,0l0,0l0,0l0,0l0,0l0,0l0,0l0,0l0,0l0,0l0,0l0,0l0,0l0,0l0,0l0,0l0,0v-3.3v-0.1l0,0l0,0l0,0l0,0l0,0l0,0l0,0l0,0l0,0l0,0
				l0,0l0,0l0,0l0,0l0,0l0,0l0,0l0,0l0,0l0,0h2.2l0.1-0.4c0.1-0.5,0.4-0.9,0.5-1.3l0.1-0.4l-1.6-1.6l0,0l0,0l0,0l0,0l0,0l0,0l0,0
				l0,0l0,0l0,0l0,0l0,0l0,0l0,0l0,0l0,0l0,0l0,0l0,0l0,0l0,0l2.6-2.4l0,0l0,0l0,0l0,0l0,0l0,0l0,0l0,0l0,0l0,0l0,0l0,0l0,0l0,0l0,0
				l0,0l0,0l0,0l0,0l0,0l1.6,1.6l0.4-0.1c0.4-0.2,0.9-0.4,1.3-0.5l0.4-0.1v-1.7v-0.4l0,0l0,0l0,0l0,0l0,0l0,0l0,0l0,0l0,0l0,0l0,0
				l0,0l0,0l0,0l0,0l0,0l0,0l0,0l0,0l0,0H40l0,0l0,0l0,0l0,0l0,0l0,0l0,0l0,0l0,0l0,0l0,0l0,0l0,0l0,0l0,0l0,0l0,0l0,0l0,0l0,0v1.2
				v1l0.4,0.1c0.5,0.1,0.9,0.4,1.3,0.5l0.4,0.1l1.6-1.6l0,0l0,0l0,0l0,0l0,0l0,0l0,0l0,0l0,0l0,0l0,0l0,0l0,0l0,0l0,0l0,0l0,0l0,0
				l0,0l0,0l0,0l2.6,2.4l0,0l0,0l0,0l0,0l0,0l0,0l0,0l0,0l0,0l0,0l0,0l0,0l0,0l0,0l0,0l0,0l0,0l0,0l0,0l0,0l0,0l-1.6,1.6l0.1,0.4
				c0.2,0.4,0.4,0.9,0.5,1.3l0.1,0.4h2.2L47.7,32.3L47.7,32.3z M34.9,34.5h0.5c0,0,0,0,0-0.1l0,0l0,0l0,0l0,0l0,0l0,0l0,0l0,0
				c0,0,0,0,0-0.1l0,0l0,0l0,0l0,0h-0.1h0.1l0,0h-0.1h0.1l0,0c0,0,0,0,0-0.1l0,0l0,0l0,0l0,0l0,0l0,0l0,0l0,0l0,0l0,0l0,0l0,0
				c0,0,0,0,0-0.1l0,0h-0.1h0.1l0,0h-0.1h0.1l0,0l0,0l0,0l0,0l0,0l0,0l0,0l0,0l0,0l0,0l0,0l0,0l0,0l0,0l0,0l0,0l0,0l0,0l0,0
				c0.1-0.4,0.2-0.6,0.5-0.9c0.2-0.4,0.7-0.7,1.1-1s1-0.4,1.5-0.4s0.9,0.1,1.2,0.2c0.6,0.2,1.1,0.6,1.5,1.2c0.1,0.2,0.4,0.5,0.4,0.9
				c0.1,0.2,0.1,0.6,0.1,1c0,0.6-0.1,1.1-0.4,1.6l0,0l0,0l0,0l0,0l0,0l0,0l0,0l0,0l0,0l0,0l0,0l0,0l0,0l0,0l0,0l0,0l0,0l0,0l0,0l0,0
				l0,0l0,0l0,0l0,0l0,0l0,0l0,0l0,0l0,0l0,0l0,0l0,0l0,0l0,0l0,0l0,0l0,0l0,0l0,0l0,0l0,0l0,0l0,0l0,0l0,0l0,0l0,0l0,0l0,0l0,0l0,0
				l0,0l0,0l0,0l0,0l0,0l0,0l0,0l0,0l0,0l0,0l0,0l0,0l0,0l0,0l0,0l0,0l0,0l0,0l0,0l0,0l0,0l0,0l0,0l0,0l0,0l0,0l0,0l0,0l0,0l0,0l0,0
				l0,0l0,0l0,0l0,0l0,0l0,0l0,0l0,0l0,0l0,0l0,0l0,0l0,0l0,0l0,0l0,0l0,0l0,0l0,0v0.1v-0.1l0,0v0.1v-0.1l0,0l0,0l0,0l0,0l0,0l0,0
				l0,0l0,0l0,0c0,0,0,0-0.1,0l0,0l0,0l0,0l0,0l0,0l0,0c0,0,0,0-0.1,0l0,0l0,0v0.1v-0.1l0,0v0.1v-0.1l0,0l0,0l0,0l0,0l0,0l0,0l0,0
				l0,0l0,0l0,0l0,0v0.1v-0.1l0,0v0.1v-0.1l0,0c0,0,0,0-0.1,0l0,0l0,0l0,0l0,0l0,0l0,0l0,0c0,0,0,0-0.1,0l0,0l0,0l0,0l0,0l0,0l0,0
				l0,0l0,0c0,0,0,0-0.1,0l0,0v0.4v-0.4l0,0v0.4v-0.4V37v-0.2l0,0V37v-0.2l0,0l0,0l0,0l0,0l0,0l0,0l0,0c0,0,0,0-0.1,0l0,0l0,0l0,0
				l0,0l0,0l0,0l0,0l0,0v0.1v-0.1l0,0v0.1v-0.1l0,0c0,0,0,0-0.1,0l0,0l0,0l0,0l0,0l0,0l0,0l0,0l0,0c0,0,0,0-0.1,0l0,0l0,0l0,0
				c0,0,0,0-0.1,0l0,0l0,0l0,0c0,0,0,0-0.1,0c-0.5,0-0.9-0.1-1.2-0.2c-0.6-0.2-1.1-0.6-1.5-1.2C37.2,35,37,34.8,37,34.4
				c-0.1-0.2-0.1-0.6-0.1-1L34.9,34.5h-0.5c0,0.6,0.1,1.1,0.4,1.6c0.4,0.7,0.9,1.3,1.6,1.8c0.4,0.2,0.7,0.4,1.1,0.5
				c0.4,0.1,0.9,0.2,1.2,0.2h0.1l0,0l0,0l0,0c0,0,0,0,0.1,0l0,0l0,0l0,0h0.1l0,0l0,0l0,0c0,0,0,0,0.1,0l0,0l0,0h0.1l0,0l0,0l0,0
				c0,0,0,0,0.1,0l0,0l0,0l0,0c0,0,0,0,0.1,0l0,0v-0.2v0.2l0,0v-0.2v0.2v-0.1v0.1l0,0v-0.1v0.1l0,0l0,0h0.1l0,0l0,0l0,0l0,0
				c0,0,0,0,0.1,0l0,0l0,0c0,0,0,0,0.1,0l0,0l0,0l0,0c0,0,0,0,0.1,0l0,0l0,0l0,0c0,0,0,0,0.1,0l0,0l0,0l0,0l0,0l0,0l0,0
				c0,0,0,0,0.1,0l0,0l0,0l0,0c0,0,0,0,0.1,0l0,0v-0.1v0.1l0,0v-0.1v0.1l0,0l0,0l0,0c0,0,0,0,0.1,0l0,0l0,0c0,0,0,0,0.1,0l0,0l0,0
				l0,0l0,0c0,0,0,0,0.1,0l0,0l0,0l0,0c0,0,0,0,0.1,0l0,0l0,0l0,0c0,0,0,0,0.1,0l0,0l0,0l0,0l0,0l0,0l0,0c0,0,0,0,0.1,0l0,0l0,0
				c0,0,0,0,0.1,0l0,0l0,0l0,0c0,0,0,0,0.1,0l0,0l0,0l0,0l0,0l0,0l0,0l0,0c0,0,0,0,0.1,0l0,0l0,0l0,0l0,0l0,0l0,0c0,0,0,0,0.1,0l0,0
				l0,0l0,0l0,0l0,0l0,0l0,0l0,0l0,0l0,0l0,0c0,0,0,0,0.1,0l0,0l0,0l0,0l0,0l0,0l0,0c0,0,0,0,0.1,0l0,0l0,0l0,0l0,0l0,0l0,0l0,0l0,0
				l0,0l0,0l0,0l0,0l0,0l0,0l0,0l0,0l0,0l0,0c0,0,0,0,0-0.1l0,0l0,0l0,0l0,0l0,0l0,0c0,0,0,0,0-0.1l0,0l0,0l0,0l0,0l0,0l0,0l0,0l0,0
				l0,0l0,0l0,0c0,0,0,0,0-0.1l0,0l0,0l0,0l0,0l0,0l0,0l0,0c0,0,0,0,0-0.1l0,0l0,0l0,0l0,0l0,0l0,0c0.4-0.6,0.5-1.2,0.5-2
				c0-0.6-0.1-1.1-0.4-1.6c-0.4-0.7-0.9-1.3-1.6-1.8c-0.4-0.2-0.7-0.4-1.1-0.5c-0.4-0.1-0.9-0.2-1.2-0.2c-0.5,0-1,0.1-1.3,0.2
				c-0.6,0.2-1.2,0.6-1.7,1c-0.5,0.5-0.9,1-1,1.7l0,0l0,0l0,0l0,0c0,0,0,0,0,0.1l0,0l0,0l0,0c0,0,0,0,0,0.1l0,0l0,0c0,0,0,0,0,0.1
				l0,0l0,0l0,0l0,0l0,0l0,0l0,0l0,0v0.1l0,0l0,0c0,0,0,0,0,0.1l0,0l0,0c0,0,0,0,0,0.1l0,0l0,0c0,0,0,0,0,0.1l0,0l0,0V36l0,0l0,0
				l0,0l0,0l0,0l0,0c0,0,0,0,0,0.1l0,0l0,0c0,0,0,0,0,0.1l0,0l0,0c0,0,0,0,0,0.1l0,0l0,0v0.1L34.9,34.5L34.9,34.5z"/>
			<path class="st0" d="M30.6,21.2l-0.4,0.2c0.7,0.9,1.6,1.5,2.4,2c1,0.5,2,0.7,2.9,0.7h0.9l-0.4-0.7l-0.5,0.2v0.5l0,0h0.7l-1.1-2.3
				l1.5,2.1l0.4-0.7c0.5-1.1,0.9-2.2,0.9-3.4c0-1-0.2-2-0.6-2.9c-0.1-0.2-0.2-0.6-0.4-0.9c-0.6-1-1.5-1.8-2.3-2.4
				c-1.2-0.9-2.7-1.2-4.2-1.2l0,0c-0.1,0-0.2,0-0.4,0h-0.2l-0.1,0.2c-0.7,1.2-1.2,2.7-1.2,4c0,0.6,0.1,1.2,0.2,2
				c0.1,0.6,0.4,1.2,0.7,1.8c0.2,0.4,0.5,0.7,0.7,1L30.6,21.2l0.4-0.2c-0.2-0.2-0.5-0.6-0.6-0.9c-0.2-0.5-0.5-1.1-0.7-1.6
				c-0.1-0.6-0.2-1.1-0.2-1.7c0-1.2,0.4-2.4,1.1-3.5L30.1,13v0.5c0.1,0,0.2,0,0.2,0l0,0c1.3,0,2.6,0.4,3.7,1.1
				c0.9,0.5,1.6,1.2,2.1,2.2c0.1,0.2,0.2,0.5,0.4,0.7c0.4,0.9,0.5,1.7,0.5,2.6c0,1-0.2,2.1-0.7,2.9l0.4,0.2L37,23l-4.3-6l-0.9,0.5
				l3.2,6.6l0.5-0.2v-0.5l0,0h-0.9l0.4,0.7l0.5-0.2v-0.5c-0.9,0-1.8-0.2-2.6-0.7c-0.9-0.4-1.6-1-2.2-1.7L30.6,21.2z"/>
			<path class="st0" d="M25.5,23.4l-0.2,0.5l6.7,3.2v-0.7c-0.1-1.3-0.6-2.7-1.5-3.8l0,0l0,0l0,0c-0.1-0.1-0.1-0.2-0.2-0.4l0,0l0,0
				l0,0c0,0,0-0.1-0.1-0.1l0,0l0,0l0,0c0-0.1-0.1-0.1-0.2-0.2l0,0l0,0l0,0c0,0,0,0-0.1-0.1l0,0l0,0c0,0,0,0-0.1-0.1l0,0l0,0l0,0l0,0
				l-0.1-0.1l0,0l0,0l-0.2,0.4l0.4-0.4c0,0-0.1,0-0.1-0.1l0,0l0,0l0,0c0,0,0,0-0.1-0.1l0,0l0,0l0,0c-0.1,0-0.1-0.1-0.2-0.1l0,0l0,0
				l0,0c0,0,0,0-0.1-0.1l0,0l0,0c0,0-0.1,0-0.1-0.1l0,0v0.1v-0.1l0,0v0.1v-0.1l0,0l0,0l0,0c0,0-0.1,0-0.1-0.1l0,0l0,0l0,0l0,0
				l-0.1,0.1l0.1-0.1l0,0l-0.1,0.1l0.1-0.1l0,0c0,0-0.1,0-0.1-0.1l0,0l0,0l0,0h-0.1l0,0l0,0c0,0-0.1,0-0.1-0.1
				c-0.5-0.4-1.1-0.5-1.7-0.7c-0.6-0.1-1.1-0.2-1.7-0.2c-0.5,0-0.9,0-1.3,0.1c-0.9,0.1-1.6,0.5-2.3,1l-0.2,0.1v0.2c0,0,0,0,0,0.1
				l0,0l0,0c0,0,0,0,0,0.1l0,0l0,0l0,0c0,0,0,0,0,0.1l0,0l0,0l0,0c0,0,0,0,0,0.1l0,0l0,0l0,0l0,0l0,0c0,0,0,0,0,0.1l0,0l0,0l0,0l0,0
				c0,0,0,0,0,0.1l0,0l0,0c0,0,0,0,0,0.1l0,0l0,0v0.1l0,0l0,0c0,0.1,0,0.2,0,0.4l0,0l0,0l0,0l0,0l0,0v0.1l0,0l0,0l0,0v0.1l0,0l0,0
				l0,0v0.1l0,0l0,0l0,0v0.1l0,0l0,0l0,0v0.1l0,0l0.2-0.1l-0.2,0.1l0,0l0.2-0.1l-0.2,0.1h0.1h-0.1l0,0h0.1h-0.1l0,0l0.1,0.4h0.4
				v-0.5l-0.5,0.1c0.2,0.9,0.6,1.7,1.1,2.3s1.2,1.3,2.1,1.8c0.5,0.4,1.1,0.5,1.7,0.7c0.6,0.1,1.1,0.2,1.7,0.2c1.1,0,2.2-0.2,3.1-0.7
				l0.7-0.4l-6.1-4.2L25.5,23.4l-0.2,0.5L25.5,23.4l-0.2,0.4l5.5,3.8l0.2-0.4l-0.2-0.4c-0.9,0.4-1.7,0.6-2.7,0.6
				c-0.5,0-1-0.1-1.5-0.2c-0.5-0.1-1-0.4-1.5-0.6c-0.7-0.4-1.3-1-1.8-1.6c-0.5-0.6-0.9-1.3-1-2.1l-0.1-0.4h-0.4V23l0.5-0.1L22,23
				l0.2-0.1l0,0L22,23l0.2-0.1h-0.1h0.1l0,0h-0.1h0.1l0,0l0,0l0,0v-0.1l0,0l0,0l0,0c0,0,0,0,0-0.1l0,0l0,0l0,0c0,0,0,0,0-0.1l0,0
				l0,0l0,0l0,0l0,0c0,0,0,0,0-0.1l0,0l0,0l0,0v-0.1l0,0l0,0l0,0l0,0h-0.1h0.1l0,0h-0.1h0.1l0,0c0-0.1,0-0.2,0-0.4l0,0l0,0l0,0
				c0,0,0,0,0-0.1l0,0l0,0l0,0c0,0,0,0,0-0.1l0,0l0,0l0,0l0,0l0,0l0,0l0,0l0,0l0,0l0,0l0,0l0,0l0,0l0,0l0,0l0,0l0,0l0,0l0,0l0,0l0,0
				c0,0,0,0,0-0.1h-0.5l0.2,0.4c0.6-0.4,1.3-0.6,2.1-0.9c0.4-0.1,0.7-0.1,1.2-0.1s1,0.1,1.5,0.2c0.5,0.1,1,0.4,1.5,0.6h0.1l0,0l0,0
				c0,0,0,0,0.1,0l0,0l0,0l0,0c0,0,0,0,0.1,0l0,0l0,0l0,0l0,0c0,0,0.1,0,0.1,0.1l0,0l0.1-0.1l-0.1,0.1l0,0l0.1-0.1l-0.1,0.1l0,0l0,0
				l0,0c0,0,0,0,0.1,0l0,0l0,0c0,0,0,0,0.1,0l0,0l0,0l0.1,0.1l0,0l0,0l0,0c0,0,0,0,0.1,0.1l0,0l0,0l0,0c0,0,0,0,0.1,0.1l0,0l0,0
				l0.2-0.4l-0.4,0.4c0,0,0,0,0.1,0.1l0,0l0,0l0,0l0,0c0,0,0,0,0.1,0.1l0,0l0,0c0,0,0,0,0.1,0.1l0,0l0,0l0,0l0,0l0,0l0,0l0,0l0,0
				l0,0l0,0l0.1,0.1l0,0l0,0l0,0c0,0,0,0,0.1,0.1l0,0l0,0l0,0C30,23,30,23,30.1,23.2l0,0l0,0l0,0c0.7,1,1.1,2.1,1.2,3.3h0.5l0.2-0.5
				l-6-2.8L25.6,24L25.5,23.4z"/>
			<path class="st0" d="M23.9,27.2l0.1-0.5c-0.2-0.1-0.6-0.1-0.9-0.1c-0.5,0-0.9,0.1-1.3,0.2c-0.5,0.1-0.7,0.5-1.1,0.7l-0.1,0.1v0.2
				c0.1,0.6,0.4,1.1,0.9,1.5c0.2,0.2,0.5,0.4,0.7,0.5c0.2,0.1,0.5,0.2,0.9,0.4c0.2,0.1,0.6,0.1,0.9,0.1c0.4,0,0.9-0.1,1.1-0.2
				c0.4-0.1,0.7-0.4,1-0.6l0.6-0.5l-3.4-1.2L23,28.3l-0.1,0.5l3.7,0.6l-0.2-0.7c-0.1-0.5-0.5-1-0.9-1.3c-0.4-0.4-0.9-0.6-1.3-0.7
				L23.9,27.2l-0.1,0.5c0.4,0.1,0.7,0.2,1,0.5c0.2,0.2,0.5,0.6,0.6,1l0.5-0.1l0.1-0.5L23.1,28l-0.2,0.9l2.7,1l0.1-0.5L25.4,29
				c-0.2,0.1-0.5,0.4-0.7,0.4c-0.2,0.1-0.5,0.1-0.9,0.1c-0.2,0-0.4,0-0.6-0.1c-0.2,0-0.4-0.1-0.6-0.2c-0.2-0.1-0.5-0.4-0.7-0.6
				c-0.1-0.2-0.2-0.5-0.4-0.9l-0.5,0.1l0.4,0.4c0.2-0.2,0.5-0.4,0.7-0.5c0.2-0.1,0.6-0.2,1-0.2c0.2,0,0.4,0,0.6,0.1L23.9,27.2z"/>
			<path class="st0" d="M18.9,25.5l-0.4,0.2c0.2,0.5,0.7,0.9,1.1,1.1c0.5,0.2,1,0.4,1.5,0.5h0.9L20.3,24l-0.5,0.2l-0.4,0.2l2.1,2.9
				l0.4-0.7c0.2-0.5,0.4-1,0.4-1.5c0-0.2,0-0.5-0.1-0.9c-0.1-0.2-0.1-0.5-0.4-0.7c-0.2-0.4-0.5-0.6-0.7-0.9l-0.2,0.4l0.1,0.5l0,0
				l1-0.2l-0.7-0.6l0,0l0,0l0,0l0,0l0,0l0,0l0,0l0,0l0,0l0,0l0,0c0,0,0,0-0.1,0l0,0c0,0,0,0-0.1,0l0,0l0,0l0,0c0,0,0,0-0.1,0l0,0
				l0,0c0,0,0,0-0.1,0l0,0l0,0l0,0l0,0c0,0,0,0-0.1,0l0,0l0,0l0,0c0,0,0,0-0.1,0l0,0l0,0l0,0c0,0,0,0-0.1,0l0,0l0,0l0,0
				c0,0,0,0-0.1,0l0,0l0,0l0,0c0,0,0,0-0.1,0l0,0l0,0c0,0,0,0-0.1,0l0,0l0,0l0,0c0,0,0,0-0.1,0l0,0l0,0l0,0c0,0,0,0-0.1,0l0,0l0,0
				c0,0,0,0-0.1,0l0,0l0,0l0,0c0,0,0,0-0.1,0l0,0l0,0l0,0l0,0c0,0,0,0-0.1,0l0,0l0,0l0,0c0,0,0,0-0.1,0l0,0l0,0h-0.1l0,0l0,0l0,0
				v0.1v-0.1l0,0v0.1v-0.1c0,0,0,0-0.1,0l0,0h-0.1l0,0l0,0l0,0l0,0V23v-0.2l0,0V23v-0.2c0,0,0,0-0.1,0l0,0l0,0l0,0h-0.1h-0.2
				L18.3,23c0,0,0,0,0,0.1l0,0l0,0l0,0l0,0l0,0l0,0l0,0l0,0l0,0l0,0l0,0l0,0l0,0l0,0c0,0,0,0,0,0.1l0,0l0,0l0,0l0,0l0,0l0,0l0,0l0,0
				l0,0l0,0l0,0l0,0l0,0l0,0l0,0l0,0l0,0c0,0,0,0,0,0.1l0,0l0,0l0,0l0,0l0,0l-0.1,0.7l0.7-0.2l-0.1-0.5h-0.5c0,0.1,0,0.2,0,0.4
				c0,0.2,0,0.5,0.1,0.9c0.1,0.2,0.1,0.5,0.4,0.7L18.9,25.5l0.4-0.2c-0.1-0.1-0.1-0.4-0.2-0.6c0-0.2-0.1-0.4-0.1-0.6
				c0-0.1,0-0.1,0-0.2L19,23l-0.7,0.2l0.1,0.5h0.5l0,0l0,0l0,0l0,0l0,0l0,0l0,0l0,0l0,0l0,0l0,0l0,0l0,0l0,0l0,0l0,0l0,0l0,0l0,0
				l0,0l0,0l0,0l0,0l0,0l0,0l0,0l0,0l0,0l0,0l0,0c0,0,0,0,0-0.1l0,0l0,0l0,0l0,0l0,0l0,0l0,0l0,0l0,0l0,0l0,0l0,0l0,0l0,0l0,0
				l-0.4-0.2v0.5c0,0,0,0,0.1,0l0,0l0,0l0,0l0,0l0,0l0,0v-0.2v0.2l0,0v-0.2v0.2l0,0c0,0,0,0,0.1,0l0,0l0,0l0,0l0,0v-0.1v0.1l0,0
				v-0.1v0.1c0,0,0,0,0.1,0l0,0l0,0l0,0l0,0l0,0l0,0l0,0l0,0l0,0l0,0l0,0l0,0l0,0c0,0,0,0,0.1,0l0,0l0,0l0,0l0,0l0,0l0,0l0,0
				c0,0,0,0,0.1,0l0,0l0,0l0,0l0,0l0,0l0,0c0,0,0,0,0.1,0l0,0l0,0l0,0l0,0l0,0l0,0l0,0l0,0l0,0l0,0l0,0l0,0l0,0l0,0l0,0l0,0l0,0
				v-0.1v0.1l0,0v-0.1v0.1l0,0l0,0l0,0l0,0l0,0l0,0l0,0l0,0l0,0l0,0l0,0l0,0l0,0l0,0l0,0l0,0l0,0l0,0l0,0l0,0l0,0l0,0l0,0l0,0l0,0
				l0,0l0,0l0,0l0,0l0,0l0,0l0.1-0.1l-0.1,0.1l0,0l0.1-0.1l-0.1,0.1l0,0l0,0l0.2-0.4L19.4,23l0,0l-1,0.2l0.7,0.6
				c0.2,0.1,0.4,0.4,0.5,0.6c0.1,0.1,0.1,0.4,0.2,0.6c0,0.2,0.1,0.4,0.1,0.6c0,0.4-0.1,0.7-0.2,1l0.4,0.2l0.4-0.2l-1.6-2.3L18,24.9
				l1.2,2.6l0.5-0.2v-0.5c-0.4,0-0.7-0.1-1.1-0.4c-0.4-0.2-0.6-0.5-0.7-0.9L18.9,25.5z"/>
			<path class="st0" d="M58.3,34.4l0.2,0.4l0,0l0,0l0,0l0,0c0,0,0.1,0,0.1-0.1l0,0l0,0l0,0c0.1,0,0.1-0.1,0.2-0.1l0,0l0,0l0,0l0,0
				c0,0,0.1,0,0.1-0.1l0,0l0,0l0,0c0.1,0,0.1-0.1,0.2-0.1l0,0l0,0l0,0c0.1,0,0.1-0.1,0.2-0.1l0,0l0,0l0,0l0,0L59.4,34l0.1,0.1l0,0
				L59.4,34l0.1,0.1l0,0c0,0,0.1,0,0.1-0.1l0,0l0,0c0.1-0.1,0.1-0.1,0.2-0.2l0,0l0,0l0,0l0.1-0.1l0,0l0,0l0,0l0,0l0,0l0,0l0,0l0,0
				c0.6-0.5,1.1-1.2,1.5-2l0.1-0.2l-0.1-0.2c-0.6-1.1-1.5-2-2.4-2.7c-0.5-0.4-1.1-0.6-1.7-0.7c-0.6-0.1-1.2-0.2-2-0.2
				c-1.2,0-2.3,0.4-3.3,0.9c-1,0.5-1.8,1.3-2.4,2.2l-0.5,0.6l1.8,0.1l-1.8,0.1l0.5,0.6c0.6,0.9,1.3,1.6,2.2,2.1l0.2-0.4l-0.1-0.5
				l0,0l-1,0.4l0.9,0.5l0,0h0.1l0,0l0,0l0,0l0,0H52l0,0l0,0l0,0l0,0c0.2,0.1,0.5,0.2,0.7,0.4l0,0l0,0l0,0h0.1l0,0l0,0l0,0
				c0,0,0,0,0.1,0l0,0l0,0l0,0l0,0c0,0,0,0,0.1,0l0,0l0,0l0,0c0,0,0,0,0.1,0l0,0l0,0l0,0l0,0c0,0,0,0,0.1,0l0,0l0,0l0,0
				c0,0,0,0,0.1,0l0,0l0,0l0,0c0,0,0,0,0.1,0l0,0l0,0c0,0,0,0,0.1,0l0,0l0,0l0,0h0.1l0,0v-0.2v0.2l0,0v-0.2v0.2l0,0l0,0l0,0
				c0.1,0,0.1,0,0.2,0l0,0l0,0l0,0v-0.1v0.1l0,0v-0.1v0.1l0,0h0.1l0,0l0,0l0,0c0,0,0,0,0.1,0l0,0l0,0l0,0l0,0c0,0,0,0,0.1,0l0,0l0,0
				c0,0,0,0,0.1,0l0,0l0,0l0,0l0,0c0,0,0,0,0.1,0l0,0l0,0l0,0c0,0,0,0,0.1,0l0,0l0,0l0,0c0,0,0,0,0.1,0l0,0l0,0l0,0c0,0,0,0,0.1,0
				l0,0l0,0l0,0l0,0c0,0,0,0,0.1,0l0,0l0,0c0,0,0,0,0.1,0l0,0l0,0c0,0,0,0,0.1,0l0,0l0,0l0,0h0.1h0.1l0,0l0,0l0,0h0.1l0,0l0,0l0,0
				h0.1l0,0l0,0l0,0h0.1l0,0l0,0l0,0h0.1l0,0l0,0l0,0l0,0h0.1l0,0l0,0h0.1l0,0l0,0l0,0h0.1l0,0l0,0l0,0h0.1l0,0l0,0h0.1l0,0l0,0l0,0
				h0.1l0,0l0,0l0,0l0,0H57l0,0l0,0h0.1l0,0l0,0l0,0l0,0h0.1l0,0l0,0l0,0l0,0h0.1l0,0l0,0l0,0c0.1,0,0.2-0.1,0.2-0.1l0,0l0,0l0,0
				h0.1l0,0l-0.1-0.1l0.1,0.1l0,0l-0.1-0.1l0.1,0.1l0,0l0,0l0,0l0,0l0,0l0,0l0,0c0,0,0.1,0,0.1-0.1l0,0L58.3,34.4L58.1,34H58l0,0
				l0,0v0.1V34l0,0v0.1V34l0,0l0,0h-0.1l0,0l0,0l0,0c-0.1,0-0.1,0.1-0.2,0.1l0,0l0,0l0,0l0,0l0,0h-0.1l0,0l0,0l0,0h-0.1l0,0l0,0l0,0
				l0,0h-0.1l0,0l0,0h-0.1l0,0l0,0l0,0H57l0,0l0,0l0,0h-0.1l0,0l0,0h-0.1l0,0l0,0l0,0h-0.1l0,0l0,0l0,0h-0.1l0,0l0,0h-0.1l0,0l0,0
				l0,0l0,0h-0.1l0,0l0,0l0,0h-0.1l0,0l0,0l0,0h-0.1l0,0l0,0l0,0h-0.1l0,0l0,0l0,0h-0.1h-0.1l0,0l0,0l0,0l0,0c0,0,0,0-0.1,0l0,0l0,0
				l0,0l0,0l0,0l0,0l0,0l0,0l0,0l0,0l0,0l0,0l0,0l0,0l0,0l0,0l0,0l0,0l0,0l0,0l0,0l0,0l0,0l0,0l0,0l0,0l0,0l0,0l0,0l0,0
				c0,0,0,0-0.1,0l0,0l0,0l0,0c0,0,0,0-0.1,0l0,0l0,0l0,0c0,0,0,0-0.1,0l0,0l0,0l0,0l0,0v0.1v-0.1l0,0v0.1v-0.1l0,0
				c-0.1,0-0.1,0-0.2,0l0,0v0.2v-0.2l0,0v0.2v-0.2l0,0l0,0l0,0l0,0l0,0l0,0l0,0c0,0,0,0-0.1,0l0,0l0,0l0,0c0,0,0,0-0.1,0l0,0l0,0
				l0,0c0,0,0,0-0.1,0l0,0l0,0l0,0c0,0,0,0-0.1,0l0,0l0,0l0,0c0,0,0,0-0.1,0l0,0l0,0l0,0l0,0c0,0,0,0-0.1,0l0,0l0,0c0,0,0,0-0.1,0
				l0,0l0,0l0,0c0,0,0,0-0.1,0l0,0l0,0l0,0l0,0c0,0,0,0-0.1,0l0,0l0,0l0,0c-0.2-0.1-0.4-0.2-0.6-0.2l0,0l0,0l0,0c0,0,0,0-0.1,0l0,0
				l0,0l0,0c0,0,0,0-0.1,0l0,0l0,0l-0.2,0.4l0.1,0.5l0,0l1-0.4L53,33.9c-0.7-0.5-1.5-1.1-2-1.8l-0.4,0.2v0.5l6.6-0.6v-1l-6.6-0.6
				v0.5l0.4,0.2c0.5-0.9,1.2-1.5,2.1-2c0.9-0.5,1.8-0.7,2.8-0.7c0.6,0,1.1,0.1,1.6,0.2c0.7,0.2,1.5,0.6,2.1,1.1
				c0.6,0.5,1.1,1.1,1.5,1.8l0.4-0.2l-0.4-0.2c-0.4,0.6-0.7,1.2-1.2,1.6l0,0l0.1,0.1l-0.1-0.1l0,0l0.1,0.1l-0.1-0.1l0,0l0,0
				c0,0-0.1,0-0.1,0.1l0,0l0,0l0,0c-0.1,0-0.1,0.1-0.2,0.1l0,0l0,0c0,0-0.1,0-0.1,0.1l0,0l0,0l0,0l0,0l0.1,0.1l-0.1-0.1l0,0l0.1,0.1
				l-0.1-0.1l0,0l0,0c-0.1,0-0.1,0.1-0.2,0.1l0,0l0,0l0,0l0,0c-0.1,0-0.1,0.1-0.2,0.1l0,0l0,0l0,0c0,0-0.1,0-0.1,0.1l0,0l0,0l0,0
				c-0.1,0-0.1,0.1-0.2,0.1l0,0l0,0l0,0l0,0h-0.1l0,0l0,0l0,0l0,0l0,0l0,0l0,0l0,0l0,0L58.3,34.4z"/>
			<path class="st0" d="M25.8,38.3l-0.1-0.5l-1,0.1l0.1,0.5l0.1,0.5l2.6-0.9l-0.6-0.5l0,0c-0.2-0.1-0.5-0.2-0.7-0.4
				c-0.2-0.1-0.5-0.1-0.7-0.1c-0.2,0-0.4,0-0.6,0.1l0,0c-0.4,0.1-0.7,0.2-1,0.5c-0.2,0.2-0.5,0.6-0.6,0.9l0.5,0.1l-0.5-0.1l0,0l0,0
				l0,0l0,0l0,0l0,0l0.2,0.1l-0.2-0.1l0,0l0.2,0.1l-0.2-0.1c0,0.1,0,0.1,0,0.2v0.2l0.2,0.1l0.4-0.4l-0.5-0.1l0,0v0.2l0.1,0.2
				c0.1,0.1,0.2,0.2,0.5,0.4l0,0c0.4,0.2,0.7,0.4,1.2,0.4c0.2,0,0.4,0,0.6-0.1l0,0c0.4-0.1,0.7-0.2,1-0.5c0.2-0.2,0.5-0.6,0.6-1
				l0.2-0.7l-0.7,0.1l0.1,0.5l0.5,0.1l0,0l0.2-0.7l-1.7,0.2l0,0L25.8,38.3l0.1,0.5l0.9-0.1l-0.1-0.5l-0.5-0.1l0,0L26,38.8l0.7-0.1
				l-0.1-0.5l-0.5-0.1c-0.1,0.2-0.1,0.4-0.4,0.5c-0.1,0.1-0.4,0.2-0.6,0.4l0,0c-0.1,0-0.2,0-0.4,0c-0.2,0-0.5-0.1-0.7-0.2l0,0
				c-0.1-0.1-0.2-0.1-0.2-0.2l-0.4,0.4l0.5,0.1l0,0v-0.2l-0.2-0.2l-0.4,0.4l0.5,0.1v-0.1l0,0l0,0l-0.2-0.1l0.2,0.1l0,0l-0.2-0.1
				l0.2,0.1l-0.5-0.1l0.5,0.1l0,0l0,0l0,0c0.1-0.2,0.1-0.4,0.4-0.5c0.1-0.1,0.4-0.2,0.6-0.4l0,0c0.1,0,0.2,0,0.4,0s0.4,0,0.5,0.1
				c0.1,0,0.2,0.1,0.4,0.2l0,0l0.4-0.4l-0.1-0.5l-1.7,0.6l0.2,0.9l1-0.1l0,0L25.8,38.3z"/>
			<path class="st0" d="M44.4,15.2l-0.5-0.1l-1.5,8.1l0.7-0.2l-0.1-0.5l-0.5-0.1l0,0L42.5,23l0.7-0.2c0.7-0.2,1.6-0.6,2.2-1.1
				c0.6-0.5,1.2-1.1,1.7-1.7c0.5-0.7,0.9-1.5,1.1-2.3c0.1-0.6,0.2-1.3,0.2-2c0-1.1-0.2-2.1-0.6-3.1s-1.1-1.8-1.8-2.6l-0.1-0.1h-0.2
				c-0.6,0.1-1.3,0.4-1.8,0.7c-1.1,0.6-2.1,1.5-2.8,2.4c-0.5,0.7-0.9,1.5-1.1,2.3c-0.1,0.6-0.2,1.2-0.2,2l0,0c0,1,0.1,1.8,0.5,2.7
				c0.4,0.9,0.9,1.6,1.5,2.3l0.5,0.6l2.8-7.7L44.4,15.2l-0.5-0.1L44.4,15.2l-0.5-0.1l-2.6,7l0.5,0.1l0.4-0.4c-0.5-0.6-1-1.2-1.2-2.1
				c-0.2-0.7-0.5-1.6-0.5-2.3l0,0c0-0.5,0.1-1.1,0.2-1.7c0.2-0.7,0.5-1.3,1-2c0.6-0.9,1.5-1.6,2.4-2.2c0.5-0.2,1.1-0.5,1.6-0.6
				l-0.1-0.5l-0.4,0.4c0.7,0.6,1.2,1.3,1.6,2.2c0.4,0.9,0.6,1.7,0.6,2.7c0,0.6-0.1,1.1-0.2,1.7c-0.2,0.7-0.5,1.5-1,2
				c-0.4,0.6-1,1.1-1.5,1.6c-0.6,0.5-1.2,0.7-2,1l0.1,0.5l0.5,0.1l0,0l0.1-0.9l0,0l1.2-6.5l-1-0.2L44.4,15.2z"/>
			<path class="st0" d="M49,21.3l-0.4-0.4l-0.1,0.1l0,0l0,0l0,0c-0.1,0.1-0.1,0.1-0.2,0.2l0,0l0,0l0,0l-0.1,0.1l0,0l0,0l0,0L48,21.6
				l0,0l0,0l0.4,0.2L48,21.6c-0.9,1.2-1.3,2.6-1.5,4v0.7l2.3-1.1l-2.1,1.5l0.7,0.4c1.1,0.5,2.2,0.9,3.4,0.9c0.6,0,1.3-0.1,2-0.2
				c0.6-0.1,1.2-0.4,1.8-0.7c1.2-0.6,2.1-1.6,2.7-2.7c0.6-1.1,1-2.3,1.1-3.5l0,0l0,0l0,0l0,0c0-0.1,0-0.2,0-0.2l0,0l0,0l0,0l0,0l0,0
				l0,0l0,0l0,0c0,0,0,0,0-0.1l0,0l0,0l0,0l0,0v-0.1V20l-0.2-0.1c-1.2-0.7-2.7-1.2-4.2-1.2c-0.6,0-1.3,0.1-2,0.2
				c-0.6,0.1-1.2,0.4-1.8,0.7l0,0l-0.1,0.1l0,0l0,0l0,0c0,0-0.1,0-0.1,0.1l0,0l0,0l0,0c0,0-0.1,0-0.1,0.1l0,0l0,0l-0.1,0.1l0,0l0,0
				l0,0l0,0l-0.1,0.1l0,0l0,0l0,0l0.1,0.1l-0.1-0.1l0,0l0.1,0.1l-0.1-0.1l0,0l-0.1,0.1l0,0l0,0l0,0l-0.1,0.1l0,0l0,0l0,0l-0.1,0.1
				l0,0l0,0l0,0l0,0l-0.1,0.1l0,0l0,0l0,0l-0.1,0.1l0,0l0,0l0,0L49,20.9l0,0l0,0l0,0L49,21.3l0.4,0.4l0,0l0,0l0.1-0.1l0,0l0,0l0,0
				l0.1-0.1l0,0l0,0l0,0l0.1-0.1l0,0l0,0l0,0l0,0l0.1-0.1l0,0l0,0l0,0l0.1-0.1l0,0l0,0l0,0l0,0l0.1-0.1l0,0l0,0l0,0l0,0l0,0l0,0l0,0
				l0,0l0,0l-0.1-0.1l0.1,0.1l0,0l-0.1-0.1l0.1,0.1l0,0c0,0,0.1,0,0.1-0.1l0,0l0,0l0,0c0,0,0.1,0,0.1-0.1l0,0l0,0l0,0
				c0,0,0.1,0,0.1-0.1l0,0l0,0l0,0c0,0,0.1,0,0.1-0.1l0,0l0,0l0,0c0,0,0.1,0,0.1-0.1l0,0c0.5-0.2,1.1-0.5,1.6-0.6
				c0.6-0.1,1.1-0.2,1.7-0.2c1.2,0,2.6,0.4,3.5,1.1l0.2-0.4h-0.5v0.1l0,0l0,0l0,0l0,0l0,0l0,0l0,0l0,0l0,0l0,0l0,0l0,0
				c0,0.1,0,0.1,0,0.2l0,0l0,0l0,0c0,1.1-0.4,2.1-1,3.1c-0.6,1-1.3,1.7-2.4,2.3c-0.5,0.2-1.1,0.5-1.6,0.6c-0.6,0.1-1.1,0.2-1.7,0.2
				c-1.1,0-2.1-0.2-3.1-0.7l-0.2,0.4l0.2,0.4l6.1-4.2l-0.5-0.9L46.4,25l0.2,0.5h0.5c0.1-1.2,0.5-2.6,1.3-3.5l0,0l0,0l-0.4-0.2
				l0.4,0.2l0.1-0.1l0,0l0,0l0,0l0.1-0.1l0,0l0,0l0,0c0.1-0.1,0.1-0.1,0.2-0.2l0,0l0,0l0,0l0.1-0.1l0,0L49,21.3z"/>
			<path class="st0" d="M25.5,35.4l0.4,0.2c0.4-0.5,0.6-1.1,0.9-1.7l0.2-0.7l-2.6,0.5l2.4-0.9l-0.6-0.5c-0.7-0.6-1.5-1.1-2.3-1.5
				c-0.9-0.4-1.8-0.5-2.7-0.5c-0.6,0-1.3,0.1-2,0.2c-0.7,0.2-1.5,0.5-2.1,0.9c-0.6,0.4-1.2,0.9-1.6,1.3l0.4,0.4v-0.5l0,0h-0.2
				l-0.2,0.1l0,0l0,0l0,0l0,0l0,0l0,0l0,0l0,0l0,0l0,0c0,0,0,0-0.1,0.1l0,0l0,0l0,0c0,0,0,0-0.1,0.1l0,0l0,0l0,0c0,0,0,0-0.1,0.1
				l0,0l0,0l0,0l0,0l0,0l0,0l0,0l0,0l0.1,0.1l-0.1-0.1l0,0l0.1,0.1l-0.1-0.1l0,0l0,0c-0.2,0.2-0.5,0.6-0.6,0.9l0,0l0,0l0,0l0,0v0.1
				l0,0l0,0l0,0c0,0,0,0,0,0.1l0,0l0,0c0,0,0,0,0,0.1l0,0l0,0c0,0,0,0,0,0.1l0,0l0,0l0,0c0,0,0,0,0,0.1l0,0l0,0c0,0,0,0,0,0.1l0,0
				l0,0c0,0,0,0,0,0.1l0,0l0,0c0,0,0,0,0,0.1l0,0l0,0c0,0,0,0,0,0.1l0,0c0,0,0,0,0,0.1l0,0l0,0c0,0,0,0,0,0.1l0,0l0,0c0,0,0,0,0,0.1
				l0,0l0,0c0,0,0,0,0,0.1l0,0l0,0c0,0,0,0,0,0.1l0,0c0,0,0,0,0,0.1l0,0l0,0l0,0l0,0c0,0,0,0,0,0.1l0,0l0,0l0,0c0,0,0,0,0,0.1l0,0
				l0,0l0,0c0,0,0,0,0,0.1l0,0v0.1v0.2l0.1,0.1c0.7,0.7,1.6,1.3,2.6,1.8s2,0.6,3.1,0.6c0.2,0,0.5,0,0.7,0c0.4,0,0.9-0.1,1.2-0.2
				c1-0.2,1.8-0.6,2.6-1.2c0.7-0.5,1.3-1.2,1.8-2L25.5,35.4l-0.4-0.2c-0.5,0.6-1,1.2-1.6,1.7c-0.6,0.5-1.3,0.9-2.2,1.1
				c-0.4,0.1-0.7,0.1-1.1,0.2c-0.2,0-0.5,0-0.6,0c-1,0-1.8-0.2-2.7-0.6c-0.9-0.4-1.6-0.9-2.2-1.6l-0.4,0.4l0.5,0.1v-0.1l0,0
				c0,0,0,0,0-0.1l0,0l0,0l0,0l0,0l0,0l0,0l0,0l0,0l0,0l0,0l0,0l0,0l0,0l0,0l0,0l0,0l0,0l0,0l0,0l0,0l0,0l0,0l0,0l0,0l0,0l0,0l0,0
				l0,0c0,0,0,0,0-0.1l0,0l0,0c0,0,0,0,0-0.1l0,0l0,0c0,0,0,0,0-0.1l0,0l0,0c0,0,0,0,0-0.1l0,0l0,0c0,0,0,0,0-0.1l0,0l0,0l0,0
				c0,0,0,0,0-0.1l0,0l0,0c0,0,0,0,0-0.1l0,0l0,0c0,0,0,0,0-0.1l0,0l0,0l0,0l0,0c0,0,0,0,0-0.1l0,0l0,0l0,0l0,0
				c0.1-0.2,0.4-0.5,0.5-0.7l0,0l0,0l0,0l-0.1-0.1l0.1,0.1l0,0l-0.1-0.1l0.1,0.1l0,0c0,0,0,0,0-0.1l0,0l0,0l0,0c0,0,0,0,0-0.1l0,0
				l0,0l0,0c0,0,0,0,0-0.1l0,0l0,0l0,0l0,0l0,0l0,0l0,0l0,0l0,0L15,33.7v0.5l0,0h0.2l0.1-0.1c0.4-0.5,0.9-0.9,1.5-1.2
				c0.5-0.4,1.1-0.6,1.8-0.7c0.6-0.1,1.1-0.2,1.7-0.2c0.9,0,1.6,0.1,2.4,0.5c0.7,0.2,1.5,0.7,2.1,1.2l0.4-0.4l-0.1-0.5l-7,2.4
				l0.2,0.9l7.3-1.3l-0.1-0.5L25.1,34c-0.1,0.5-0.5,1.1-0.7,1.6L25.5,35.4z"/>
			<path class="st0" d="M56.2,35.8l0.1-0.5c-0.2-0.1-0.6-0.1-0.9-0.1c-0.1,0-0.2,0-0.4,0l0,0l0,0l0,0l0,0v0.2v-0.2l0,0v0.2v-0.2l0,0
				c-0.6,0.1-1.2,0.4-1.7,0.7l-0.6,0.5l0.7,0.2l0.1-0.5l-0.4-0.4l0,0l-0.6,0.5l3.4,1.2l0.1-0.5l0.1-0.5l-1.5-0.2l-2.2-0.4l0.1,0.7
				l0.5-0.1l0.1-0.5l0,0l-0.9-0.1l0.2,0.7c0.1,0.5,0.5,1,0.9,1.3s0.9,0.6,1.3,0.7l0,0c0.2,0.1,0.5,0.1,0.7,0.1l0,0
				c0.2,0,0.4,0,0.6,0c0.4-0.1,0.7-0.2,1.1-0.4c0.2-0.1,0.5-0.4,0.7-0.6l0.1-0.1v-0.2c-0.1-0.6-0.4-1.1-0.9-1.5
				c-0.2-0.2-0.5-0.4-0.7-0.5c-0.2-0.1-0.5-0.2-0.9-0.4l0,0L56.2,35.8l-0.1,0.5c0.2,0,0.4,0.1,0.6,0.2s0.5,0.4,0.7,0.6
				c0.1,0.2,0.2,0.5,0.4,0.9l0.5-0.1l-0.4-0.4c-0.1,0.1-0.4,0.2-0.5,0.4c-0.2,0.1-0.5,0.2-0.7,0.2c-0.1,0-0.2,0-0.4,0l0,0
				c-0.2,0-0.4,0-0.6-0.1c-0.4-0.1-0.7-0.2-1-0.5c-0.2-0.2-0.5-0.6-0.6-1l-0.5,0.1l-0.1,0.5l0,0l0.7,0.1l0,0l0.7,0.1l1.5,0.2
				l0.2-0.9l-2.7-1l-0.1,0.5l0.4,0.4l0,0l0.6-0.5l-0.7-0.2L54,36.4l0.4,0.4c0.4-0.2,0.7-0.5,1.2-0.6l0,0l0,0l0,0V36v0.1l0,0V36v0.1
				v-0.2v0.2l0,0v-0.2v0.2l0,0l0,0c0.1,0,0.1,0,0.2,0c0.2,0,0.4,0,0.6,0.1l0,0L56.2,35.8z"/>
		</g>
	</g>
</g>
</svg>
