<?xml version="1.0" encoding="UTF-8"?><svg id="Capa_1" xmlns="http://www.w3.org/2000/svg" viewBox="0 0 80 80"><defs><style>.cls-1{fill:#fff;}</style></defs><path class="cls-1" d="M56.59,36.13l-.88,7.09c-.15,1.19-1.15,2.08-2.34,2.08h-11.48v29.65c-1.21,.11-2.44,.16-3.68,.16-2.77,0-5.48-.28-8.1-.81v-29.01h-8.83c-.81,0-1.47-.67-1.47-1.48v-8.87c0-.81,.66-1.48,1.47-1.48h8.83v-13.31c0-8.17,6.59-14.79,14.73-14.79h10.31c.81,0,1.47,.67,1.47,1.48V15.73c0,.81-.66,1.48-1.47,1.48h-7.36c-3.25,0-5.89,2.65-5.89,5.91v10.35h12.37c1.42,0,2.52,1.25,2.34,2.66Z"/></svg>