<?xml version="1.0" encoding="UTF-8"?><svg id="Capa_1" xmlns="http://www.w3.org/2000/svg" viewBox="0 0 80 80"><defs><style>.cls-1{fill:#fff;}</style></defs><path class="cls-1" d="M58.2,3.45H22.2C12.92,3.45,5.4,10.97,5.4,20.25V56.25c0,9.28,7.52,16.8,16.8,16.8H58.2c9.28,0,16.8-7.52,16.8-16.8V20.25c0-9.28-7.52-16.8-16.8-16.8Zm10.8,51.6c0,6.62-5.38,12-12,12H23.4c-6.62,0-12-5.38-12-12V21.45c0-6.62,5.38-12,12-12H57c6.62,0,12,5.38,12,12V55.05Z"/><path class="cls-1" d="M40.23,20.25c-9.94,0-18,8.06-18,18s8.06,18,18,18,18-8.06,18-18-8.06-18-18-18Zm0,30c-6.61,0-12-5.39-12-12s5.39-12,12-12,12,5.39,12,12-5.39,12-12,12Z"/><circle class="cls-1" cx="59.43" cy="19.05" r="3.6"/></svg>