<?xml version="1.0" encoding="UTF-8"?><svg id="Capa_1" xmlns="http://www.w3.org/2000/svg" viewBox="0 0 72.76 80.93"><defs><style>.cls-1{fill:#09105c;}</style></defs><path class="cls-1" d="M69.25,20.4h-7.11v4.59c0,1.69-1.37,3.06-3.06,3.06h-1.53c-1.69,0-3.06-1.37-3.06-3.06v-4.59H18.04v4.59c0,1.69-1.37,3.06-3.06,3.06h-1.53c-1.69,0-3.06-1.37-3.06-3.06v-4.59H3.52c-1.94,0-3.52,1.57-3.52,3.52v53.5c0,1.94,1.57,3.52,3.52,3.52H69.25c1.94,0,3.52-1.57,3.52-3.52V23.91c0-1.94-1.57-3.52-3.52-3.52ZM23.39,69.93H9.78v-11.01h13.61v11.01Zm0-21.1H9.78v-11.01h13.61v11.01Zm20.14,21.1h-13.61v-11.01h13.61v11.01Zm0-21.1h-13.61v-11.01h13.61v11.01Zm20.14,21.1h-13.61v-11.01h13.61v11.01Zm0-21.1h-13.61v-11.01h13.61v11.01Z"/><path class="cls-1" d="M60.19,24.82c.17-1.73,.26-3.49,.26-5.26,0-2.89-.25-5.8-.83-8.63-.52-2.5-1.33-5.24-3.16-7.49-.89-1.08-2-1.87-3.2-2.38-1.2-.51-2.48-.73-3.75-.73-1.68,0-3.35,.39-4.85,1.11-2.47,1.19-4.41,3.07-5.92,5.18-.26,.36-.66,.55-1.07,.55-.35,0-.66-.13-.9-.41-.89-1.03-1.85-2-2.86-2.9-1.53-1.36-3.34-2.69-5.52-3.39C27.38,.15,26.32,0,25.27,0c-2.5,0-4.93,.84-6.93,2.23-1.63,1.13-2.85,2.62-3.73,4.25-.88,1.63-1.44,3.4-1.79,5.16-.37,1.9-.51,3.81-.51,5.7,0,2.24,.2,4.46,.5,6.62,.11,.82,.87,1.4,1.69,1.28,.82-.11,1.4-.87,1.28-1.69-.28-2.08-.47-4.16-.47-6.22,0-1.74,.14-3.46,.46-5.13,.3-1.53,.78-3.01,1.48-4.3,.7-1.29,1.62-2.39,2.81-3.22,1.52-1.07,3.41-1.7,5.22-1.7,.76,0,1.52,.11,2.24,.34,1.56,.49,3.06,1.55,4.43,2.77,.91,.81,1.78,1.69,2.58,2.62,.83,.97,2.02,1.45,3.17,1.44,1.32,0,2.65-.62,3.5-1.79,1.3-1.81,2.89-3.31,4.79-4.22,1.09-.53,2.34-.82,3.55-.82,.91,0,1.8,.16,2.58,.5,.79,.33,1.47,.82,2.04,1.52,1.33,1.61,2.08,3.88,2.54,6.18,.53,2.59,.77,5.31,.77,8.03,0,1.66-.09,3.33-.25,4.97-.08,.82,.52,1.56,1.35,1.64,.82,.08,1.56-.52,1.64-1.35h0Z"/></svg>