<?xml version="1.0" encoding="utf-8"?>
<!-- Generator: Adobe Illustrator 26.3.1, SVG Export Plug-In . SVG Version: 6.00 Build 0)  -->
<svg version="1.1" id="Capa_1" xmlns="http://www.w3.org/2000/svg" xmlns:xlink="http://www.w3.org/1999/xlink" x="0px" y="0px"
	 viewBox="0 0 100 100" style="enable-background:new 0 0 100 100;" xml:space="preserve">
<style type="text/css">
	.st0{fill:#00937B;}
</style>
<g>
	<path class="st0" d="M42.82,82.95c0.02,1.12,0.88,2.01,1.92,1.99l14.07-0.34c1.03-0.03,1.85-0.96,1.82-2.08l0,0
		c-0.03-1.12-0.89-2.01-1.92-1.99l-14.07,0.34C43.61,80.89,42.8,81.82,42.82,82.95L42.82,82.95z"/>
	<path class="st0" d="M42.92,86.81c0.03,1.12,0.88,2.01,1.92,1.99l14.07-0.34c1.03-0.02,1.85-0.95,1.82-2.08l0,0
		c-0.03-1.12-0.89-2.01-1.92-1.99l-14.07,0.34C43.71,84.76,42.89,85.69,42.92,86.81L42.92,86.81z"/>
	<path class="st0" d="M43.01,90.72c0.03,1.12,0.89,2.01,1.92,1.99L59,92.36c1.03-0.02,1.85-0.96,1.82-2.08l0,0
		c-0.03-1.12-0.89-2.01-1.92-1.99l-14.07,0.34C43.8,88.66,42.98,89.59,43.01,90.72L43.01,90.72z"/>
	<path class="st0" d="M41.48,66.19c-0.18,1.03-0.46,2.71-0.64,4.58c-0.32,3.24-0.36,7.06,0.81,9.1c0.18,0.31,0.39,0.58,0.64,0.8
		c1.95,1.75,6.12,2.3,9.38,2.22c3.27-0.08,7.41-0.83,9.27-2.68c0.19-0.19,0.37-0.42,0.51-0.67c1.14-2,0.93-5.84,0.46-9.1
		c-0.27-1.84-0.62-3.5-0.86-4.52c7.61-3.66,12.38-11.2,12.19-19.26C72.95,35.09,62.76,25.91,50.52,26.2
		c-12.24,0.3-21.96,9.96-21.68,21.54C29.02,55.61,33.97,62.82,41.48,66.19z M30.91,47.7c-0.25-10.48,8.56-19.23,19.66-19.5
		c11.11-0.27,20.34,8.05,20.59,18.53c0.18,7.59-4.42,14.56-11.73,17.75l-0.78,0.34l0.2,0.8c0.43,1.69,0.82,3.71,1.08,5.67
		c0.45,3.4,0.48,6.61-0.48,7.56c-1.16,1.15-4.31,1.97-7.84,2.06c-3.52,0.09-6.7-0.59-7.92-1.68c-1.03-0.92-1.14-4.2-0.86-7.69
		c0.17-1.99,0.47-4.04,0.82-5.75L43.82,65l-0.77-0.31C35.85,61.76,31.08,55.09,30.91,47.7z"/>
	<path class="st0" d="M54.66,81.48c0,0,1.71-19.61-3.49-19.88c-5.2-0.27-2.36,20.04-2.36,20.04L54.66,81.48z"/>
	<polygon class="st0" points="43.96,56.8 44.5,57.67 46.61,55.7 48.75,57.22 51,54.55 53.45,57.15 55.73,55.47 57.65,57.34 
		58.24,56.29 59.1,56.74 53.86,66.22 52.99,65.76 57.35,57.89 55.7,56.29 53.4,57.99 51.02,55.46 48.83,58.06 46.65,56.51 
		44.83,58.21 49.66,66.02 48.81,66.51 43.11,57.3 	"/>
	<g>
		<path class="st0" d="M31.4,12.83c0.47-0.27,1.1-0.07,1.36,0.43l3.88,7.54c0.27,0.52,0.09,1.17-0.4,1.45
			c-0.14,0.08-0.3,0.13-0.46,0.13c-0.38,0.01-0.73-0.2-0.91-0.56L31,14.28C30.73,13.77,30.91,13.12,31.4,12.83z"/>
		<path class="st0" d="M43.55,8.47l0.1-0.01c0.51-0.01,0.95,0.39,1.02,0.93l1.06,8.51c0.04,0.28-0.03,0.56-0.19,0.79
			c-0.16,0.23-0.4,0.37-0.67,0.41l-0.11,0.01c-0.51,0.01-0.95-0.39-1.02-0.93l-1.06-8.51C42.62,9.09,43.01,8.55,43.55,8.47z"/>
		<path class="st0" d="M13.54,34.24c0.12-0.56,0.66-0.93,1.2-0.8l7.86,1.93c0.54,0.13,0.87,0.71,0.75,1.28
			c-0.1,0.48-0.5,0.82-0.95,0.83c-0.08,0-0.17-0.01-0.25-0.03l-7.86-1.93C13.76,35.39,13.42,34.81,13.54,34.24z"/>
		<path class="st0" d="M20.2,22.24c0.32-0.45,0.98-0.54,1.41-0.2l6.42,5.2c0.44,0.35,0.53,1.03,0.19,1.5
			c-0.18,0.26-0.47,0.41-0.77,0.42c-0.23,0.01-0.45-0.07-0.63-0.22l-6.42-5.2C19.95,23.38,19.86,22.71,20.2,22.24z"/>
		<path class="st0" d="M67.32,12.23c0.23-0.51,0.85-0.74,1.34-0.49c0.5,0.26,0.71,0.9,0.47,1.43l-3.5,7.72
			c-0.16,0.36-0.5,0.59-0.88,0.6c-0.16,0-0.32-0.03-0.46-0.11c-0.5-0.26-0.71-0.9-0.47-1.43L67.32,12.23z"/>
		<path class="st0" d="M54.53,9.16l-0.65,8.56c-0.02,0.28,0.06,0.56,0.23,0.78c0.17,0.22,0.42,0.35,0.68,0.37l0.11,0
			c0.51-0.01,0.93-0.43,0.98-0.98l0.65-8.56c0.04-0.59-0.37-1.11-0.92-1.16l-0.1,0C54.99,8.19,54.57,8.61,54.53,9.16z M54.9,18.41
			L54.9,18.41L54.9,18.41L54.9,18.41z"/>
		<path class="st0" d="M78.53,33.82l7.75-2.31c0.53-0.16,1.09,0.19,1.24,0.74c0.15,0.57-0.16,1.16-0.69,1.32l-7.76,2.31
			c-0.08,0.02-0.16,0.04-0.24,0.04c-0.46,0.01-0.87-0.31-0.99-0.78C77.69,34.57,78,33.98,78.53,33.82z"/>
		<path class="st0" d="M78.89,20.46c0.41-0.36,1.07-0.3,1.41,0.14c0.35,0.45,0.3,1.13-0.12,1.51l-6.16,5.51
			c-0.17,0.15-0.39,0.24-0.62,0.25c-0.31,0.01-0.6-0.13-0.8-0.39c-0.35-0.45-0.29-1.13,0.13-1.5L78.89,20.46z"/>
	</g>
	<path class="st0" d="M43.01,56.99c0.01,0.29,0.24,0.51,0.53,0.5c0.28-0.01,0.51-0.24,0.5-0.53c-0.01-0.29-0.24-0.51-0.53-0.51
		C43.23,56.47,43,56.71,43.01,56.99z"/>
	<path class="st0" d="M58.14,56.53c0.01,0.29,0.24,0.51,0.53,0.51c0.29-0.01,0.51-0.24,0.51-0.53c-0.01-0.29-0.24-0.51-0.53-0.51
		C58.36,56.01,58.13,56.24,58.14,56.53z"/>
	<path class="st0" d="M37.42,78.39C37.44,78.52,37.54,78.44,37.42,78.39L37.42,78.39z"/>
</g>
</svg>
