<?xml version="1.0" encoding="UTF-8"?>
<svg id="Capa_1" xmlns="http://www.w3.org/2000/svg" version="1.1" viewBox="0 0 250 250">
  <!-- Generator: Adobe Illustrator 29.0.0, SVG Export Plug-In . SVG Version: 2.1.0 Build 186)  -->
  <defs>
    <style>
      .st0 {
        fill: #edd003;
      }

      .st1 {
        fill: #39a900;
      }

      .st2 {
        fill: #0e3370;
      }
    </style>
  </defs>
  <polygon points="124.5 88.1 124.5 88.1 124.5 88.4 124.5 88.1"/>
  <g>
    <polygon class="st2" points="114.2 82.6 114.2 82.6 114.2 82.6 114.2 82.6"/>
    <path class="st2" d="M119.3,75.2c.3.5.6.9.9,1.4-.3-.4-.6-.9-.9-1.4Z"/>
    <path class="st2" d="M114.2,82.6c-19.5-4.6-36.4-9.9-36.4-9.9,0,0,18.6,4.7,30.2,6.4,2.4.4,4.8.8,7.2,1.3-.2,0-.4,0-.6-.1.8-2.2,2.5-4.1,4.6-5.1-5.6-8.4-16.6-19.9-31.4-12-14,7.5-31.6-3-31.6-3,0,0,26.7,45.4,59.3,27.9-.9-1.4-1.4-3-1.4-4.7s0-.5,0-.7h0Z"/>
    <path class="st2" d="M120.2,76.5c0,0,0,.1.1.2,0,0,0-.1-.1-.2Z"/>
    <path class="st2" d="M119.3,75.1h0s0,0,0,0c0,0,0,0,0,0Z"/>
    <path class="st2" d="M115.6,88c.5-.3,1-.5,1.4-.8-.5.3-1,.6-1.4.8h0Z"/>
    <path class="st2" d="M130.3,85.2c.5.2,1.1.3,1.6.5h0c-.5-.2-1-.4-1.6-.5Z"/>
    <path class="st2" d="M131.9,85.7c-.5,1.9-1.6,3.5-3.1,4.7,9.8,17.5,17.3,33.5,17.3,33.5,0,0-9.1-16.9-15.7-26.6-1.3-1.9-2.5-3.8-3.6-5.7-1.1.5-2.3.7-3.5.7s-2.3-.2-3.4-.7c-2.4,9.8-3.5,25.7,12.4,31.2,15,5.2,19.2,25.3,19.2,25.3,0,0,15.4-50.3-19.5-62.5h0Z"/>
    <path class="st2" d="M122.7,74.3c.2,0,.4,0,.5,0,1.8,0,3.5.5,4.9,1.5,0,0,0,0,0,0,13.3-14.9,26.1-27.2,26.1-27.2,0,0-13,14.1-20.1,23.5-1.4,1.9-2.9,3.7-4.4,5.6,0-.1.2-.2.3-.3,1.4,1.6,2.3,3.7,2.3,6s0,.3,0,.5c10.1-.9,25.4-5,25.5-21.8,0-15.8,17.8-26.4,17.8-26.4,0,0-52.6,1.7-52.8,38.7h0Z"/>
    <path class="st2" d="M122.7,75.9c0-.6,0-1.1,0-1.7h0c0,.5,0,1.1,0,1.7Z"/>
    <path class="st2" d="M117.2,83.3c0,3.3,2.7,6,6,6s6-2.7,6-6-2.7-6-6-6-1.6.2-2.3.5c-.2-.3-.4-.6-.6-1,.2.3.4.7.6,1-2.2.9-3.7,3.1-3.7,5.6h0Z"/>
    <path class="st2" d="M125.5,124.2c-1.8-1.3-3.3-2.7-4.5-4.4l-1.3,49.7c2.2-2,4.5-4,6.9-5.8l-1.1-39.5h0Z"/>
  </g>
  <g>
    <path class="st0" d="M148.8,148.7h0s0,0,0,0c0,0,0-.2,0-.3,0-.3-.2-.7-.3-1.3-.3-1.1-.8-2.7-1.6-4.5-1.4-3.6-3.8-8.1-7.2-11.7-2.3-2.4-5-4.3-8.3-5.5-1.1-.4-2.2-.8-3.1-1.3l1,37.1c6.1-4.1,12.8-7.9,19.8-11.3l-.2-1.1h0Z"/>
    <path class="st0" d="M124.8-.2C55.5-.2-.7,56-.7,125.3s.7,12.3,1.1,16.5c13.9-2.5,28.8-5.3,44.6-3.6,28.9,3.1,54.1,11.9,72.1,26.2l1.3-49.7c-2-4-2.7-8.3-2.7-12.4s.7-8,1.5-11.3l.2-.9-.6.3s0,0,0,0l-2.4,1.3h0c-4.8,2.1-9.6,3.1-14.2,3.1-6.9,0-13.2-2.2-18.8-5.3-5.6-3.2-10.5-7.3-14.5-11.4-8.1-8.2-12.8-16.4-12.9-16.5l-5.3-9,9,5.3h0s0,0,0,0c0,0,.2,0,.3.2.3.1.6.3,1.1.6,1,.5,2.5,1.2,4.2,1.9,3.5,1.4,8.3,2.7,13.1,2.7,3.5,0,6.9-.7,10.1-2.4,3.8-2.1,7.6-3,11.1-3,2.8,0,5.5.6,7.9,1.6,2.4,1,4.6,2.4,6.6,3.9,3.2,2.5,5.8,5.5,7.8,8.3.4-6.3,2.4-11.6,5.3-16.1,3.3-5.1,7.8-9,12.7-12,9.8-6,21.2-8.6,28.8-9.7,5.1-.8,8.5-.9,8.5-.9l10.4-.3-9,5.3h0s0,0,0,0c0,0-.2,0-.3.2-.3.2-.6.4-1.1.7-.9.7-2.3,1.6-3.8,2.9-3,2.5-6.5,6.2-8.7,10.6-1.5,2.9-2.5,6.1-2.5,9.6,0,3.5-.6,6.5-1.7,9.2-1.1,2.7-2.7,4.9-4.5,6.7-3.7,3.7-8.5,5.8-13,7-1,.3-1.9.5-2.9.7,2.6,1.4,4.9,3,6.9,4.8,3.3,3,5.8,6.5,7.6,10.3,3.7,7.5,4.8,15.9,4.8,23.5,0,10.6-2.1,19.8-3.1,23.3,3-1.3,6-2.5,9.2-3.7,31.1-11.3,61.6-12.3,85.4-4.7.6-6.6.8-9.4.8-14C249.7,55.7,194.1-.2,124.8-.2Z"/>
  </g>
  <path class="st1" d="M216,142.6c-60.4,0-117.3,44.3-129.4,101.6,3.1,1,6.3,1.9,9.5,2.6,11-53.2,64-94.4,119.9-94.4s20.2,1.4,29.7,3.9c.8-3.1,1.5-6.3,2.1-9.5-10.2-2.7-20.8-4.1-31.8-4.1h0Z"/>
  <path class="st1" d="M111.6,249.4c3.2.3,6.5.5,9.8.6,9.1-41.2,48.9-75.9,91.9-75.9s16.9,1.2,24.7,3.5c1.4-3,2.6-6,3.8-9.1-9-2.7-18.6-4.2-28.5-4.2-48.2,0-92.3,38.7-101.7,85h0Z"/>
  <path class="st1" d="M136.1,249.5c3.6-.3,7.1-.8,10.6-1.4,9.6-28,39-53.7,68.2-53.7s8.7.5,12.9,1.3c2-2.8,3.8-5.7,5.5-8.7-5.9-1.5-12.1-2.3-18.4-2.3-35.1,0-69.4,30.9-78.8,64.9h0Z"/>
  <path class="st1" d="M166.3,242.9c4.5-1.6,8.9-3.5,13.2-5.5,6.2-10.3,16.8-17.8,29.1-19.8,3.5-3.2,6.9-6.6,10-10.2-1.1,0-2.1-.1-3.2-.1-22.9,0-42.4,15-49.1,35.6h0Z"/>
  <path class="st1" d="M106.9,181.1c2.2-2.4,4.5-4.8,6.8-7-21.4-17.4-48.7-27.8-78.3-27.8s-22.8,1.6-33.4,4.6c.7,3.2,1.5,6.3,2.4,9.4,9.9-2.8,20.3-4.3,31-4.3,27,0,51.9,9.4,71.5,25.1h0Z"/>
  <path class="st1" d="M94.7,198c1.7-2.8,3.5-5.5,5.4-8.2-16.9-13.5-38.4-21.6-61.7-21.6s-20.2,1.6-29.5,4.5c1.3,3,2.6,6,4.1,8.9,8.1-2.4,16.6-3.7,25.4-3.7,21.3,0,40.9,7.5,56.3,20h0Z"/>
  <path class="st1" d="M83.2,217.9c1.2-3.2,2.6-6.4,4-9.6-13.2-11.6-30.6-18.7-49.5-18.7s-12.2.8-17.9,2.2c2,3,4,5.9,6.2,8.7,3.8-.7,7.7-1.1,11.7-1.1,17.7,0,33.7,7.1,45.5,18.5h0Z"/>
  <path class="st1" d="M38.2,210.6c-1.6,0-3.2,0-4.7.2,3.3,3.5,6.8,6.8,10.5,9.9,12.1,1.7,22.6,8.6,29.1,18.3,1.3.6,2.6,1.1,3.9,1.7.5-3.4,1.2-6.8,2-10.1-9.5-12.2-24.2-20-40.8-20h0Z"/>
</svg>