<?xml version="1.0" encoding="utf-8"?>
<!-- Generator: Adobe Illustrator 26.3.1, SVG Export Plug-In . SVG Version: 6.00 Build 0)  -->
<svg version="1.1" id="Capa_1" xmlns="http://www.w3.org/2000/svg" xmlns:xlink="http://www.w3.org/1999/xlink" x="0px" y="0px"
	 viewBox="0 0 413.9 399.4" style="enable-background:new 0 0 413.9 399.4;" xml:space="preserve">
<style type="text/css">
	.st0{enable-background:new    ;}
	.st1{fill:#081E66;}
	.st2{fill:none;stroke:#FFD400;stroke-width:3;stroke-miterlimit:10;}
	.st3{fill:#3A3A3A;}
</style>
<g transform="translate(-7.49 274.13) rotate(3.67)">
	<g>
		<g class="st0">
			<path class="st1" d="M8.9-9l2.9-46c17-7.7,31.8-15.5,44.5-23.5c12.7-8,23.3-15.9,31.9-23.8c8.5-7.9,15-15.5,19.4-22.8
				c4.4-7.3,6.8-14.1,7.2-20.5c0.3-5.3-0.7-9.9-3.1-14c-2.4-4.1-6.8-6.4-13.4-6.8c-7.4-0.5-13.1,2.2-17,8.1
				c-3.9,5.9-6.1,15.5-6.5,28.9l-64.3-19.9c0.7-18.4,5.5-33.3,14.4-44.6c8.9-11.3,20.5-19.3,35-24.1c14.5-4.8,30.3-6.6,47.3-5.5
				c16.4,1.1,30.1,4.2,41.1,9.4c11,5.2,19.6,11.6,26,19.1c6.3,7.5,10.7,15.5,13.1,23.9c2.4,8.4,3.4,16.3,2.9,23.8
				c-0.9,14.4-5.5,27.2-13.8,38.3c-8.3,11.1-19.1,20.9-32.4,29.2c-13.3,8.4-27.9,15.8-43.9,22.2l0,0.7c4.6-0.1,9.7-0.2,15.3-0.2
				c5.6,0,11.5,0.2,17.8,0.5c6.2,0.3,12.4,0.6,18.6,1l33.8,2.2l-3.6,55.5L8.9-9z"/>
			<path class="st1" d="M298.5,12.9c-32.8-2.1-56.5-13-70.9-32.6c-14.5-19.6-20.5-48-18.1-85.2c2.4-37.2,12-64.6,28.8-82.2
				c16.8-17.6,41.7-25.3,74.5-23.2s56.5,13,70.9,32.6c14.4,19.6,20.5,48,18.1,85.2c-2.4,37.2-12,64.6-28.8,82.2
				C356.2,7.3,331.3,15,298.5,12.9z M302.2-44.5c5.7,0.4,10.2-0.9,13.4-3.8c3.3-2.9,5.7-8.2,7.5-16c1.7-7.8,3-18.8,3.9-33
				c0.9-14.2,1-25.3,0.3-33.3c-0.7-8-2.5-13.6-5.3-16.8c-2.9-3.3-7.1-5.1-12.8-5.4c-5.5-0.4-9.9,0.9-13.3,3.8
				c-3.4,2.9-5.9,8.2-7.6,16c-1.7,7.8-3,18.8-3.9,33c-0.9,14.2-1,25.3-0.3,33.3c0.7,8,2.5,13.6,5.5,16.8
				C292.5-46.7,296.7-44.9,302.2-44.5z"/>
		</g>
	</g>
</g>
<g transform="translate(-7.49 274.13) rotate(3.67)">
	<g class="st0">
		<path class="st2" d="M11.1-9.2l2.8-43.9C30.2-60.5,44.4-68,56.5-75.6C68.7-83.2,78.8-90.8,87-98.4c8.2-7.6,14.3-14.8,18.6-21.8
			c4.2-7,6.5-13.5,6.9-19.6c0.3-5-0.7-9.5-2.9-13.4c-2.3-3.9-6.5-6.1-12.8-6.5c-7.1-0.5-12.5,2.1-16.3,7.8
			c-3.7,5.6-5.8,14.9-6.2,27.6l-61.5-19.1c0.7-17.6,5.3-31.8,13.8-42.6C35-196.8,46.2-204.4,60-209c13.8-4.6,28.9-6.3,45.2-5.3
			c15.7,1,28.8,4,39.3,9c10.5,5,18.8,11.1,24.8,18.3c6,7.2,10.2,14.8,12.6,22.9c2.3,8,3.3,15.6,2.8,22.7c-0.9,13.8-5.3,26-13.2,36.7
			c-7.9,10.6-18.2,19.9-30.9,28c-12.7,8-26.7,15.1-42,21.3l0,0.6c4.4-0.1,9.3-0.2,14.7-0.2c5.4,0,11,0.2,17,0.5
			c6,0.3,11.9,0.6,17.7,1l32.3,2.1l-3.4,53L11.1-9.2z"/>
		<path class="st2" d="M288,11.7c-31.4-2-54-12.4-67.8-31.1c-13.8-18.7-19.6-45.9-17.3-81.5c2.3-35.6,11.5-61.8,27.6-78.6
			c16.1-16.8,39.8-24.2,71.2-22.2c31.4,2,54,12.4,67.8,31.1c13.8,18.7,19.6,45.9,17.3,81.5c-2.3,35.6-11.5,61.8-27.6,78.6
			C343.2,6.3,319.4,13.7,288,11.7z M291.6-43.2c5.4,0.3,9.7-0.8,12.8-3.6c3.1-2.7,5.5-7.8,7.1-15.3c1.6-7.5,2.9-18,3.8-31.6
			c0.9-13.6,1-24.2,0.3-31.8c-0.7-7.6-2.4-13-5.1-16.1c-2.7-3.1-6.8-4.9-12.3-5.2c-5.2-0.3-9.5,0.9-12.7,3.6
			c-3.2,2.7-5.7,7.8-7.3,15.3c-1.6,7.5-2.9,18-3.8,31.6c-0.9,13.6-1,24.2-0.3,31.8c0.7,7.6,2.4,13,5.3,16.1
			C282.3-45.3,286.3-43.6,291.6-43.2z"/>
	</g>
</g>
<g transform="translate(91.15 359.94)">
	<g class="st0">
		<path class="st3" d="M-24.1-19.9v-29H0v7.5h-13.8v3.6h11.2v6.9h-11.2v3.4H0.5v7.5H-24.1z"/>
		<path class="st3" d="M29-41.8L21-29.9l-4.4-0.3L12-19.9H0.7L9-32.1l4.1,0.6l4.7-10.3H29z M12.3-41.8l4.6,10.3l4-0.6l8.4,12.2H17.8
			l-4.7-10.3l-4,0.3L0.9-41.8H12.3z"/>
		<path class="st3" d="M30.5-10.7v-31.2h9.2l0.5,9.7L39-33.3c0.1-1.7,0.5-3.3,1.1-4.6c0.6-1.3,1.5-2.4,2.7-3.2
			c1.1-0.8,2.5-1.2,4-1.2c1.8,0,3.3,0.4,4.6,1.3c1.2,0.9,2.2,2.2,2.8,3.8c0.6,1.7,1,3.7,1,6.1c0,2.4-0.3,4.5-1,6.2
			c-0.7,1.7-1.6,3-2.9,4c-1.3,0.9-2.8,1.4-4.6,1.4c-2.1,0-3.8-0.7-4.9-2.1c-1.1-1.4-1.9-3.1-2.2-5.2l0.9-1.3v17.4H30.5z M42.7-26.6
			c0.7,0,1.3-0.3,1.7-0.9c0.4-0.6,0.6-1.7,0.6-3.4c0-1.7-0.2-2.9-0.6-3.5c-0.4-0.6-1-0.9-1.7-0.9c-0.4,0-0.8,0.2-1.1,0.5
			c-0.3,0.3-0.6,0.8-0.7,1.4s-0.3,1.5-0.3,2.5c0,0.9,0.1,1.7,0.2,2.4c0.1,0.6,0.4,1.1,0.7,1.4C41.8-26.7,42.2-26.6,42.7-26.6z"/>
		<path class="st3" d="M69.4-42.3c2.5,0,4.6,0.4,6.4,1.3c1.8,0.9,3.3,2.2,4.3,3.9c1,1.7,1.5,3.8,1.5,6.2c0,2.4-0.5,4.5-1.5,6.2
			c-1,1.7-2.5,3-4.3,3.9c-1.8,0.9-4,1.3-6.4,1.3c-2.4,0-4.6-0.4-6.4-1.3c-1.8-0.9-3.3-2.2-4.3-3.9c-1-1.7-1.5-3.8-1.5-6.2
			c0-2.4,0.5-4.5,1.5-6.2c1-1.7,2.5-3,4.3-3.9C64.8-41.8,67-42.3,69.4-42.3z M69.4-35.5c-0.4,0-0.8,0.1-1.1,0.4
			c-0.3,0.2-0.6,0.7-0.7,1.4c-0.2,0.7-0.2,1.6-0.2,2.9c0,1.2,0.1,2.2,0.2,2.8c0.2,0.7,0.4,1.1,0.7,1.4c0.3,0.3,0.7,0.4,1.1,0.4
			c0.5,0,0.9-0.1,1.2-0.4c0.3-0.3,0.5-0.7,0.7-1.4c0.2-0.7,0.2-1.6,0.2-2.8c0-1.2-0.1-2.2-0.2-2.9c-0.2-0.7-0.4-1.1-0.7-1.4
			C70.3-35.4,69.9-35.5,69.4-35.5z"/>
		<path class="st3" d="M94.3-19.5c-2.1,0-4.2-0.3-6.2-0.9c-2-0.6-3.7-1.5-5.2-2.6l3.6-5.2c0.8,0.7,1.8,1.3,3.1,1.9s2.6,0.8,3.9,0.8
			c0.5,0,0.9-0.1,1.3-0.2c0.4-0.1,0.6-0.3,0.6-0.6c0-0.2-0.1-0.4-0.3-0.5s-0.7-0.2-1.4-0.4l-1.6-0.3c-3.2-0.6-5.4-1.5-6.8-2.6
			s-2-2.7-2-4.6c0-1.2,0.4-2.4,1.2-3.5c0.8-1.2,2-2.1,3.7-2.9c1.7-0.8,3.9-1.1,6.7-1.1c2.3,0,4.3,0.3,6.1,0.9
			c1.8,0.6,3.3,1.4,4.4,2.3l-3.5,5c-0.8-0.6-1.9-1.2-3.1-1.6c-1.3-0.4-2.4-0.6-3.5-0.6c-0.5,0-0.8,0-1.1,0.1
			c-0.3,0.1-0.5,0.1-0.6,0.2c-0.1,0.1-0.2,0.2-0.2,0.4c0,0.2,0.1,0.4,0.4,0.6c0.3,0.2,0.9,0.3,1.7,0.5l3.1,0.5
			c2.4,0.4,4.1,1.1,5.2,2.3c1.1,1.1,1.6,2.5,1.6,4.2c0,1.4-0.4,2.8-1.2,4c-0.8,1.2-2,2.2-3.6,2.9C99.2-19.8,97-19.5,94.3-19.5z"/>
		<path class="st3" d="M112.9-43.3c-2,0-3.4-0.3-4.2-1c-0.8-0.6-1.3-1.7-1.3-3.2c0-1.6,0.4-2.6,1.3-3.3c0.8-0.6,2.2-0.9,4.2-0.9
			c2,0,3.4,0.3,4.2,0.9c0.8,0.6,1.3,1.7,1.3,3.3c0,1.5-0.4,2.6-1.3,3.2C116.3-43.6,114.9-43.3,112.9-43.3z M118-41.8v22h-10.1v-22
			H118z"/>
		<path class="st3" d="M138.8-41.8v6.8h-19v-6.8H138.8z M133.3-49.3v20.5c0,1,0.2,1.7,0.6,2.1c0.4,0.4,1.1,0.6,2,0.6
			c0.6,0,1.1,0,1.5-0.1c0.4-0.1,0.8-0.2,1.2-0.4l0.4,5.7c-0.7,0.5-1.7,0.8-3,1.1c-1.3,0.3-2.4,0.4-3.6,0.4c-2,0-3.8-0.3-5.2-0.8
			c-1.4-0.5-2.4-1.3-3.2-2.5c-0.7-1.1-1.1-2.7-1.1-4.6v-19.2L133.3-49.3z"/>
		<path class="st3" d="M152.5-42.3c2.5,0,4.6,0.4,6.4,1.3c1.8,0.9,3.3,2.2,4.3,3.9c1,1.7,1.5,3.8,1.5,6.2c0,2.4-0.5,4.5-1.5,6.2
			c-1,1.7-2.5,3-4.3,3.9c-1.8,0.9-4,1.3-6.4,1.3c-2.4,0-4.6-0.4-6.4-1.3c-1.8-0.9-3.3-2.2-4.3-3.9c-1-1.7-1.5-3.8-1.5-6.2
			c0-2.4,0.5-4.5,1.5-6.2c1-1.7,2.5-3,4.3-3.9C148-41.8,150.1-42.3,152.5-42.3z M152.5-35.5c-0.4,0-0.8,0.1-1.1,0.4
			c-0.3,0.2-0.6,0.7-0.7,1.4c-0.2,0.7-0.2,1.6-0.2,2.9c0,1.2,0.1,2.2,0.2,2.8c0.2,0.7,0.4,1.1,0.7,1.4c0.3,0.3,0.7,0.4,1.1,0.4
			c0.5,0,0.9-0.1,1.2-0.4c0.3-0.3,0.5-0.7,0.7-1.4c0.2-0.7,0.2-1.6,0.2-2.8c0-1.2-0.1-2.2-0.2-2.9c-0.2-0.7-0.4-1.1-0.7-1.4
			C153.4-35.4,153-35.5,152.5-35.5z"/>
		<path class="st3" d="M167.4-19.9v-22h9.1l0.2,5.5c0.5-1.8,1.3-3.3,2.3-4.3s2.4-1.6,4.1-1.6c0.7,0,1.2,0.1,1.5,0.2
			c0.4,0.1,0.6,0.2,0.7,0.4l-0.8,8.1c-0.3-0.1-0.6-0.2-1.1-0.3c-0.5-0.1-1-0.1-1.6-0.1c-0.9,0-1.6,0.1-2.3,0.4s-1.1,0.7-1.5,1.2
			c-0.4,0.5-0.5,1.2-0.5,2v10.5H167.4z"/>
		<path class="st3" d="M198.6-19.5c-2.6,0-4.9-0.4-6.8-1.3c-1.9-0.9-3.3-2.2-4.3-3.9c-1-1.7-1.5-3.8-1.5-6.2c0-2.4,0.5-4.5,1.5-6.2
			c1-1.7,2.4-3,4.3-3.9c1.8-0.9,4-1.3,6.4-1.3c2.5,0,4.6,0.4,6.3,1.3c1.7,0.9,3.1,2.1,4,3.8c0.9,1.6,1.4,3.5,1.4,5.6
			c0,0.5,0,1-0.1,1.4c0,0.5-0.1,0.9-0.2,1.2h-17.1v-3.7h12.7l-4.8,1.9c0-1.6-0.1-2.8-0.4-3.6s-0.9-1.2-1.8-1.2
			c-0.6,0-1.1,0.1-1.5,0.4c-0.4,0.3-0.7,0.8-0.9,1.5c-0.2,0.7-0.3,1.7-0.3,3s0.1,2.2,0.4,2.9c0.2,0.7,0.6,1.1,1,1.3
			c0.5,0.2,1,0.3,1.7,0.3c0.8,0,1.4-0.2,1.8-0.5c0.4-0.3,0.7-0.8,0.9-1.4l8.1,2.2c-0.3,1.4-1,2.6-2.2,3.6c-1.1,1-2.4,1.7-4,2.1
			C201.8-19.7,200.2-19.5,198.6-19.5z"/>
		<path class="st3" d="M222.4-19.5c-2.1,0-4.2-0.3-6.2-0.9c-2-0.6-3.7-1.5-5.2-2.6l3.6-5.2c0.8,0.7,1.8,1.3,3.1,1.9s2.6,0.8,3.9,0.8
			c0.5,0,0.9-0.1,1.3-0.2c0.4-0.1,0.6-0.3,0.6-0.6c0-0.2-0.1-0.4-0.3-0.5s-0.7-0.2-1.4-0.4l-1.6-0.3c-3.2-0.6-5.4-1.5-6.8-2.6
			s-2-2.7-2-4.6c0-1.2,0.4-2.4,1.2-3.5c0.8-1.2,2-2.1,3.7-2.9c1.7-0.8,3.9-1.1,6.7-1.1c2.3,0,4.3,0.3,6.1,0.9
			c1.8,0.6,3.3,1.4,4.4,2.3l-3.5,5c-0.8-0.6-1.9-1.2-3.1-1.6c-1.3-0.4-2.4-0.6-3.5-0.6c-0.5,0-0.8,0-1.1,0.1
			c-0.3,0.1-0.5,0.1-0.6,0.2c-0.1,0.1-0.2,0.2-0.2,0.4c0,0.2,0.1,0.4,0.4,0.6c0.3,0.2,0.9,0.3,1.7,0.5l3.1,0.5
			c2.4,0.4,4.1,1.1,5.2,2.3c1.1,1.1,1.6,2.5,1.6,4.2c0,1.4-0.4,2.8-1.2,4c-0.8,1.2-2,2.2-3.6,2.9C227.3-19.8,225.1-19.5,222.4-19.5z
			"/>
	</g>
</g>
</svg>
