<?xml version="1.0" encoding="utf-8"?>
<!-- Generator: Adobe Illustrator 26.3.1, SVG Export Plug-In . SVG Version: 6.00 Build 0)  -->
<svg version="1.1" id="Capa_1" xmlns="http://www.w3.org/2000/svg" xmlns:xlink="http://www.w3.org/1999/xlink" x="0px" y="0px"
	 viewBox="0 0 331.7 399.4" style="enable-background:new 0 0 331.7 399.4;" xml:space="preserve">
<style type="text/css">
	.st0{enable-background:new    ;}
	.st1{fill:#081E66;}
	.st2{fill:none;stroke:#FFD400;stroke-width:3;stroke-miterlimit:10;}
	.st3{fill:#3A3A3A;}
</style>
<g transform="translate(.23 280.82)">
	<g class="st0">
		<path class="st1" d="M49.1-10v-95.7c0-6.8,0-13.6,0-20.4c0-6.8,0-13.6,0-20.4c-6.6,5.8-13.7,10.8-21.3,15
			c-7.6,4.2-15.6,6.9-24.1,8.2l-4-57.7c6.4-0.6,12.8-2,19.1-4.2c6.4-2.2,12.4-4.8,18.1-7.9c5.7-3.1,10.7-6.4,15.1-9.9
			c4.4-3.5,7.8-7.1,10-10.8h55.9V-10H49.1z"/>
		<path class="st1" d="M236.7-6.9c-30.9,0-53.7-8.7-68.4-26.2c-14.7-17.5-22.1-43.7-22.1-78.7c0-35,7.4-61.2,22.1-78.7
			c14.7-17.5,37.5-26.2,68.4-26.2s53.7,8.7,68.4,26.2c14.7,17.5,22.1,43.7,22.1,78.7c0,35-7.4,61.2-22.1,78.7
			C290.4-15.7,267.6-6.9,236.7-6.9z M236.7-60.9c5.3,0,9.5-1.4,12.3-4.3c2.9-2.9,4.9-8,6-15.4c1.1-7.4,1.7-17.8,1.7-31.2
			c0-13.4-0.6-23.8-1.7-31.2c-1.1-7.4-3.1-12.5-6-15.4c-2.9-2.9-7-4.3-12.3-4.3c-5.1,0-9.2,1.4-12.2,4.3c-3,2.9-5,8-6.2,15.4
			c-1.1,7.4-1.7,17.8-1.7,31.2c0,13.4,0.6,23.8,1.7,31.2c1.1,7.4,3.2,12.6,6.2,15.4C227.5-62.4,231.6-60.9,236.7-60.9z"/>
	</g>
</g>
<g transform="translate(-7.49 274.13) rotate(3.67)">
	<g class="st0">
		<path class="st2" d="M40.1-10.1l6.2-97.3c0.4-6.9,0.9-13.8,1.3-20.7c0.4-6.9,0.9-13.8,1.3-20.7c-7.1,5.4-14.6,10-22.6,13.8
			c-8,3.8-16.4,6-25,6.7L1-187.2c6.5-0.2,13.1-1.2,19.7-3c6.6-1.8,12.9-4.1,18.9-6.8c6-2.8,11.3-5.8,16-9.1
			c4.7-3.3,8.4-6.7,10.9-10.3l56.8,3.6L110.1-5.6L40.1-10.1z"/>
		<path class="st2" d="M230.7,5.3c-31.4-2-54-12.4-67.8-31.1c-13.8-18.7-19.6-45.9-17.3-81.5c2.3-35.6,11.5-61.8,27.6-78.6
			c16.1-16.8,39.8-24.2,71.2-22.2c31.4,2,54,12.4,67.8,31.1c13.8,18.7,19.6,45.9,17.3,81.5C327.2-60,318-33.8,301.9-16.9
			C285.8-0.1,262.1,7.3,230.7,5.3z M234.2-49.6c5.4,0.3,9.7-0.8,12.8-3.6c3.1-2.7,5.5-7.8,7.1-15.3c1.6-7.5,2.9-18,3.8-31.6
			c0.9-13.6,1-24.2,0.3-31.8c-0.7-7.6-2.4-13-5.1-16.1c-2.7-3.1-6.8-4.9-12.3-5.2c-5.2-0.3-9.5,0.9-12.7,3.6
			c-3.2,2.7-5.7,7.8-7.3,15.3c-1.6,7.5-2.9,18-3.8,31.6c-0.9,13.6-1,24.2-0.3,31.8c0.7,7.6,2.4,13,5.3,16.1
			C224.9-51.7,229-50,234.2-49.6z"/>
	</g>
</g>
<g transform="translate(91.15 359.94)">
	<g class="st0">
		<path class="st3" d="M-34.4-22.7v-29h24.1v7.5h-13.8v3.6H-13v6.9h-11.2v3.4h14.4v7.5H-34.4z"/>
		<path class="st3" d="M-7.4-22.7v-22h9.1l0.2,4.8c0.6-1.7,1.6-3,2.9-3.9c1.3-0.9,2.9-1.4,4.7-1.4c1.7,0,3.1,0.4,4.1,1.1
			c1.1,0.8,1.9,1.8,2.3,3.2c0.5-0.9,1-1.7,1.7-2.4c0.7-0.7,1.5-1.2,2.4-1.5c0.9-0.3,2-0.5,3.1-0.5c1.5,0,2.7,0.3,3.7,0.9
			c1,0.6,1.8,1.4,2.3,2.5c0.5,1.1,0.8,2.4,0.8,4v15H20.1v-12.4c0-1-0.1-1.7-0.4-2c-0.2-0.4-0.6-0.5-1.2-0.5c-0.5,0-0.9,0.1-1.2,0.4
			c-0.3,0.2-0.6,0.6-0.7,1.1c-0.1,0.5-0.2,1.2-0.2,2v11.5H6.4v-12.4c0-1-0.1-1.7-0.4-2c-0.2-0.4-0.6-0.5-1.2-0.5
			c-0.5,0-0.9,0.1-1.2,0.4s-0.6,0.6-0.7,1.1c-0.1,0.5-0.2,1.2-0.2,2v11.5H-7.4z"/>
		<path class="st3" d="M33.6-13.5v-31.2h9.2l0.5,9.7l-1.1-1.1c0.1-1.7,0.5-3.3,1.1-4.6s1.5-2.4,2.7-3.2c1.1-0.8,2.5-1.2,4-1.2
			c1.8,0,3.3,0.4,4.6,1.3c1.2,0.9,2.2,2.2,2.8,3.8c0.6,1.7,1,3.7,1,6.1c0,2.4-0.3,4.5-1,6.2c-0.7,1.7-1.6,3-2.9,4s-2.8,1.4-4.6,1.4
			c-2.1,0-3.8-0.7-4.9-2.1s-1.9-3.1-2.2-5.2l0.9-1.3v17.4H33.6z M45.8-29.4c0.7,0,1.3-0.3,1.7-0.9c0.4-0.6,0.6-1.7,0.6-3.4
			c0-1.7-0.2-2.9-0.6-3.5c-0.4-0.6-1-0.9-1.7-0.9c-0.4,0-0.8,0.2-1.1,0.5c-0.3,0.3-0.6,0.8-0.7,1.4s-0.3,1.5-0.3,2.5
			c0,0.9,0.1,1.7,0.2,2.4c0.1,0.6,0.4,1.1,0.7,1.4S45.4-29.4,45.8-29.4z"/>
		<path class="st3" d="M61.1-22.7v-22h9.1l0.2,5.5c0.5-1.8,1.3-3.3,2.3-4.3c1-1.1,2.4-1.6,4.1-1.6c0.7,0,1.2,0.1,1.5,0.2
			c0.4,0.1,0.6,0.2,0.7,0.4l-0.8,8.1c-0.3-0.1-0.6-0.2-1.1-0.3c-0.5-0.1-1-0.1-1.6-0.1c-0.9,0-1.6,0.1-2.3,0.4
			c-0.6,0.3-1.1,0.7-1.5,1.2c-0.4,0.5-0.5,1.2-0.5,2v10.5H61.1z"/>
		<path class="st3" d="M92.3-22.3c-2.6,0-4.9-0.4-6.8-1.3c-1.9-0.9-3.3-2.2-4.3-3.9c-1-1.7-1.5-3.8-1.5-6.2c0-2.4,0.5-4.5,1.5-6.2
			c1-1.7,2.4-3,4.3-3.9c1.8-0.9,4-1.3,6.4-1.3c2.5,0,4.6,0.4,6.3,1.3c1.7,0.9,3.1,2.1,4,3.8c0.9,1.6,1.4,3.5,1.4,5.6
			c0,0.5,0,1-0.1,1.4c0,0.5-0.1,0.9-0.2,1.2H86.3v-3.7H99l-4.8,1.9c0-1.6-0.1-2.8-0.4-3.6s-0.9-1.2-1.8-1.2c-0.6,0-1.1,0.1-1.5,0.4
			c-0.4,0.3-0.7,0.8-0.9,1.5c-0.2,0.7-0.3,1.7-0.3,3s0.1,2.2,0.4,2.9s0.6,1.1,1,1.3c0.5,0.2,1,0.3,1.7,0.3c0.8,0,1.4-0.2,1.8-0.5
			c0.4-0.3,0.7-0.8,0.9-1.4l8.1,2.2c-0.3,1.4-1,2.6-2.2,3.6c-1.1,1-2.4,1.7-4,2.1C95.6-22.5,94-22.3,92.3-22.3z"/>
		<path class="st3" d="M116.2-22.3c-2.1,0-4.2-0.3-6.2-0.9c-2-0.6-3.7-1.5-5.2-2.6l3.6-5.2c0.8,0.7,1.8,1.3,3.1,1.9
			c1.3,0.5,2.6,0.8,3.9,0.8c0.5,0,0.9-0.1,1.3-0.2s0.6-0.3,0.6-0.6c0-0.2-0.1-0.4-0.3-0.5s-0.7-0.2-1.4-0.4l-1.6-0.3
			c-3.2-0.6-5.4-1.5-6.8-2.6c-1.3-1.1-2-2.7-2-4.6c0-1.2,0.4-2.4,1.2-3.5c0.8-1.2,2-2.1,3.7-2.9c1.7-0.8,3.9-1.1,6.7-1.1
			c2.3,0,4.3,0.3,6.1,0.9c1.8,0.6,3.3,1.4,4.4,2.3l-3.5,5c-0.8-0.6-1.9-1.2-3.1-1.6c-1.3-0.4-2.4-0.6-3.5-0.6c-0.5,0-0.8,0-1.1,0.1
			c-0.3,0.1-0.5,0.1-0.6,0.2s-0.2,0.2-0.2,0.4c0,0.2,0.1,0.4,0.4,0.6c0.3,0.2,0.9,0.3,1.7,0.5l3.1,0.5c2.4,0.4,4.1,1.1,5.2,2.3
			c1.1,1.1,1.6,2.5,1.6,4.2c0,1.4-0.4,2.8-1.2,4c-0.8,1.2-2,2.2-3.6,2.9C121.1-22.6,118.9-22.3,116.2-22.3z"/>
		<path class="st3" d="M141.6-36.4c0-0.7-0.2-1.2-0.5-1.6s-0.8-0.6-1.4-0.6c-0.6,0-1.1,0.2-1.5,0.5c-0.4,0.4-0.6,1.1-0.7,2.1
			l-8.5-1.2c0.2-2.4,1.3-4.4,3.2-5.8c1.9-1.4,4.7-2.2,8.3-2.2c2.5,0,4.6,0.4,6.3,1.1c1.7,0.7,2.9,1.7,3.7,2.9
			c0.8,1.3,1.2,2.7,1.2,4.4v6.8c0,1.2,0.6,1.8,1.7,1.8c0.3,0,0.6,0,0.7-0.1l-0.4,5.2c-1.1,0.5-2.4,0.8-3.9,0.8
			c-1.4,0-2.6-0.2-3.7-0.6c-1.1-0.4-1.9-1-2.5-1.8c-0.6-0.8-0.9-1.8-0.9-3.1v-0.4h1c0,1.1-0.4,2.1-1.1,3c-0.7,0.9-1.6,1.6-2.7,2.1
			c-1.1,0.5-2.4,0.8-3.9,0.8c-1.6,0-2.9-0.2-3.9-0.7s-1.9-1.1-2.4-2c-0.6-0.9-0.8-1.9-0.8-3.1c0-1.6,0.5-2.9,1.5-3.9
			c1-1,2.5-1.7,4.4-2.1l7.6-1.6l0,3.6l-2.4,0.6c-0.6,0.1-1.1,0.4-1.3,0.7c-0.3,0.3-0.4,0.8-0.4,1.3c0,0.5,0.1,0.8,0.4,1.1
			c0.3,0.3,0.7,0.4,1.2,0.4c0.2,0,0.5,0,0.7-0.1c0.2-0.1,0.4-0.2,0.6-0.4c0.2-0.2,0.3-0.4,0.4-0.6c0.1-0.2,0.1-0.5,0.1-0.9V-36.4z"
			/>
		<path class="st3" d="M165.6-22.3c-2.1,0-4.2-0.3-6.2-0.9c-2-0.6-3.7-1.5-5.2-2.6l3.6-5.2c0.8,0.7,1.8,1.3,3.1,1.9
			c1.3,0.5,2.6,0.8,3.9,0.8c0.5,0,0.9-0.1,1.3-0.2s0.6-0.3,0.6-0.6c0-0.2-0.1-0.4-0.3-0.5s-0.7-0.2-1.4-0.4l-1.6-0.3
			c-3.2-0.6-5.4-1.5-6.8-2.6c-1.3-1.1-2-2.7-2-4.6c0-1.2,0.4-2.4,1.2-3.5c0.8-1.2,2-2.1,3.7-2.9c1.7-0.8,3.9-1.1,6.7-1.1
			c2.3,0,4.3,0.3,6.1,0.9c1.8,0.6,3.3,1.4,4.4,2.3l-3.5,5c-0.8-0.6-1.9-1.2-3.1-1.6c-1.3-0.4-2.4-0.6-3.5-0.6c-0.5,0-0.8,0-1.1,0.1
			c-0.3,0.1-0.5,0.1-0.6,0.2s-0.2,0.2-0.2,0.4c0,0.2,0.1,0.4,0.4,0.6c0.3,0.2,0.9,0.3,1.7,0.5l3.1,0.5c2.4,0.4,4.1,1.1,5.2,2.3
			c1.1,1.1,1.6,2.5,1.6,4.2c0,1.4-0.4,2.8-1.2,4c-0.8,1.2-2,2.2-3.6,2.9C170.5-22.6,168.3-22.3,165.6-22.3z"/>
	</g>
</g>
</svg>
