<?xml version="1.0" encoding="utf-8"?>
<!-- Generator: Adobe Illustrator 26.3.1, SVG Export Plug-In . SVG Version: 6.00 Build 0)  -->
<svg version="1.1" id="Capa_1" xmlns="http://www.w3.org/2000/svg" xmlns:xlink="http://www.w3.org/1999/xlink" x="0px" y="0px"
	 viewBox="0 0 331.7 399.4" style="enable-background:new 0 0 331.7 399.4;" xml:space="preserve">
<style type="text/css">
	.st0{enable-background:new    ;}
	.st1{fill:#081E66;}
	.st2{fill:none;stroke:#FFD400;stroke-width:3;stroke-miterlimit:10;}
	.st3{fill:#3A3A3A;}
</style>
<g transform="translate(90.73 314.15)">
	<g class="st0">
		<path class="st1" d="M75.3-261.3c11.8,0,23.1,1.5,33.9,4.6c10.7,3.1,20.2,8.2,28.5,15.5c8.2,7.2,14.1,17.1,17.6,29.6L94.4-183
			c-1.5-6.4-4.3-11.3-8.2-14.8c-3.9-3.5-9.1-5.3-15.5-5.3c-4.2,0-8.1,0.9-11.8,2.6c-3.7,1.8-7,4.4-9.7,7.9
			c-2.7,3.5-4.9,8.1-6.4,13.8c-1.5,5.7-2.3,12.5-2.3,20.4c0,0.9,0,1.6,0,2.3c0,0.7,0,1.5,0,2.6l0.3,3.3c2.6-4.8,6.5-9,11.7-12.7
			c5.2-3.6,11-6.5,17.6-8.6c6.6-2.1,13.2-3.1,19.7-3.1c12.7,0,24.1,2.5,34.2,7.4c10.1,4.9,18.1,12.1,24.2,21.4c6,9.3,9,20.7,9,34
			c0,15.1-3.6,28.2-10.7,39.3c-7.1,11.1-17.1,19.6-29.9,25.7c-12.8,6-27.9,9-45.2,9c-19.1,0-36.2-3.7-51.3-11
			C4.9-56-7.1-67.6-16-83.5c-8.9-15.9-13.3-36.8-13.3-62.7c0-26.8,4.7-48.6,14-65.5C-6-228.5,6.5-241,22.3-249.2
			C38.1-257.3,55.8-261.3,75.3-261.3z M70-128.1c-3.5,0-6.8,0.7-9.9,2.1c-3.1,1.4-5.6,3.5-7.6,6.2c-2,2.7-3,6.1-3,10s1,7.3,3,10
			c2,2.7,4.5,4.8,7.6,6.2c3.1,1.4,6.4,2.1,9.9,2.1c6.4,0,11.2-1.6,14.6-4.8c3.4-3.2,5.1-7.7,5.1-13.7c0-3.9-0.8-7.3-2.3-10
			c-1.5-2.7-3.7-4.8-6.6-6.2C78-127.4,74.4-128.1,70-128.1z"/>
	</g>
</g>
<g transform="translate(79.74 314.61) rotate(3.67)">
	<g class="st0">
		<path class="st2" d="M79.7-260.3c11.8,0.8,23,3,33.5,6.8c10.5,3.8,19.7,9.5,27.4,17.2c7.7,7.7,13,18,15.7,30.7L93.7-181
			c-1.1-6.4-3.5-11.5-7.3-15.3c-3.7-3.7-8.7-5.8-15.1-6.2c-4.2-0.3-8.2,0.4-12,1.9c-3.8,1.5-7.2,3.9-10.2,7.3
			c-3,3.3-5.4,7.8-7.3,13.4c-1.9,5.6-3.1,12.3-3.6,20.2c-0.1,0.9-0.1,1.6-0.1,2.3c0,0.7-0.1,1.5-0.2,2.6l0.1,3.3
			c2.9-4.6,7.1-8.6,12.5-11.9c5.4-3.3,11.4-5.7,18.1-7.4c6.7-1.7,13.3-2.3,19.9-1.9c12.7,0.8,23.9,4,33.7,9.6
			c9.7,5.6,17.3,13.2,22.8,22.9c5.4,9.7,7.7,21.2,6.8,34.6c-1,15.1-5.4,27.9-13.2,38.5c-7.8,10.6-18.3,18.5-31.5,23.7
			c-13.2,5.2-28.4,7.2-45.7,6.1c-19-1.2-35.9-6-50.5-14.3C-3.7-60-15-72.3-22.8-88.8c-7.8-16.4-10.9-37.6-9.3-63.4
			c1.7-26.7,7.8-48.2,18.1-64.4c10.4-16.3,23.7-27.9,40-35C42.3-258.7,60.2-261.6,79.7-260.3z M65.9-127.7c-3.5-0.2-6.8,0.3-10,1.5
			c-3.2,1.2-5.8,3.1-7.9,5.8c-2.1,2.6-3.3,5.9-3.6,9.8c-0.3,3.9,0.5,7.3,2.3,10.2c1.8,2.9,4.2,5.1,7.2,6.7c3,1.6,6.2,2.5,9.7,2.8
			c6.3,0.4,11.3-0.9,14.9-3.8c3.6-3,5.6-7.4,6-13.3c0.3-3.9-0.3-7.3-1.7-10.2c-1.4-2.8-3.4-5.1-6.2-6.7
			C73.8-126.5,70.3-127.5,65.9-127.7z"/>
	</g>
</g>
<g>
	<g transform="translate(31 388.95)">
		<g class="st0">
			<path class="st3" d="M10.4-59.8c-0.5,2.1-1.3,3.7-2.5,5c-1.2,1.3-2.6,2.2-4.2,2.7c-1.7,0.5-3.5,0.8-5.5,0.8
				c-2.8,0-5.2-0.5-7.2-1.6c-2-1.1-3.6-2.6-4.6-4.6s-1.6-4.5-1.6-7.4s0.5-5.3,1.6-7.4s2.6-3.6,4.6-4.6c2-1.1,4.4-1.6,7.2-1.6
				c2,0,3.8,0.3,5.5,0.8c1.7,0.5,3.1,1.4,4.3,2.6c1.2,1.2,1.9,2.7,2.3,4.6l-8,3.1c-0.2-1.7-0.6-2.9-1.3-3.4
				c-0.7-0.5-1.5-0.8-2.5-0.8c-0.9,0-1.7,0.2-2.3,0.7c-0.6,0.5-1.1,1.2-1.4,2.2c-0.3,1-0.5,2.2-0.5,3.7c0,1.5,0.1,2.7,0.4,3.7
				s0.7,1.7,1.4,2.2s1.5,0.7,2.6,0.7c1,0,1.7-0.3,2.4-0.9c0.6-0.6,1-1.5,1.2-2.7L10.4-59.8z"/>
			<path class="st3" d="M22.7-72.1c2.2,0,4.2,0.4,5.9,1.2c1.7,0.8,3,2,3.9,3.5c0.9,1.5,1.4,3.4,1.4,5.7c0,2.2-0.5,4.1-1.4,5.6
				c-0.9,1.6-2.2,2.8-3.9,3.6c-1.7,0.8-3.6,1.2-5.9,1.2c-2.2,0-4.2-0.4-5.9-1.2c-1.7-0.8-3-2-3.9-3.6c-0.9-1.6-1.4-3.4-1.4-5.6
				c0-2.2,0.5-4.1,1.4-5.7c0.9-1.5,2.2-2.7,3.9-3.5C18.5-71.7,20.5-72.1,22.7-72.1z M22.7-65.9c-0.4,0-0.7,0.1-1,0.3
				c-0.3,0.2-0.5,0.6-0.7,1.3c-0.1,0.6-0.2,1.5-0.2,2.6s0.1,2,0.2,2.6c0.1,0.6,0.4,1,0.7,1.3c0.3,0.2,0.6,0.4,1,0.4
				c0.4,0,0.8-0.1,1.1-0.4c0.3-0.2,0.5-0.7,0.6-1.3c0.1-0.6,0.2-1.5,0.2-2.6s-0.1-2-0.2-2.6c-0.1-0.6-0.4-1-0.6-1.3
				C23.5-65.8,23.1-65.9,22.7-65.9z"/>
			<path class="st3" d="M36.2-51.7v-20h8.3l0.4,8.5l-0.9-1c0.2-1.7,0.6-3.1,1.2-4.2c0.6-1.2,1.5-2.1,2.6-2.7
				c1.1-0.6,2.4-0.9,3.9-0.9c1.3,0,2.5,0.3,3.4,0.8c0.9,0.5,1.6,1.3,2.1,2.3c0.5,1,0.7,2.2,0.7,3.7v13.7h-9.2v-11.4
				c0-0.9-0.1-1.4-0.4-1.7c-0.2-0.3-0.6-0.5-1.1-0.5c-0.4,0-0.8,0.1-1.1,0.3s-0.5,0.5-0.6,1c-0.1,0.5-0.2,1-0.2,1.8v10.6H36.2z"/>
			<path class="st3" d="M76.6-71.7v6.2h-17v-6.2H76.6z M71.2-80.5c1.3,0,2.5,0.1,3.5,0.4c1,0.3,1.7,0.5,2.1,0.8L76.3-74
				c-0.3-0.1-0.6-0.3-1-0.4c-0.4-0.1-0.9-0.2-1.5-0.2c-0.8,0-1.5,0.2-2.1,0.5c-0.6,0.3-0.8,1-0.8,2v2.3l0.6,1.2v16.9h-9.2v-20.8
				c0-1.5,0.3-2.8,0.8-3.9s1.2-1.9,2.1-2.5s1.9-1,2.9-1.3C69.2-80.4,70.2-80.5,71.2-80.5z"/>
			<path class="st3" d="M89-51.3c-2.4,0-4.5-0.4-6.2-1.2c-1.7-0.8-3-2-3.9-3.5c-0.9-1.5-1.4-3.4-1.4-5.7c0-2.2,0.5-4.1,1.4-5.7
				s2.2-2.7,3.9-3.5c1.7-0.8,3.6-1.2,5.8-1.2c2.3,0,4.2,0.4,5.8,1.2s2.8,2,3.6,3.4c0.8,1.5,1.2,3.2,1.2,5.1c0,0.4,0,0.9-0.1,1.3
				s-0.1,0.8-0.1,1.1H83.5v-3.4h11.6l-4.4,1.7c0-1.4-0.1-2.5-0.4-3.3S89.5-66,88.7-66c-0.6,0-1,0.1-1.4,0.4
				c-0.4,0.3-0.6,0.7-0.8,1.4c-0.2,0.7-0.2,1.6-0.2,2.7c0,1.1,0.1,2,0.3,2.6c0.2,0.6,0.5,1,0.9,1.2c0.4,0.2,0.9,0.3,1.6,0.3
				c0.7,0,1.2-0.2,1.6-0.5c0.4-0.3,0.6-0.7,0.8-1.3l7.4,2c-0.3,1.3-0.9,2.4-2,3.3c-1,0.9-2.2,1.5-3.6,1.9
				C91.9-51.5,90.5-51.3,89-51.3z"/>
			<path class="st3" d="M101.5-51.7v-20h8.3l0.2,5c0.5-1.7,1.2-3,2.1-3.9c0.9-1,2.2-1.5,3.8-1.5c0.6,0,1.1,0.1,1.4,0.2
				c0.3,0.1,0.5,0.2,0.7,0.3l-0.8,7.4c-0.2-0.1-0.6-0.2-1-0.3c-0.5-0.1-0.9-0.1-1.5-0.1c-0.8,0-1.5,0.1-2.1,0.4
				c-0.6,0.3-1,0.6-1.4,1.1c-0.3,0.5-0.5,1.1-0.5,1.8v9.6H101.5z"/>
			<path class="st3" d="M130-51.3c-2.4,0-4.5-0.4-6.2-1.2c-1.7-0.8-3-2-3.9-3.5c-0.9-1.5-1.4-3.4-1.4-5.7c0-2.2,0.5-4.1,1.4-5.7
				s2.2-2.7,3.9-3.5c1.7-0.8,3.6-1.2,5.8-1.2c2.3,0,4.2,0.4,5.8,1.2s2.8,2,3.6,3.4s1.2,3.2,1.2,5.1c0,0.4,0,0.9-0.1,1.3
				s-0.1,0.8-0.1,1.1h-15.6v-3.4h11.6l-4.4,1.7c0-1.4-0.1-2.5-0.4-3.3s-0.8-1.1-1.7-1.1c-0.6,0-1,0.1-1.4,0.4
				c-0.4,0.3-0.6,0.7-0.8,1.4c-0.2,0.7-0.2,1.6-0.2,2.7c0,1.1,0.1,2,0.3,2.6c0.2,0.6,0.5,1,0.9,1.2c0.4,0.2,0.9,0.3,1.6,0.3
				c0.7,0,1.2-0.2,1.6-0.5c0.4-0.3,0.6-0.7,0.8-1.3l7.4,2c-0.3,1.3-0.9,2.4-2,3.3c-1,0.9-2.2,1.5-3.6,1.9
				C133-51.5,131.5-51.3,130-51.3z"/>
			<path class="st3" d="M142.6-51.7v-20h8.3l0.4,8.5l-0.9-1c0.2-1.7,0.6-3.1,1.2-4.2c0.6-1.2,1.5-2.1,2.6-2.7
				c1.1-0.6,2.4-0.9,3.9-0.9c1.3,0,2.5,0.3,3.4,0.8c0.9,0.5,1.6,1.3,2.1,2.3c0.5,1,0.7,2.2,0.7,3.7v13.7h-9.2v-11.4
				c0-0.9-0.1-1.4-0.4-1.7c-0.2-0.3-0.6-0.5-1.1-0.5c-0.4,0-0.8,0.1-1.1,0.3s-0.5,0.5-0.6,1c-0.1,0.5-0.2,1-0.2,1.8v10.6H142.6z"/>
			<path class="st3" d="M177.8-72.1c2.5,0,4.5,0.3,6,1c1.5,0.7,2.7,1.5,3.4,2.6c0.7,1,1.1,2.1,1.1,3.2l-8.5,2.5
				c0-1.1-0.1-1.8-0.4-2.3c-0.3-0.5-0.7-0.7-1.3-0.7c-0.5,0-1,0.1-1.3,0.4s-0.6,0.7-0.7,1.3c-0.1,0.6-0.2,1.5-0.2,2.6
				c0,1.1,0.1,2,0.3,2.6c0.2,0.6,0.5,1,0.8,1.2c0.3,0.2,0.7,0.3,1.2,0.3c0.4,0,0.7-0.1,1-0.3c0.2-0.2,0.4-0.5,0.6-0.9
				c0.1-0.4,0.2-0.9,0.3-1.4l8.3,2.6c0,1.1-0.5,2.2-1.3,3.1c-0.8,0.9-2,1.7-3.5,2.3c-1.5,0.6-3.2,0.9-5.3,0.9
				c-2.4,0-4.5-0.4-6.2-1.2c-1.7-0.8-3.1-2-4-3.5c-0.9-1.5-1.4-3.4-1.4-5.7c0-2.2,0.5-4.1,1.4-5.7s2.2-2.7,3.9-3.5
				S175.6-72.1,177.8-72.1z"/>
			<path class="st3" d="M194.9-73c-1.8,0-3.1-0.3-3.9-0.9s-1.1-1.6-1.1-3c0-1.4,0.4-2.4,1.1-3c0.8-0.6,2.1-0.9,3.9-0.9
				c1.8,0,3.1,0.3,3.9,0.9c0.8,0.6,1.1,1.6,1.1,3c0,1.4-0.4,2.4-1.1,3C198-73.3,196.8-73,194.9-73z M199.5-71.7v20h-9.2v-20H199.5z"
				/>
			<path class="st3" d="M211.9-51.3c-2,0-3.8-0.3-5.6-0.8s-3.4-1.3-4.7-2.4l3.3-4.8c0.7,0.6,1.7,1.2,2.8,1.7
				c1.2,0.5,2.4,0.7,3.5,0.7c0.5,0,0.9-0.1,1.2-0.2c0.4-0.1,0.5-0.3,0.5-0.6c0-0.2-0.1-0.4-0.3-0.5c-0.2-0.1-0.6-0.2-1.3-0.3
				l-1.4-0.3c-2.9-0.6-5-1.4-6.2-2.4s-1.8-2.4-1.8-4.2c0-1.1,0.4-2.2,1.1-3.2c0.7-1.1,1.8-1.9,3.4-2.6c1.5-0.7,3.6-1,6.1-1
				c2.1,0,4,0.3,5.6,0.8c1.7,0.5,3,1.2,4,2.1l-3.2,4.6c-0.7-0.6-1.7-1.1-2.9-1.4s-2.2-0.5-3.2-0.5c-0.4,0-0.8,0-1,0.1
				c-0.3,0.1-0.5,0.1-0.6,0.2c-0.1,0.1-0.2,0.2-0.2,0.3c0,0.2,0.1,0.4,0.4,0.5s0.8,0.3,1.6,0.4l2.8,0.5c2.2,0.3,3.7,1,4.8,2.1
				c1,1,1.5,2.3,1.5,3.8c0,1.3-0.4,2.5-1.1,3.6c-0.7,1.1-1.8,2-3.3,2.7C216.3-51.6,214.3-51.3,211.9-51.3z"/>
		</g>
		<g class="st0">
			<path class="st3" d="M240.1-71.7v6.2h-17.4v-6.2H240.1z M235.1-78.5v18.7c0,0.9,0.2,1.6,0.6,1.9c0.4,0.4,1,0.6,1.8,0.6
				c0.5,0,1,0,1.4-0.1c0.4-0.1,0.8-0.2,1.1-0.4l0.4,5.2c-0.7,0.4-1.6,0.8-2.7,1c-1.1,0.2-2.2,0.4-3.2,0.4c-1.9,0-3.4-0.2-4.7-0.7
				c-1.3-0.5-2.2-1.2-2.9-2.3c-0.7-1-1-2.4-1-4.2V-76L235.1-78.5z"/>
		</g>
		<g class="st0">
			<path class="st3" d="M253.6-64.2c0-0.6-0.1-1.1-0.4-1.4c-0.3-0.3-0.7-0.5-1.3-0.5c-0.6,0-1,0.2-1.4,0.5s-0.6,1-0.6,1.9l-7.8-1.1
				c0.2-2.2,1.1-4,2.9-5.3c1.7-1.3,4.3-2,7.6-2c2.3,0,4.2,0.3,5.8,1s2.6,1.5,3.4,2.7c0.7,1.1,1.1,2.5,1.1,4v6.2
				c0,1.1,0.5,1.6,1.6,1.6c0.3,0,0.5,0,0.7-0.1l-0.4,4.7c-1,0.5-2.2,0.7-3.6,0.7c-1.3,0-2.4-0.2-3.3-0.5c-1-0.4-1.7-0.9-2.3-1.6
				c-0.5-0.7-0.8-1.7-0.8-2.8v-0.4h0.9c0,1-0.4,1.9-1,2.7c-0.6,0.8-1.5,1.5-2.5,1.9c-1,0.5-2.2,0.7-3.6,0.7c-1.4,0-2.6-0.2-3.6-0.6
				c-1-0.4-1.7-1-2.2-1.8c-0.5-0.8-0.8-1.8-0.8-2.8c0-1.5,0.5-2.7,1.4-3.6s2.3-1.6,4-1.9l7-1.4l0,3.2l-2.2,0.5
				c-0.6,0.1-1,0.4-1.2,0.7c-0.2,0.3-0.4,0.7-0.4,1.1c0,0.4,0.1,0.8,0.4,1c0.3,0.3,0.6,0.4,1.1,0.4c0.2,0,0.4,0,0.6-0.1
				s0.4-0.2,0.5-0.4s0.3-0.4,0.3-0.6c0.1-0.2,0.1-0.5,0.1-0.8V-64.2z"/>
			<path class="st3" d="M275.6-51.3c-2,0-3.8-0.3-5.6-0.8s-3.4-1.3-4.7-2.4l3.3-4.8c0.7,0.6,1.7,1.2,2.8,1.7
				c1.2,0.5,2.4,0.7,3.5,0.7c0.5,0,0.9-0.1,1.2-0.2c0.4-0.1,0.5-0.3,0.5-0.6c0-0.2-0.1-0.4-0.3-0.5c-0.2-0.1-0.6-0.2-1.3-0.3
				l-1.4-0.3c-2.9-0.6-5-1.4-6.2-2.4s-1.8-2.4-1.8-4.2c0-1.1,0.4-2.2,1.1-3.2c0.7-1.1,1.8-1.9,3.4-2.6c1.5-0.7,3.6-1,6.1-1
				c2.1,0,4,0.3,5.6,0.8c1.7,0.5,3,1.2,4,2.1l-3.2,4.6c-0.7-0.6-1.7-1.1-2.9-1.4s-2.2-0.5-3.2-0.5c-0.4,0-0.8,0-1,0.1
				c-0.3,0.1-0.5,0.1-0.6,0.2c-0.1,0.1-0.2,0.2-0.2,0.3c0,0.2,0.1,0.4,0.4,0.5s0.8,0.3,1.6,0.4l2.8,0.5c2.2,0.3,3.7,1,4.8,2.1
				c1,1,1.5,2.3,1.5,3.8c0,1.3-0.4,2.5-1.1,3.6c-0.7,1.1-1.8,2-3.3,2.7C280-51.6,278-51.3,275.6-51.3z"/>
		</g>
	</g>
	<g class="st0">
		<path class="st3" d="M83.5,350.9v26.5h-8.1v-9.2l0.1-8.9h-0.1l-5.1,18.1h-7.5l-5.1-18.1h-0.2l0.1,8.9v9.2h-8.2v-26.5h13.1l3,11.7
			l1.2,4.9h0.1l1.2-4.9l3-11.7H83.5z"/>
		<path class="st3" d="M97.9,364.9c0-0.6-0.1-1.1-0.4-1.4c-0.3-0.3-0.7-0.5-1.3-0.5c-0.6,0-1,0.2-1.4,0.5c-0.4,0.3-0.6,1-0.6,1.9
			l-7.8-1.1c0.2-2.2,1.1-4,2.9-5.3c1.7-1.3,4.3-2,7.6-2c2.3,0,4.2,0.3,5.8,1c1.5,0.6,2.6,1.5,3.4,2.7c0.7,1.1,1.1,2.5,1.1,4v6.2
			c0,1.1,0.5,1.6,1.6,1.6c0.3,0,0.5,0,0.7-0.1l-0.4,4.7c-1,0.5-2.2,0.7-3.6,0.7c-1.3,0-2.4-0.2-3.3-0.5c-1-0.4-1.7-0.9-2.3-1.6
			c-0.5-0.7-0.8-1.7-0.8-2.8v-0.4h0.9c0,1-0.4,1.9-1,2.7c-0.6,0.8-1.5,1.5-2.5,1.9c-1,0.5-2.2,0.7-3.6,0.7c-1.4,0-2.6-0.2-3.6-0.6
			c-1-0.4-1.7-1-2.2-1.8c-0.5-0.8-0.8-1.8-0.8-2.8c0-1.5,0.5-2.7,1.4-3.6c0.9-0.9,2.3-1.6,4-1.9l7-1.4l0,3.2l-2.2,0.5
			c-0.6,0.1-1,0.4-1.2,0.7c-0.2,0.3-0.4,0.7-0.4,1.1c0,0.4,0.1,0.8,0.4,1c0.3,0.3,0.6,0.4,1.1,0.4c0.2,0,0.4,0,0.6-0.1
			c0.2-0.1,0.4-0.2,0.5-0.4c0.1-0.2,0.3-0.4,0.3-0.6c0.1-0.2,0.1-0.5,0.1-0.8V364.9z"/>
		<path class="st3" d="M124.7,371.7c2.6,0,4.6,0.5,5.9,1.6c1.4,1,2,2.6,2,4.7c0,1.9-0.5,3.4-1.4,4.6c-0.9,1.2-2.3,2.1-4.1,2.6
			c-1.8,0.6-3.9,0.8-6.5,0.8c-3.9,0-6.7-0.4-8.3-1.2s-2.4-2-2.4-3.6c0-1.1,0.5-2,1.6-2.6c1-0.6,2.8-0.9,5.1-0.9l-0.1,0.7
			c-2.1-0.2-3.6-0.8-4.5-1.6s-1.4-2-1.4-3.4c0-1.4,0.6-2.5,1.7-3.3c1.2-0.8,2.6-1.2,4.3-1.2l2.8,1.2h-0.8c-0.9,0-1.5,0.1-1.8,0.2
			c-0.3,0.1-0.5,0.4-0.5,0.7c0,0.3,0.1,0.5,0.4,0.6c0.3,0.1,0.7,0.2,1.3,0.2H124.7z M121.4,356.9c2.4,0,4.3,0.3,5.9,0.8
			c1.6,0.5,2.8,1.3,3.6,2.3c0.8,1,1.2,2.3,1.2,3.8c0,1.5-0.4,2.8-1.2,3.8c-0.8,1-2,1.8-3.6,2.2c-1.6,0.5-3.5,0.7-5.9,0.7
			c-3.5,0-6.2-0.6-8-1.7s-2.7-2.8-2.7-5.1c0-1.5,0.4-2.8,1.2-3.8c0.8-1,2-1.8,3.6-2.3C117.2,357.2,119.1,356.9,121.4,356.9z
			 M120.9,380.4c1.1,0,2.1,0,2.8-0.1c0.7-0.1,1.3-0.2,1.7-0.4c0.4-0.2,0.6-0.4,0.6-0.7c0-0.2-0.1-0.3-0.2-0.4
			c-0.1-0.1-0.3-0.1-0.6-0.1h-7.8c-0.3,0-0.5,0.1-0.6,0.2c-0.1,0.1-0.2,0.3-0.2,0.5c0,0.3,0.4,0.6,1.2,0.8
			C118.4,380.3,119.5,380.4,120.9,380.4z M121.4,361.7c-0.5,0-0.9,0.2-1.2,0.5c-0.3,0.3-0.4,0.8-0.4,1.6s0.1,1.2,0.4,1.6
			c0.3,0.3,0.7,0.5,1.2,0.5c0.5,0,0.9-0.2,1.2-0.5c0.3-0.3,0.4-0.8,0.4-1.6s-0.1-1.2-0.4-1.6C122.4,361.9,122,361.7,121.4,361.7z
			 M132.1,350.8l0.5,5.7c-0.3-0.1-0.5-0.1-0.7-0.1c-0.2,0-0.4,0-0.7,0c-1.1,0-1.9,0.3-2.4,0.9c-0.5,0.6-0.7,1.2-0.7,1.9l-2.7-0.8
			c0-1.1,0.2-2.3,0.5-3.5c0.3-1.2,0.9-2.1,1.8-2.9c0.9-0.8,2-1.2,3.5-1.2c0.1,0,0.3,0,0.4,0S131.9,350.8,132.1,350.8z"/>
		<path class="st3" d="M138.8,356.1c-1.8,0-3.1-0.3-3.9-0.9s-1.1-1.6-1.1-3c0-1.4,0.4-2.4,1.1-3c0.8-0.6,2.1-0.9,3.9-0.9
			c1.8,0,3.1,0.3,3.9,0.9c0.8,0.6,1.1,1.6,1.1,3c0,1.4-0.4,2.4-1.1,3C141.9,355.8,140.6,356.1,138.8,356.1z M143.4,357.3v20h-9.2
			v-20H143.4z"/>
		<path class="st3" d="M155.7,377.8c-2,0-3.8-0.3-5.6-0.8s-3.4-1.3-4.7-2.4l3.3-4.8c0.7,0.6,1.7,1.2,2.8,1.7
			c1.2,0.5,2.4,0.7,3.5,0.7c0.5,0,0.9-0.1,1.2-0.2c0.4-0.1,0.5-0.3,0.5-0.6c0-0.2-0.1-0.4-0.3-0.5c-0.2-0.1-0.6-0.2-1.3-0.3
			l-1.4-0.3c-2.9-0.6-5-1.4-6.2-2.4c-1.2-1-1.8-2.4-1.8-4.2c0-1.1,0.4-2.2,1.1-3.2c0.7-1.1,1.8-1.9,3.4-2.6c1.5-0.7,3.6-1,6.1-1
			c2.1,0,4,0.3,5.6,0.8c1.7,0.5,3,1.2,4,2.1l-3.2,4.6c-0.7-0.6-1.7-1.1-2.9-1.4c-1.2-0.4-2.2-0.5-3.2-0.5c-0.4,0-0.8,0-1,0.1
			s-0.5,0.1-0.6,0.2s-0.2,0.2-0.2,0.3c0,0.2,0.1,0.4,0.4,0.5c0.3,0.2,0.8,0.3,1.6,0.4l2.8,0.5c2.2,0.3,3.7,1,4.7,2.1
			c1,1,1.5,2.3,1.5,3.8c0,1.3-0.4,2.5-1.1,3.6c-0.7,1.1-1.8,2-3.3,2.7C160.2,377.4,158.2,377.8,155.7,377.8z"/>
		<path class="st3" d="M184,357.3v6.2h-17.4v-6.2H184z M179,350.5v18.7c0,0.9,0.2,1.6,0.6,1.9c0.4,0.4,1,0.6,1.8,0.6
			c0.5,0,1,0,1.4-0.1c0.4-0.1,0.8-0.2,1.1-0.4l0.4,5.2c-0.7,0.4-1.6,0.8-2.7,1c-1.1,0.2-2.2,0.4-3.2,0.4c-1.9,0-3.4-0.2-4.7-0.7
			c-1.3-0.5-2.2-1.2-2.9-2.3c-0.7-1-1-2.4-1-4.2v-17.6L179,350.5z"/>
		<path class="st3" d="M186.1,377.4v-20h8.3l0.2,5c0.5-1.7,1.2-3,2.1-3.9c0.9-1,2.2-1.5,3.8-1.5c0.6,0,1.1,0.1,1.4,0.2
			c0.3,0.1,0.5,0.2,0.7,0.3l-0.8,7.4c-0.2-0.1-0.6-0.2-1-0.3c-0.5-0.1-0.9-0.1-1.5-0.1c-0.8,0-1.5,0.1-2.1,0.4
			c-0.6,0.3-1,0.6-1.4,1.1c-0.3,0.5-0.5,1.1-0.5,1.8v9.6H186.1z"/>
		<path class="st3" d="M214.7,364.9c0-0.6-0.1-1.1-0.4-1.4c-0.3-0.3-0.7-0.5-1.3-0.5c-0.6,0-1,0.2-1.4,0.5s-0.6,1-0.6,1.9l-7.8-1.1
			c0.2-2.2,1.1-4,2.9-5.3c1.7-1.3,4.3-2,7.6-2c2.3,0,4.2,0.3,5.8,1s2.6,1.5,3.4,2.7c0.7,1.1,1.1,2.5,1.1,4v6.2
			c0,1.1,0.5,1.6,1.6,1.6c0.3,0,0.5,0,0.7-0.1l-0.4,4.7c-1,0.5-2.2,0.7-3.6,0.7c-1.3,0-2.4-0.2-3.3-0.5c-1-0.4-1.7-0.9-2.3-1.6
			c-0.5-0.7-0.8-1.7-0.8-2.8v-0.4h0.9c0,1-0.4,1.9-1,2.7c-0.6,0.8-1.5,1.5-2.5,1.9c-1,0.5-2.2,0.7-3.6,0.7c-1.4,0-2.6-0.2-3.6-0.6
			c-1-0.4-1.7-1-2.2-1.8s-0.8-1.8-0.8-2.8c0-1.5,0.5-2.7,1.4-3.6s2.3-1.6,4-1.9l7-1.4l0,3.2l-2.2,0.5c-0.6,0.1-1,0.4-1.2,0.7
			c-0.2,0.3-0.4,0.7-0.4,1.1c0,0.4,0.1,0.8,0.4,1c0.3,0.3,0.6,0.4,1.1,0.4c0.2,0,0.4,0,0.6-0.1s0.4-0.2,0.5-0.4s0.3-0.4,0.3-0.6
			c0.1-0.2,0.1-0.5,0.1-0.8V364.9z"/>
		<path class="st3" d="M236.7,349.3v20.1c0,0.8,0.1,1.4,0.4,1.8c0.2,0.4,0.7,0.6,1.3,0.6c0.3,0,0.6,0,0.8-0.1c0.2,0,0.4-0.1,0.7-0.1
			l-0.4,5c-0.5,0.4-1.2,0.7-2.2,0.9c-0.9,0.2-1.9,0.4-2.8,0.4c-2.5,0-4.3-0.5-5.3-1.6s-1.6-2.9-1.6-5.4v-21.5H236.7z"/>
		<path class="st3" d="M251.8,377.8c-2.4,0-4.5-0.4-6.2-1.2c-1.7-0.8-3-2-3.9-3.5c-0.9-1.5-1.4-3.4-1.4-5.7c0-2.2,0.5-4.1,1.4-5.7
			s2.2-2.7,3.9-3.5s3.6-1.2,5.8-1.2c2.3,0,4.2,0.4,5.8,1.2c1.6,0.8,2.8,2,3.6,3.4s1.2,3.2,1.2,5.1c0,0.4,0,0.9-0.1,1.3
			s-0.1,0.8-0.1,1.1h-15.6v-3.4h11.6l-4.4,1.7c0-1.4-0.1-2.5-0.4-3.3s-0.8-1.1-1.7-1.1c-0.6,0-1,0.1-1.4,0.4
			c-0.4,0.3-0.6,0.7-0.8,1.4c-0.2,0.7-0.2,1.6-0.2,2.7c0,1.1,0.1,2,0.3,2.6c0.2,0.6,0.5,1,0.9,1.2s0.9,0.3,1.6,0.3
			c0.7,0,1.2-0.2,1.6-0.5c0.4-0.3,0.6-0.7,0.8-1.3l7.4,2c-0.3,1.3-0.9,2.4-2,3.3c-1,0.9-2.2,1.5-3.6,1.9
			C254.8,377.6,253.3,377.8,251.8,377.8z"/>
		<path class="st3" d="M273.6,377.8c-2,0-3.8-0.3-5.6-0.8s-3.4-1.3-4.7-2.4l3.3-4.8c0.7,0.6,1.7,1.2,2.8,1.7
			c1.2,0.5,2.4,0.7,3.5,0.7c0.5,0,0.9-0.1,1.2-0.2c0.4-0.1,0.5-0.3,0.5-0.6c0-0.2-0.1-0.4-0.3-0.5c-0.2-0.1-0.6-0.2-1.3-0.3
			l-1.4-0.3c-2.9-0.6-5-1.4-6.2-2.4s-1.8-2.4-1.8-4.2c0-1.1,0.4-2.2,1.1-3.2c0.7-1.1,1.8-1.9,3.4-2.6c1.5-0.7,3.6-1,6.1-1
			c2.1,0,4,0.3,5.6,0.8c1.7,0.5,3,1.2,4,2.1l-3.2,4.6c-0.7-0.6-1.7-1.1-2.9-1.4s-2.2-0.5-3.2-0.5c-0.4,0-0.8,0-1,0.1
			c-0.3,0.1-0.5,0.1-0.6,0.2c-0.1,0.1-0.2,0.2-0.2,0.3c0,0.2,0.1,0.4,0.4,0.5s0.8,0.3,1.6,0.4l2.8,0.5c2.2,0.3,3.7,1,4.8,2.1
			c1,1,1.5,2.3,1.5,3.8c0,1.3-0.4,2.5-1.1,3.6c-0.7,1.1-1.8,2-3.3,2.7C278,377.4,276,377.8,273.6,377.8z"/>
	</g>
</g>
</svg>
