<?xml version="1.0" encoding="utf-8"?>
<!-- Generator: Adobe Illustrator 26.3.1, SVG Export Plug-In . SVG Version: 6.00 Build 0)  -->
<svg version="1.1" id="Capa_1" xmlns="http://www.w3.org/2000/svg" xmlns:xlink="http://www.w3.org/1999/xlink" x="0px" y="0px"
	 viewBox="0 0 100 100" style="enable-background:new 0 0 100 100;" xml:space="preserve">
<style type="text/css">
	.st0{fill:url(#SVGID_1_);}
	.st1{fill:#FFFFFF;}
</style>
<radialGradient id="SVGID_1_" cx="53.0318" cy="46.9618" r="28.8985" gradientUnits="userSpaceOnUse">
	<stop  offset="0" style="stop-color:#33D679"/>
	<stop  offset="1" style="stop-color:#18B85D"/>
</radialGradient>
<path class="st0" d="M66.1,51.45c0.52-0.36,1.13-0.59,1.79-0.66c1.96-0.19,3.42-1.84,3.42-3.76c0-0.16-0.01-0.33-0.03-0.49
	c-0.02-0.16-0.03-0.32-0.03-0.49c0-1.31,0.68-2.54,1.82-3.23c1.18-0.71,1.82-1.96,1.82-3.24c0-0.71-0.2-1.42-0.61-2.06
	c-0.41-0.63-0.61-1.34-0.61-2.06c0-0.72,0.2-1.44,0.61-2.06c0.42-0.64,0.61-1.35,0.61-2.06c0-1.28-0.65-2.52-1.82-3.24
	c-1.14-0.69-1.82-1.92-1.82-3.23c0-0.16,0.01-0.32,0.03-0.49c0.02-0.16,0.03-0.33,0.03-0.49c0-1.92-1.46-3.57-3.42-3.76
	c-0.74-0.07-1.43-0.36-1.99-0.81c-0.56-0.45-1-1.05-1.23-1.77c-0.53-1.59-2.01-2.59-3.59-2.59c-0.43,0-0.87,0.08-1.31,0.23
	c-1.4,0.52-2.98,0.16-4.02-0.92c-0.74-0.77-1.73-1.15-2.72-1.15c-0.99,0-1.97,0.38-2.72,1.15c-0.73,0.75-1.71,1.15-2.72,1.15
	c-0.44,0-0.88-0.08-1.31-0.23c-0.43-0.16-0.87-0.23-1.31-0.23c-1.58,0-3.06,1-3.59,2.59c-0.24,0.71-0.67,1.32-1.23,1.77
	c-0.56,0.45-1.25,0.74-1.99,0.81c-1.96,0.19-3.42,1.84-3.42,3.76c0,0.16,0.01,0.33,0.03,0.49c0.02,0.16,0.03,0.32,0.03,0.49
	c0,1.31-0.68,2.54-1.82,3.23c-1.18,0.71-1.82,1.96-1.82,3.24c0,0.71,0.2,1.42,0.61,2.06c0.41,0.63,0.61,1.34,0.61,2.06
	c0,0.72-0.2,1.44-0.61,2.06c-0.42,0.64-0.61,1.35-0.61,2.06c0,1.28,0.65,2.52,1.82,3.24c1.14,0.69,1.82,1.92,1.82,3.23
	c0,0.16-0.01,0.32-0.03,0.49c-0.02,0.16-0.03,0.33-0.03,0.49c0,1.92,1.46,3.57,3.42,3.76c0.66,0.06,1.27,0.29,1.79,0.66l-9.9,24.02
	l8.4-2.15l4.44,7.44l9.49-23.02c0.21,0.04,0.42,0.05,0.63,0.05c0.21,0,0.42-0.02,0.63-0.05l9.49,23.02l4.44-7.44l8.4,2.15
	L66.1,51.45z M53.03,53.14c-9.76,0-17.67-7.91-17.67-17.67s7.91-17.67,17.67-17.67S70.7,25.72,70.7,35.48S62.79,53.14,53.03,53.14z"
	/>
<polygon class="st1" points="49.58,45.69 42.21,38.32 45.38,35.16 49.24,39.02 59.86,25.93 63.34,28.75 "/>
</svg>
