<?xml version="1.0" encoding="utf-8"?>
<!-- Generator: Adobe Illustrator 26.3.1, SVG Export Plug-In . SVG Version: 6.00 Build 0)  -->
<svg version="1.1" id="Capa_1" xmlns="http://www.w3.org/2000/svg" xmlns:xlink="http://www.w3.org/1999/xlink" x="0px" y="0px"
	 viewBox="0 0 100 100" style="enable-background:new 0 0 100 100;" xml:space="preserve">
<style type="text/css">
	.st0{fill:#C16B6B;}
</style>
<g>
	<path class="st0" d="M27.37,20.97H13.29c-0.65,0-1.19,0.53-1.19,1.19v44.16h16.46V22.15C28.56,21.5,28.03,20.97,27.37,20.97z"/>
	<rect x="12.11" y="69.06" class="st0" width="16.46" height="1.86"/>
	<path class="st0" d="M12.11,83.97c0,0.65,0.53,1.19,1.19,1.19h14.08c0.65,0,1.19-0.54,1.19-1.19V73.67H12.11V83.97z"/>
	<path class="st0" d="M50.64,11.95H34.25c-0.65,0-1.19,0.53-1.19,1.19v10.86h18.77V13.14C51.83,12.49,51.29,11.95,50.64,11.95z"/>
	<rect x="33.06" y="26.76" class="st0" width="18.77" height="1.87"/>
	<rect x="33.06" y="31.37" class="st0" width="18.77" height="44.17"/>
	<rect x="33.06" y="77.26" class="st0" width="18.77" height="1.17"/>
	<path class="st0" d="M33.06,83.97c0,0.65,0.53,1.19,1.19,1.19h16.39c0.65,0,1.19-0.54,1.19-1.19v-3.82H33.06V83.97z"/>
	<path class="st0" d="M70.99,25.78c-0.28-0.59-1-0.84-1.59-0.55l-11.73,5.67c-0.59,0.28-0.84,1-0.55,1.59l1.89,3.91l13.87-6.7
		L70.99,25.78z"/>
	
		<rect x="59.25" y="34.53" transform="matrix(0.9003 -0.4352 0.4352 0.9003 -8.6097 32.6354)" class="st0" width="15.41" height="1.17"/>
	
		<rect x="68.45" y="35.32" transform="matrix(0.9004 -0.4351 0.4351 0.9004 -15.9745 38.5301)" class="st0" width="15.41" height="37.66"/>
	
		<rect x="77.65" y="72.6" transform="matrix(0.9004 -0.4352 0.4352 0.9004 -23.3405 44.4322)" class="st0" width="15.4" height="1.17"/>
	<path class="st0" d="M96.11,77.74l-2.82-5.83l-13.87,6.7l2.82,5.83c0.28,0.59,1,0.84,1.59,0.55l11.73-5.67
		C96.14,79.04,96.39,78.33,96.11,77.74z"/>
</g>
</svg>
