<?xml version="1.0" encoding="utf-8"?>
<!-- Generator: Adobe Illustrator 26.3.1, SVG Export Plug-In . SVG Version: 6.00 Build 0)  -->
<svg version="1.1" id="Capa_1" xmlns="http://www.w3.org/2000/svg" xmlns:xlink="http://www.w3.org/1999/xlink" x="0px" y="0px"
	 viewBox="0 0 100 100" style="enable-background:new 0 0 100 100;" xml:space="preserve">
<style type="text/css">
	.st0{fill:none;}
	.st1{fill:#5A6E7F;}
	.st2{fill:#97D5C9;}
	.st3{fill:#FFFFFF;}
</style>
<g>
	<path class="st0" d="M56.71,69.21c-0.35-0.03-0.69-0.05-1.03-0.05c-2.84,0-5.56,1.21-7.46,3.31c-1.93,2.13-2.84,4.9-2.55,7.79
		c0.24,2.37,1.3,4.51,2.9,6.1c0.39-2.24,2.33-3.94,4.68-3.94h5.87c2.03,0,3.74,1.27,4.43,3.05c1.64-2.05,2.4-4.61,2.13-7.27
		C65.22,73.46,61.45,69.68,56.71,69.21z M56.19,81.94l-0.28-0.01h-6.05l-0.02-0.12c0.75-0.31,1.29-1.15,1.29-2.14v-2.71l0,0v-0.1
		c0-2.91,2.45-5.24,5.39-5.06c2.52,0.16,4.58,2.21,4.74,4.74C61.43,79.49,59.1,81.94,56.19,81.94z"/>
	<path class="st0" d="M60.65,27.69c0,7.74,6.29,14.03,14.03,14.03s14.03-6.29,14.03-14.03c0-7.73-6.29-14.03-14.03-14.03
		S60.65,19.96,60.65,27.69z M64.51,34.4l-0.13-0.06V21.42l0.13-0.06l6.72,6.62l-0.01,0.28L64.51,34.4z M84.15,34.65H65.22
		l-0.03-0.08l6.61-6.04l0.05,0.04l1.6,1.57c0.33,0.32,0.76,0.5,1.23,0.5c0.48,0,0.94-0.19,1.28-0.53l1.57-1.54l0.05-0.04l6.61,6.04
		L84.15,34.65z M84.84,21.37l0.13,0.06v12.89l-0.13,0.06l-6.71-6.14l-0.01-0.28L84.84,21.37z M84.57,20.81l-7.01,6.9l-0.42,0.41
		l-1.57,1.54l-0.2,0.16l-0.08,0.04l-0.14,0.07l-0.09,0.03l-0.14,0.04l-0.1,0.01l-0.13,0.01l-0.13-0.01l-0.1-0.01l-0.13-0.03
		l-0.09-0.03l-0.13-0.07l-0.07-0.04l-0.19-0.15l-1.6-1.57l-0.42-0.41l-7.01-6.9l0.03-0.08h19.71L84.57,20.81z"/>
	<path class="st0" d="M48.52,43.57c0-10.54-8.58-19.12-19.12-19.12c-10.54,0-19.12,8.58-19.12,19.12c0,5.31,2.18,10.12,5.69,13.59
		v-1.03c0-4.59,3.72-8.31,8.31-8.31h10.23c4.59,0,8.31,3.72,8.31,8.31v1.03C46.34,53.69,48.52,48.89,48.52,43.57z M29.4,46.99
		c-4.88,0-8.84-3.96-8.84-8.84c0-4.88,3.96-8.84,8.84-8.84c4.88,0,8.84,3.96,8.84,8.84C38.25,43.03,34.29,46.99,29.4,46.99z"/>
	<path class="st1" d="M51.12,79.68c0,0.99-0.54,1.83-1.29,2.14l0.02,0.12h6.05l0.28,0.01c2.91,0,5.25-2.45,5.06-5.39
		c-0.15-2.53-2.21-4.58-4.74-4.74c-2.95-0.18-5.39,2.16-5.39,5.06v0.1l0,0V79.68z"/>
	<polygon class="st2" points="56.19,87.72 57.44,84.01 54.93,84.03 56.16,87.72 	"/>
	<path class="st3" d="M58.97,83.49c0.12-0.2-0.89-0.88-0.89-0.88l-1.9,5.67l2.25-2.44l-0.97-0.94
		C57.47,84.91,58.91,83.61,58.97,83.49z"/>
	<path class="st3" d="M56.19,88.29l-1.9-5.67c0,0-1,0.67-0.89,0.88c0.07,0.11,1.51,1.42,1.51,1.42l-0.97,0.94L56.19,88.29z"/>
	<polygon class="st2" points="64.38,34.34 64.51,34.4 71.23,28.25 71.24,27.97 64.51,21.36 64.38,21.42 	"/>
	<path class="st2" d="M75.95,30.12c-0.35,0.34-0.8,0.53-1.28,0.53c-0.46,0-0.9-0.18-1.23-0.5l-1.6-1.57l-0.05-0.04l-6.61,6.04
		l0.03,0.08h18.93l0.03-0.08l-6.61-6.04l-0.05,0.04L75.95,30.12z"/>
	<polygon class="st2" points="78.14,28.25 84.84,34.38 84.97,34.32 84.97,21.43 84.84,21.37 78.13,27.97 	"/>
	<polygon class="st2" points="64.8,20.81 71.81,27.72 72.24,28.13 73.83,29.7 74.02,29.85 74.09,29.89 74.23,29.96 74.32,29.99 
		74.45,30.02 74.55,30.03 74.68,30.04 74.82,30.03 74.92,30.02 75.06,29.98 75.15,29.95 75.29,29.87 75.37,29.83 75.56,29.67 
		77.13,28.13 77.55,27.72 84.57,20.81 84.54,20.74 64.83,20.74 	"/>
	<path class="st1" d="M20.57,38.14c0,4.88,3.96,8.84,8.84,8.84c4.88,0,8.84-3.96,8.84-8.84c0-4.88-3.96-8.84-8.84-8.84
		C24.52,29.3,20.57,33.26,20.57,38.14z"/>
	<polygon class="st1" points="28.4,52.01 27.39,50.16 28.4,52.01 	"/>
	<path class="st3" d="M30.45,52.01l1.02,6.73h1.23l1.91-10.01c-0.19-0.01-0.37-0.03-0.56-0.03h-9.27c-0.19,0-0.38,0.01-0.56,0.03
		l1.91,10.01h1.23l1.02-6.73h0.03l-1.01-1.85h4.02l-1,1.85H30.45z"/>
	<polygon class="st2" points="28.36,52.01 27.34,58.73 31.47,58.73 30.45,52.01 30.41,52.01 31.42,50.16 27.39,50.16 28.4,52.01 
		28.4,52.01 	"/>
	<path class="st1" d="M74.68,45.02c9.55,0,17.32-7.77,17.32-17.32c0-9.55-7.77-17.32-17.32-17.32c-9.55,0-17.32,7.77-17.32,17.32
		c0,1.27,0.15,2.5,0.41,3.69l-7.83,2.77C46.34,26.38,38.5,20.97,29.4,20.97c-12.46,0-22.6,10.14-22.6,22.6
		c0,12.47,10.14,22.61,22.6,22.61c3.79,0,7.36-0.95,10.51-2.61l5.94,6.61c-0.02,0.03-0.05,0.05-0.08,0.07
		c-2.56,2.83-3.77,6.5-3.39,10.32c0.62,6.29,5.64,11.31,11.94,11.93c0.45,0.05,0.91,0.07,1.36,0.07c3.77,0,7.37-1.6,9.9-4.39
		c2.56-2.83,3.77-6.5,3.39-10.32c-0.62-6.29-5.64-11.31-11.94-11.93c-3.08-0.3-6.13,0.48-8.66,2.13l-5.64-6.27
		c5.61-4.12,9.27-10.74,9.27-18.21c0-2.2-0.33-4.33-0.92-6.34l7.67-2.71C61.42,40.69,67.55,45.02,74.68,45.02z M74.68,13.66
		c7.74,0,14.03,6.3,14.03,14.03c0,7.74-6.29,14.03-14.03,14.03s-14.03-6.29-14.03-14.03C60.65,19.96,66.94,13.66,74.68,13.66z
		 M57.47,84.91l0.97,0.94l-2.25,2.44l-2.25-2.44l0.97-0.94c0,0-1.44-1.31-1.51-1.42c-0.12-0.2,0.89-0.88,0.89-0.88l1.9,5.67
		l1.9-5.67c0,0,1,0.67,0.89,0.88C58.91,83.61,57.47,84.91,57.47,84.91z M54.93,84.03l2.51-0.02l-1.25,3.72h-0.04L54.93,84.03z
		 M55.68,69.16c0.34,0,0.69,0.02,1.03,0.05c4.73,0.47,8.51,4.24,8.98,8.98c0.26,2.66-0.5,5.22-2.13,7.27
		c-0.69-1.78-2.41-3.05-4.43-3.05h-5.87c-2.35,0-4.29,1.7-4.68,3.94c-1.6-1.59-2.67-3.73-2.9-6.1c-0.29-2.89,0.62-5.66,2.55-7.79
		C50.12,70.36,52.84,69.16,55.68,69.16z M32.7,58.73h-1.23h-4.13h-1.23l-1.91-10.01c0.19-0.01,0.37-0.03,0.56-0.03h9.27
		c0.19,0,0.38,0.01,0.56,0.03L32.7,58.73z M42.83,57.16v-1.03c0-4.59-3.72-8.31-8.31-8.31H24.29c-4.59,0-8.31,3.72-8.31,8.31v1.03
		c-3.51-3.47-5.69-8.28-5.69-13.59c0-10.54,8.58-19.12,19.12-19.12c10.54,0,19.12,8.58,19.12,19.12
		C48.52,48.89,46.34,53.69,42.83,57.16z"/>
</g>
</svg>
