<?xml version="1.0" encoding="utf-8"?>
<!-- Generator: Adobe Illustrator 26.3.1, SVG Export Plug-In . SVG Version: 6.00 Build 0)  -->
<svg version="1.1" id="Capa_1" xmlns="http://www.w3.org/2000/svg" xmlns:xlink="http://www.w3.org/1999/xlink" x="0px" y="0px"
	 viewBox="0 0 100 100" style="enable-background:new 0 0 100 100;" xml:space="preserve">
<style type="text/css">
	.st0{fill-rule:evenodd;clip-rule:evenodd;fill:#00937B;}
</style>
<path class="st0" d="M83.71,35.63L76.5,14h-50l-7.21,21.63c-1.12,1.5-1.79,3.35-1.79,5.37c0,4.97,4.03,9,9,9
	c3.77,0,6.99-2.32,8.33-5.61C36.17,47.68,39.4,50,43.17,50c3.77,0,6.99-2.32,8.33-5.61c1.34,3.29,4.56,5.61,8.33,5.61
	c3.77,0,6.99-2.32,8.33-5.61C69.51,47.68,72.73,50,76.5,50c4.97,0,9-4.03,9-9C85.5,38.98,84.83,37.13,83.71,35.63z"/>
<path class="st0" d="M76.5,52c-0.34,0-0.67-0.04-1-0.08V74.1c0,1.78-1.45,3.23-3.23,3.23H30.73c-1.78,0-3.23-1.45-3.23-3.23V51.92
	c-0.33,0.04-0.66,0.08-1,0.08c-0.69,0-1.36-0.08-2-0.23v31c0,1.78,1.45,3.23,3.23,3.23h47.54c1.78,0,3.23-1.45,3.23-3.23v-31
	C77.86,51.92,77.19,52,76.5,52z"/>
</svg>
