<?xml version="1.0" encoding="utf-8"?>
<!-- Generator: Adobe Illustrator 26.3.1, SVG Export Plug-In . SVG Version: 6.00 Build 0)  -->
<svg version="1.1" id="Capa_1" xmlns="http://www.w3.org/2000/svg" xmlns:xlink="http://www.w3.org/1999/xlink" x="0px" y="0px"
	 viewBox="0 0 100 100" style="enable-background:new 0 0 100 100;" xml:space="preserve">
<style type="text/css">
	.st0{fill:#FFFFFF;}
</style>
<path class="st0" d="M47.7,6.9C24.9,7.7,6.2,26.1,5,48.9c-0.4,8.2,1.4,15.9,4.9,22.7L5,93.7c-0.2,1,0.7,1.9,1.7,1.7l22.1-4.9h0
	c6.7,3.5,14.4,5.3,22.5,4.9C74,94.3,92.5,75.6,93.4,52.9C94.4,27.2,73.4,6.1,47.7,6.9z M49.2,86.2c-6.4,0-12.5-1.7-17.6-4.8
	c-0.5-0.3-1-0.6-1.4-0.9L16,84.4l3.8-14.1c-3.6-5.5-5.6-12-5.6-19.1c0-19.3,15.7-35.1,35.1-35.1s35.1,15.7,35.1,35.1
	S68.5,86.2,49.2,86.2z"/>
<path class="st0" d="M70,66.6c-0.6,0.9-1.3,1.8-2.3,2.8c-2.2,2.2-5.4,3.4-8.5,3.1c-5.7-0.6-13.7-3.7-20.7-10.6
	c-6.9-6.9-10.1-15-10.6-20.7c-0.3-3.2,0.8-6.3,3.1-8.5c1-1,1.9-1.7,2.8-2.3c1.7-1.1,4-0.4,4.6,1.5l2.3,7c0.6,1.9,0.4,3.1-0.5,3.9
	l-1.9,1.9c-0.9,0.9-1.1,2.3-0.4,3.4c1,1.6,3,4.2,6.5,7.7c3.5,3.5,6.1,5.5,7.7,6.5c1.1,0.7,2.5,0.6,3.4-0.4l1.9-1.9
	c0.8-0.8,2-1.1,3.9-0.5l7,2.3C70.4,62.6,71.1,64.9,70,66.6z"/>
</svg>
